<mxfile host="app.diagrams.net" agent="Mozilla/5.0 (Windows NT 10.0; Win64; x64) AppleWebKit/537.36 (KHTML, like Gecko) Chrome/136.0.0.0 Safari/537.36 Edg/136.0.0.0" version="27.0.5">
  <diagram name="第 1 页" id="EjwNBlpFFi5KLeo9LrlD">
    <mxGraphModel dx="1028" dy="610" grid="1" gridSize="10" guides="1" tooltips="1" connect="1" arrows="1" fold="1" page="1" pageScale="1" pageWidth="827" pageHeight="1169" math="0" shadow="0">
      <root>
        <mxCell id="0" />
        <mxCell id="1" parent="0" />
        <mxCell id="Ad3LIf0rELRbJNZ-NLFZ-1" value="" style="shape=image;verticalLabelPosition=bottom;labelBackgroundColor=default;verticalAlign=top;aspect=fixed;imageAspect=0;image=data:image/png,iVBORw0KGgoAAAANSUhEUgAAApkAAAEfCAIAAACFzEpdAAAgAElEQVR4Aey9Z3QbR9oueL89e3/s7r0/99y7Z8/dCZ4Zjz3+xuMZe0a2la3gJEuWRDHJyjkzAehGYs4iKTFLYhQpUSTFTIAgAGZEZjDnDGaCIJFDY03WqA0xCQRJEZC7Tol6u7rC289b6Kdy/xcD5jAEMAQwBDAEMAQwBKwZgf9izcpjumMIYAhgCGAIYAhgCBgwLscqAYYAhgCGAIYAhoB1I4BxuXXbD9MeQwBDAEMAQwBDAONyrA5gCGAIYAhgCGAIWDcCGJdbt/0w7TEEMAQwBDAEMAQwLsfqAIYAhgCGAIYAhoB1I4BxuXXbD9MeQwBDAEMAQwBDAONyrA5gCGAIYAhgCGAIWDcCGJdbt/0w7TEEMAQwBDAEMAQwLsfqAIYAhgCGAIYAhoB1I4BxuXXbD9MeQwBDAEMAQwBDAONyrA5gCGAIYAhgCGAIWDcCGJdbt/0w7TEEMAQwBDAEMAQwLsfqAIYAhgCGAIYAhoB1I4BxuXXbD9MeQwBDAEMAQwBDAONyrA5gCGAIYAhgCGAIWDcCGJdbt/0w7TEEMAQwBDAEMAQwLsfqAIYAhgCGAIYAhoB1I4BxuXXbD9MeQwBDAEMAQwBDAONyrA5gCGAIYAhgCGAIWDcCGJdbt/0w7TEEMAQwBDAEMAQwLsfqAIYAhgCGAIYAhoB1I4BxuXXbD9MeQwBDAEMAQwBDAONyrA5gCGAIYAhgCGAIWDcCGJdbt/0w7TEEMAQwBDAEMAQwLsfqAIYAhgCGAIYAhoB1I4BxuXXbD9MeQwBDAEMAQwBDAONyrA5gCGAIYAhgCGAIWDcCGJdbt/0w7TEEMAQwBDAEMAQwLsfqAIYAhgCGAIYAhoB1I4BxuXXbD9MeQwBDAEMAQwBDAONyrA5gCGAIYAhgCGAIWDcCGJdbt/0w7TEEMAQwBDAEMATeZS6Xy+QqlWptG+t0ur7ePolEsmI0BEGGhoYmJiZWvLs8EEGQ2dlZnU5nMBgQBOnt7WUzWbOLDkGQ5fFXDDFFbeOEaz+CcUxrl7OzshLjE/g83jvvixmMvTt3KeQKCzdZTlZWUGBgYECgv5//u+0DAwJ3ff6F5VvEwisMpt7WIfDOcrlGo7l57bqPl/ca2Ol0OlYxc8+XOxsbGleMVlNdfXDf/iI6fcW7ywP7evv2fLmTz+MZDAZWMTMkODju8WMvd489X+7s6elZHt84ZHh4WKlUmqK2cao3PoJx5E2REQRRKpWbkpXpmSgUCnubU93d3aYnsdKYk5OTBBy+pbnZwvVXKBS2J08GBATCMNFyPATDBGjBQxC8WVo5O7ucPf1Tc1OThVsEU+9XjsA7y+Um2nV8fPzbw4dX43K5TG5/ytZ0LjculIDDR0VEGIesIQ8PD589fXpUPLpGnNVurf0Iq6UyO7yjs7u2rt7s5GYkfBQTk/0yy4yEW5dEqVS2tbUVFxfHx8fTaDQej6fX6zdeXHpa2qkTJ7Ra7caz2tIcHsfGenl4bhZZbjwfCIbdPTxSUlLKysq6e3q4XF5RURGFSt14zndu3T5x9JjlW2RLzY1lbhUIWCKX67S6/Ly8nTs+v3ju/N5du8kwUaPRpL948TDsgZ2NzaOYmKSExH98/LedOz53sLWTy+QGg0GtVj+OffT5Z/+8cfXaPz7+25NHj+bm5mKjY4L8AxRyuYuT04Wz51JTUghuOKlUimb15NGjsbGxJVze2NDoTqH4+/peOHtufGwMcPmoeBTn4korKLxy6dKoeLSYwYiKiEiMT0hKSDSWe3p6cC6uVZVV3V1ddjY2TnfuVlVW1lTX3Lt9p72tXSKReHt6PYqJ/e7w140NjSlPn0ZHRQX5Bzx5/PhlZuYX/9qRk5U9OTEB1EYQJOXp00B//yD/AKc7d3t7ey+eO3/4wMFrl698/823xqyPcvmoeNT53r3nqc/sT9mWsNmiRpGXh0d+Xl6An19jQyMqmz7av2INfptcPjMzs3PH55OTkytq8pYDEQTRaDQzMzMMBsPLy4uw6EgkEgzDCQkJ09PTG9Gnq7Pz/ff+MDg4uJFM3kJaiUSyc8fnfn7+G6fJTcnBw8MzIDCwrKzMeKxIr9f39vaGhIRspIh795z++LvfW75F3oLRsSKsAgFL5HKDwdAkEn198NDIyEh/X/++3XsyMzKO/3A0Iz3d29Pri3/tKCstA3eNIWYzWSd/PD47OysUCPft3tPX2xcTFe105y6CIP19/V/8a8fxo8emp6c72juMs2puajbmcsnMzLmfznR3dc3NzSXGJ/T39wMu7+7qSkpInJqaOvnj8SI6nYDDU0jk6elpVjHTWJbNy9B+vKuzM+iXo1zr4+Wdnpam0y20VAR8fkpycltbW2F+ge3Jk9VC4beHDwOGBmqLGhsd7ewlMzM6re7mtetRERGuzs7hDx7Oz8+jRYDHB/k31DfgXFwzMzIMBkO1cGFqICwk9Ozp05KZGVYxMyYqGpWN33rGAJoovx0u1+v13p5ebBbLRK22NJparZ6YmOByuU+ePImIiCCTyfCigyDI3d29oqJCJpNtRIFHMbF3bt7clJ79RtRYO61er/fx9PT18d0IQa6R1pRRcWhh/BwikUi+vn6PHj8uKirq7ukRj44aN09VKlVRUZGvr98aZb3x1o1r129eu27hFlnbXtjdXxsClsvlgNvAKHdQQKDtyZPoG7NJJAJ3a6qr7U/Z2p+yjYqIYDNZIA7KnSiXIwji4+V95NvvJDMzaDRgaTQyuETbEOASHWNXKpVPk5KeJiUdO3KkiE4fFY+e/PH4zh2fC/h8YxmNbzAYlnA5n8e3P2VbmF+A1rCuzk4/H5/Y6JgVuZxVzDxx7Me5uTmDwQAeBGRoXITxIxjnDx6Kx+HeuXnrow8+zM/Lk0qlqGz84kOVMV14C1w+PDz8IDR00wc29Xq9VCrt7++vrKzk8/lLljQiCKLVatVqtVKplEqlYrGYw+Hk5uaGhYVRqVRokWpgGHZzcyMSiTAMk8nkJ0+eSKVS06FbHrNaWP3Rnz+YmZ5ZfsuiQn5ezIF3w3l7+7yRBdcVgUgk+fn7R0ZH0+lFbBYrMiLSODmRSKJQqFSqu7uHZ1BQUFx8fHl5eXt7u0wmW7EO63S6/v5+/4CAxYaWmbP4TvecPvzT+5ZvEYuqHpgyloCApXP55OSkg61dbk7Ojk8/q62pQRAk/cULWkEB2otFQURJuqO9w8HWbmpqCuXyhoYGMkw8fvRY+IOHtTU1xlkJ+HzjfvnY6Oj+PXvy8/IQBCkrLa2rqwOd4GepqXdu3pqbmwOXz1OfSSSS56nP9u/Z8ygmFpX7+vrQTvMSLgf9Zud797RabX9ff3raixPHfqytqQFqL++Xt7e179+zp7W11WAwBAcGJScmrc3lDfUNVDKFCEEIggwODJxxdHzxPG1ocLC8rGznjs9joqJRuUkkQkEzQ9hSLtdqtbdu3KitqTFDsTWSzM3N1dXVFRUV+fj4wDBMpVLpdLpOp5ufnx8dHe3s7OTz+Ww2Oy0tLT4+PiQkxN3dHRA26H+jf6FFRyQSIyIi+Hz+G3dJrKGSVqsN9PMvLyvTa7WSoT6tetUNF4her5qfW9gYoddLxUOq+V9aDwrJ9HRfl8Fg0CjkOo16jeLMvqXVam9ev+G3sW6uMUMD2c/PPyMjo7KyEjTQ1Wp1RWUliUz29fMLj4hMSEzMyc1ll5TUNzT09fVJpVKtdmFvyGoOQZDR0dGcnBwPT/Nn8SEIvnLpcmlJyWqlGAyG7jlNcvecVLMJayPWKAW7tS0IIAjCKCoSi8XbUvrGC7VcLv/4Lx9BeDyEx2dlvlSpVAF+fn/83e/37tqdnJjIZrF2ff5Fk0hk3DxnM1nvv/cHf1/fe7fvVFZUKpVKbw/PC2fP9fb03rpxo7W1NTcn56M/f8DjcNCsniYlNTc17fr8CzaThW4ky36Z9dEHH37+z38lJyYNDAx8/823yYlJxQzGp598cvfW7a/27j3j6Hjz2vUHoWHpaWlhISHO95xQGY0/OTFxxtGRSqbI5mWtLS2giI729m8PH/7ogw+d790Tj4xcOHvu6PdHrl+5+vFfPop7/OT7b75d0LOlBagtkUhSkpOvXb6SnJhEJVPEYvHlCxc8qNT+vv6D+/Y/TUpCFUbzHx5aWED3KCaWQiSxWezoyCgXJydWMZNCJD0IC0Nl0Nc3u+psHZenp6UlxMebrdhqCRUKRWRkJIVCIRKJBAKBTCY/e/bs+fPnsbGx3t7efn5+3t7eXl5eZDIZxEGZe0WBSCQyGIwNdseZxcUH9u6Ty+UGAzJYy62MDpBNrbrvcaxdVBHpJxnuG6rnV0T6TXa3gyfVa7WivOe1L+J0GnX1s0eivOerIWB2eMaLFxQSmUQiLydjs0MgCPb08hocHNRqteD3q9Vqm5ubOzo6hkdGJBKJTCZTKpXrGt8WCIV+/huawne+57Rv126FYq1NgFoESeqe+/8y+lpnt6TZZLaZsIRmI6DT6UA3KSU5+fCBg27OLps+HGi2butNaLlcvrznvfazof3ytaNhdzeIwFZwuVwuP3H0WHfXQhfTPKfX640bdmB/v0qlqqmpIZFIRCIRDJKDpWpEIpFMJuPxeAiCQP8bgiACgYAOpK/I4gubnIhEHA43Pz//RiX1er1WqwXD9RKJZGJiYnh4uKenh1NVdff2beMNTlO9HVWxQWtwOVqWfGayKjYI5XKDwdDOzKt9EWcwmHp0AZrVGwW5XP7jkR820h0nkylEEgmCiRC6aY1Icnf3yMx8CZqhb9TBxAgIgiQlJa3RtljUASaRSGQKxdPTy98/IDAw6H5ISHhExJMnT2JiY2/duGniYBVtWP6bTIzLTbSMFUQrotN//OGHUfGoXCa/dP7CP//+D+vd+GqhXF5bU3PoqwMjIyOmV4fC/AJ0gnm1VDoEeT4wYs+p37i35YqO80UnuY1XK1rsYwrtAnPtA+nG3ia4+FQQ81RQsV0gw37Bs2yCKk4Es07dpzsGMU4HlNoGV54JKP8piHnqPt0hgOngX74Y7bVMjDNcUT4dUHg6gOYQyLALZNkFlDoEMhxDso+H5Jy8X9DcuyXLvzeXyxEEiXgYnpX5cjWTvTFcr9d3dnZmLbqysrLq6uqWlhaRSMRgMJ4+ferh4bEaMZsRDtoEavVr3TKdTqdQKKanp/v7+5ubm3k8HoPByMnJSUtLS0pKioqKevjwYWBgoLu7u9Pdu/a2dhqNxvihpno7yh548hPDK6L8mvLS1LI5YUp0GyNnfmKU8yh4oIYz2d1Wm/ZkZqAH5XLZ1ETti7juCkZFlF/tizi1fL6dlddckC4Z6uM8vs+NCxUkRQiSIjQK+XBjdV16fHVqbHVq7GAt17jc1WQEQaIiIjyo7muw49q3iERSXFxcTU0Nn89nsdgvs7KepqSkpj4rKS1tbW3dyMTEijojCHL/fggEL+wpX9hZDsMUCsXDyysoODguPj41NTUvL7+srJwvEDQ0NLR3dAwNDY+NjUkkErVanfHiheMyixiXotQhpyvGHrRKvmGOMMVywOWcceVO2pBX43TxiPx/vug9Uzk2r9Wfqxr3Ec1oTT4SyrgUTN4WBMCyYgIOr9Pq0tPSHsXEHvn2O7B8eFv02WChlsjlOq2Oz+PRC2kCPn/Ji2+1p1UqlWWlpfRCWmND42qt/t55+cYpHM3BsVJkzxHZc0WnOU0XOC1nuG12vFZjf0rQckrQZCtodODXnebVOPBrbAUN5zn1lyrqfuJUnxQKfqxuOlrTcZrTfqGy9Xh1kz2/0YHXYpyDKbI9r9mO33RK0HRKILLji+z4jSeraqPahtW6rZrS20Qun5mZ+ezv/1iyBm01E68YLpVK4+LiyGTykl41BEGurq4rznmbQeFoEiKR6Onp2dnZWVNTw2Qy09PTg4KC/Pz8CAQCDMPOzs7ERQd68DC80BcEo/pOTk5/+O3vhlbacgb65fOTY1LxUEWk71hbY92L+DZGjkYh5yc8HKzlohSOCqK8552lNIMBQfvlQNAoZPyEhwPVlSDmWJuInxg+WMsdb2+qjAmQz7y5bTczPf3pJ5/4mLvGDYJgP3//7q4u4zES5JVb0YIbD0QQJCMjIzc3t6ysXCQSSWZmlEolKBMMzxgrgxbX0939p9+/t6JF0Dhggvw3mX0PWiXlY4qikQUu/x8venfRh3MH/71zwa1m6r2X/XXTqoPFI91zr7XSjPPBZAtEAKwjDg4M6u/rJ0LQxMSE/Snb4MAgC1TVFJUskctN0XtdcVR6fVBrD0rDmyKc4oocqkQOHJFjddtRoehHQf0pXq2xd6xqclj09lXN9lXNdpzGY0Lh13WNttzWa6WiC5XCSyUV7tksv8wimMZ0oXOvlIjsuHXGOZgg153itJ8u7zhf2n6uvMWO02Rf2SyeW3UV1bpAWy3ypnC5Xq8nE0lspplbzjQaTU9Pz8uXL8H4OTpaDtamgaFydOcYysQbF8BQPIFAwOPx8EJHcOF0MfCXSCSiA/jouD0Qbt246XT33moTwOgYO0rea3P5WGsj4HjjMXZjLkfpf6KzpTbtiSjv+Vi7SJgSrVEsnMSwmvt5koJCJHl5eq3d517tLoXq/vjJk5qamtUec7VytyX8ceyjNSyyRKVHHdL/ltLzz4KhrjkNbVj+31J6/ntqD8rl3XOa32T22ZePXeNNbP5UxxJVsMtNRQBBEKc7dyE83sfLu6GhYWZ65vCBg0+Tkja1kLeX2bvP5fUz0k0hb+NM7Dj1R4QiG94CndtxFgbbbfj19twaY+/I5zvyBA78agdBvYNAZC9oseV12nKbr7KqfFNePA0MyYPds0m4ApJTiRscdz/pSmm9Ha/OOAdT5ItVTY685hOCZjteS0HvhE6/5e+TjXP50OBg6P37S0aqTa/yfX19iYmJXl5em97tNoXscTgciAZKJxKJHh4eq7UbXF1c/vrhX2Zm1tpyhnK5UioRpkRLR4cBl6vlMl58GErMk93toLc90dnyaqXbyv1y4yST3e1tjGxxU61ybnYNhAcHB91cXD3MOsqNAEGPnzxpbWtDt4yuUdC236qprv74Lx+ZfrBPz5zGq3F6XKnbSRv6ijEMxtgvc8f/nxd99dP/bjTf4E3899QexshaTaVtf3BMgRURyM/L++Pvfh8ZHq7T6oQC4eEDB3t7e1eMafmB7zKXSzXaq4ImYw7eRPk4X3SKuzDM7lC18PcUr/Hk695O2Gsn7LYTNDvy6+y5XMeyEkJGfmpwUg45IJtKLCO4st0IuThyLuQfG55ys4h3prz7FLdpSSZrX9rwGmz5gpM1NadrW2eUb2l8byNcrtFoLl+8VC0UmvHD0Ol0Y2NjqampYFMZWIZmCvtuYhwIgjw8PHx9fUNCQkJDQ6Ojo1MXHXXhuNDXHARB169eLS8tW3GA1/jx5TOTguRIMOE93CAEK9vLwr2rU2PLw73bGDkT3a0Vkb6Ddfyp3o6KSN+hesFkd1t5hA8/MbwqNogXHyYZ6hflPhMkR84M9XEeBXeVF010tZaHew/WcsDEeX1mUmcpTS1f4UCbBYucv+Dt5b1ah3uNcBKZ8uDBg5aWFuPHsVhZr9cHBwaVl73ZIsaP0CHV/DazP7ZDepQtjumQxnZI/++03vS++U/yBv+UtTC0bjAYSkcV37PESt2WN6ONFcPkTUFgfHzczsbm/JmzqSkpl85f4HI4b/zBbkq5W5HJu8nliMHAHJ1cnbkbHDj1jpxaR06NHbfehtdgz6k/XbXg7Tn1ttx6W26dHbfOYSGw0bGq0ZbTeJrT6MCpPVvOu1Fc5pJf5JZdcDuP7VBV48BpseO22fKabXktJ3ktp6oaHctqLzD5V2iV9/KK8ek53nFJEQ/Ck338MknUAhwpi4jPorjlEaAcN99Msk9yYCg5O+dELfd4da0jt86O12zDbbbhNtlwRTYLLYOGk/zGE6/8cX6jDbfpBK/pqLDxOL/Blic6xWs6KWgRjErf5lvEbC5PSU6Of/LEvEo8OTmZn58PdoeDrWXo0vTXKHRrLsDQfUBAAIvFGh4eFovFTCbz0aNHxmfIGJfs4uxy6MDBxS1n5j3u5qTSa7Ut9JeT3e2T3W2dZfTmgvQl+aY8fQoTIPAlElOOXUN5HYKJISGhHC537U1cS4rbxks2k/XNwUObPnKg1CEjcu1twURQ88ofWtzGR8aKNgUBNotdU11tSkzLj/MOcvmYUrU6iy+w9Qley3F+sw2/xpbPP8WrPckT2Va1/1TRfrqi/RSn3a6q/Ux5qy234ds6wbEaoQNPZMPrPieocKLnh8cmFHgGM4jkdLJrQOzzUzy+I7fNobLhbCkLys7xTc0Ii4mPDwxN8/LJJJEKIKjQyNPxxHyIkkV2K4JuMyGXTF9fn9T8W6xae4HoR36DPUfkWNlkX9lmX9m+4KvaHCrbbLmiE0KejYBnxxOc5tScqaxz5NSd5NecEPJthVzbGo5bZ7NMvdYZGltR/8zgcrlM9v0333Z1dpqnT11dnZ+fHw6He8uD6iQSCWxaCw4OLiwsHBkZQRBEp9NFRUWha9yMKRyGYRcXl8sXLlrIV85GRDVVsUFzYyN6rXawhjNUx0N3r8llsm8Pf12Qn8/hcFpaWjo6OnNzcxcm/9H9Y6sLBAjOyMhY7TPB5pl461JNT09TSGTjTYCbWNbz3vn/42n3dywxdnrMJqKKZWUeAu8Ul2sRJLl3eG0it+fUO1R22Fa1H+c3HRM0HBc02vBEp7gN9pwGG17DSV7DufKGS6Wiy6WiG+w6e67gVDX/Jq2skOrBJpDKnQnFrri0IGpschAhI9ErOS7HJ5xJ9qETXfMg15ckYiGRWETA0yG3AqJrIUww5vJCiJBBdS4kOhe4ke8/Sr1Or/qJ03qa2/kTr/OnylZ7TvMxfpMtr9qBK3Tg1C0ummt1qGqx59bbcRpsOSJbTtMpTvNxbvtC759Xf5rb0DmzwpCpeZVgXanWxeUIgoQE389IX9ojNKVE8PH4tLQ0Nzc3AoEAVpYt4c4tvcTj8e7u7jExMeB0HY1Gw+FwfH19V9uG7uLsfPb0aRN3XpiCgHEcxbRC9LwR9ca3VpMRvX64QdiQ9bSFljkrHgREjiBI6P2Q5RZBECQ6OtrP359Mprh7eATfD4mIjAwNCwsJDQ2PiHgYHuHl7Q0TSZFRUaKNnRu4mrZbEf4yM/PsTz9trkUEUXzUK6bXOltmK54Iy3PTEUCtKYjiq+df22666WVtaYbvDpd3m7zlzIbXYMNrtOM0nea123Pb7bjtJwQtZ6tazle0OPBabXjNjpwGe27dMUHzldLq0Kcvsn08c8i4HDIum4zPJUH5RLgQItIJZAYeLnGF8ohwLkwuwUElBNcCEi6bgs8lQjTCa53yQgiiE4j5MJlOgGNJPtdLiu0EgjOC2tP8OvuqOruqplOctpOcjp/KW85UNDtyWux4LSeFzSf5TQ6chrOVtRdLuTfYlddpDLecbK8X6QVVNWsfabmlNcZ0Lp+amvrPDz4cHx83Qx+tVltUVBQYGAh6xmBcHV2mDgR06xcgV7AtDY/HUygU8zge3dtGIpGCgoKys7Obm5vBMLJUKn358qW7u/uKObu6uP7ht78bHhoy40lNTKKYVjx4PxT4x1/EmphqSbSpqam/fviX1SwyOTk5PDzc3Nzc1tY2MTkpk8mmF51MJpufn29tbeVyubOza62hW1LcNl729PSstglwg1o9+jwGNQTG5RsE0xKSR/8jEjUoxuXbbBGFTu/d3P3G7jgawYErtOcKT3HrT/GbjvHrfqyuuccohVIKfJ7SSTnsW8Ul19iVN+nlXs8zsvxCy11JWR5QFplaSKAW4cn5EDmXSCqAiAWQe4UzmXOPWO4CF+OgbLJrhvvdPNLdAuK9bIpzmodz/pJ+OYFUQPAsc/YMpkSd4rb+WNN/tqzjArv1p8omx5pGR6HwfHmFPZd3tqLqLr3EPa3wQXxO3MNnzz0fZlKDcwieDBy5xBnKJdyeHV/1sM+3YwZTuPzn41NwLq7FDIbZKpWVlXl7e3u+clQqlUwmk145IIPj2wCjox13CoXi4uKy2sLyFZkY5AC2mZHJ5MDAwLq6OvQoR71e39PT4+PjAyIsz8Hp7j2Cm9tW78XaIJfrdDqCG24jFjHblG8/YUJcPN51qyyCcfnbN+iWlohx+ZbCa2rmCIJUT0lQkjZROF8ucqxstuE1ninjULLzw2LictxJDBdcqTO+GA/RiFAeyT0P9mG6wHScaz6EY7mRabALC+fKxOPyifgCGGbhYBrxdg7ZKd0dR4PcignOhTCeTiAW4WEGHkcnuNEg19cH2CEagcjAU8pc8U88g/2eFwck5/mmPAuKjw+PiIkNffg0ICiX4ksnwkUwoQgiFOEJRXiYjsfTIJcCyLWACGfDpPaKSmTrt5y9Efo3cnlfX1+An98Gj/fSvu6USqV8mQNno4rF4sHBwaGhoYGBgaampoSEBCqVuq6ZdQiCPD09s7KyWltbu7u7jTfLzc7OFhQUgCNfwIEwxlyOc3P79G+frL3l7I14mhhhI1y+KRYxUc/tjVZXW/vZJ3/fUotgXL69Jt700jEu33RI153hrEZzQVi9sAn79TNZFwbPq2rtePzjQr4tt/5sedNxvuiYsNFG2HSa13ymquUkv8OW34jPoSX7PKDBnplkYgFMoEGL/pVQCBFoBOAhGgTnEfGFEJ5OANEg+sIQOp4GEQohmE6ACyEYrHQrgKACmFAI42kQngY755FcX5IJWSRyPuRRhPNk43AM+Hoe8V4OkZxFdMuGCHSiV74bhQZ50iFPOt6DBrnRIAKdQKYRSIUQIZ/omg/jCgm4AoqfXLo9s+PLrbIGl6vV6jMOjgI+f3mqtxDS0dHx+PFjf3//uLi4xMTE9PT0nJyc7OzszEWXnJyc+MrFxsb6vnLh4eF1dXWjo6PLl2QjCHpDro8AACAASURBVCKXy7u7uwsLC9PT04uKijIyMvLy8rKzs93d3W/duBkSHPzWdrCYx+Vqtfqs4+ntsshbMDpaBIIgD0LD7gcFbbVFMC5HMX83BIzLt9OOegShjUyB89QWDlJ9ncvtq1odqxrtudUnBDU/CEU/CJtOCAULe8GrWk9X1Z/hVJBzcpND44rwfjlE8ksyzHZbOre9pEtt3mUxjkyH4FwSLpvsmkfEFcBQPkQtwvmyXD3YOKiYQC4iQjSiK53kRiO50YiuNKJrMcGZDjnlk5zyiW50AsTE4xiwy5CobQu+nWG++Vbj8rjHj6OjoszPd8Mpt3qUG1WwrLT0yLffveUtZ2ZwedyTJ9trERSxrRbKSku//+bbt2MRjMu32ppvOX+My98y4L8UJ1aq7BcmvBe74+Cotde5/HxZmw235Ue+yI7TdKZiYTWZLU/4Q3Xtj0Le3YKcRw8jSnBEJoRnEPFVzrgyFyiLRDSPrddOxXDzKMKTaTC+EAa9bZi+0PUn0ag4euD14ojLleFubG+XUl+3Eh83pqcTjXyrCHKmE/AL2cL4QqJTVXSsWmlx6yqXc/n8/PxXe/a2tbX9YqR3VJLMzPh4erVux+ko6+Ly+fn5g/v2YxbZimqIcflWoLqNeWJcvg3gaxEkoUvqyOly4DYsdLI5A4vy0n65naDZRthykt9sy2225zXZC1pt+a1Xy0vDoyLYbhAL71IAL/BlAUTMIRILICITtyX98hwSlAfDhQQKHUeluVHoeArDH8d8dqK24fOa2n9xMq7QvNwKYVdjn0/G0wmuTByeBnlNDo1uA8QmFGnM5QiC+Pn4PktNNSGd1UfJy829evESuibuLT+PiVz+a7PIlYsX37JFMC5/yzV/q4vDuHyrEV6af+v45AlG2Hcl0EGW534mfKQ8zoHHd+DWOPCqwRi7I68R+O+bBQ6Cmp+q6o8Kak/UCM+VVwQ8zct0D2UQCPmku8UE52K8GxMHF+GoeTA1DyYV4xe7wkbnuqzd4Tbxbg4JlweT8iFKHuUu/eE5dvoJbs2uurYP+WWHaSF36ASoaNm+NQbsWkhwrsvJ12nf9gkwS+Fe/Rrl8onx8b+8/+c//+GPvxI/PDy8OipbfscULp+YmPjsH59+8vHffg3+b3/9eF3fRN4sC2FcvllIWkg+GJe/PUPIZWqXBwnfJV/8svDQX5l7P2d9uaN4587CW3Z8th2n1p5bC7j8VEWNTXm1TXn1kYp8+/KSkwLBUQGP/JL5zCOODsMvqHAhHi53gbNJhBzqjTzyzXyiWxGeyMQRGISla85NZOu1ozFwlCKcVz4M02PP8msOVHW+V9O4rzj8Dhsmswk3i0n4AgLBuFNeCLtynO7KJtb6DsfbA331klAuXz0KdmfzETCFyze/VCzHZQhgXL4MEusOwLj8bdgPQQxVgr7DgU5f5Hyzg3b0i3zbz+nf7Cjav4N+aAf9+y/oJ3cxTh9k3zrIuLqLdmQnbd9O2oGdBT98XvD5ZwUnT+VQHz6KSCd5FBDgfAJpwUPkAnjB5xKJ2UQ4mwjnUkjA5y+MuuPoBEIxHmbhYSYephMWFqujPh+GXvcwA+fJwBMYeBID58HAUeg4DzrBgw4TCgnEAhyZQSKVBF1mJp0o4+6u6vorr+tvHM6XFRHn8gkQDXIqIrgxcQQ6YfFgOBhXAEG5BLibw3lrq7c2Yjwr5nKtRpUaiPqNgPA204rrRgY5A12Mrkefx6B+kDMwyBmYHbDKY8DV5dmq9DDUv00wzS5LMaOYaJ2YaJ1I/joR9UP8oYnWiZmeabOzxRJuFwLyKflyg4prRyZaJyT9Vvmzstxz36ZmZA6E0K/jzu7LP/pPxlc76N/sLPz6S/ruXbRduwr37S48vJd2ZFfeD3uyHXZn2u/O/m5v/sG9+V/vzT16+OW3pxLtSP63klyhp3fgx67ExFteibe8ku/6pDr5pzr5Z7gRX+JwL3G4HAgC/iXskwV7ZUPuOQRiHgHKh3G5JFdjXwDDr3mISMP5LWw8g1wWNpLBTky8K8MVyoNJL7xdshMcy6sO1Df9ub79/ZquPzY07ShPO5breSGPfC+fDOeQb+WSXXKJUC7JpRCCGDhykae3Yt5qPpho1Vwudfjg3/7sx9v1EjGj3MSD8ejRVKiQcynLjKwsIYm6PBs1hDIGsgSVTNEh83Q6Cj4qPNn1SKfSmpIci2NpCLw4lYbaERUS9sdZwjEeZmBliVyOIAiTXXEdJlwNvOUccO+2h9tdKtmFQnYjU1zJHgQyjkAm4ImwCx52wRGdXXzuOfm44Ih4En7RQy5E0l0qyZmEI+JdiDDOjYLDwRDwbjDkBkM4yBVHcMYRnPGwK/CuxACY4OPtSgl3gVMJ5GwiOZcEGftiNyrzNU8pgu4UEZyLcO4MnF8xRM5yv8lIOFPLPVDX/GFd94fC7vdr2j+u7XxfWLOXFnMtHyKxcBS2qxfTlVxMcCuCXGkQrpBAyofhkdb2rd4Ra0a1WCMJxuVrgLNFt9py29B3DSqMNljo6sg3gmClXD7IG0TBR4XmF01vfF4sgmUi0F/Rh9oRFVqzreMbvsshtTguHx6ZunnbHcZTSXgPCKLiKG4wEU8iuhHId/AUZ2jhQC8SESIRITIRohIhd4hIIpBwBLIbRMZBJBgikt0oBGd3nCvVDSa5Ugl4MrTwb+E/ChF2J8PuZLzPXTe/m8Ye8rlB8r7q7XUxPPBKfOj12IeXQmLOG/tHYbceL/rYkBsL/v7Np77QU1840dv5ediZKtqRGt7e+vodDe3v13T+Sdj+Cb/tX3Udf61r/6i6/jN+yZGK546VKWcrM4+UvTjGfXGO8+xSwX2nqsRnGtVb+uj4csObHYJxudnQbSRh9oUs9HXz4P3QUs+SjeS2vWmtlMsNBkMxgWFshQyHF9uLJFb6BhEocqEbG/Tl2cwNZriNyS2Iy9VqTUxc2q0gZzj+Ij71hFP299cL916g2VwtOH618Nj5omOX6N/dzT94Pc/mev7J6/kngL9W+MNV+tdX6QeuFe+9zvzyOutfl0r2XGV+db3o20u0oxeKjp5nfH+++MD54gMXmAcvsg4tePbBiyWv+cvMHy6xvr/E+v5KyZFLrO+uMr+7yfjG2F8q/epi6f6LpfvPsfacY+05z9pzg7HzRtGeG7TvrhV8d5u1l8zf7cPfG1D+dWTZiRT+4bzmT4StX3BrdwkbP63t+F81Lb8RtnxaOfBJVd+HtX3v17f9Vj7fv41W30jRGJdvBD2z04rrRtCXTtTfI636qx7Wy+VzI3MPPwxDDTHIHTTboFhCS0BA0i9Brfng/dCR6u3cq7JBQCyFy5vbhi67O7k+/+ka69C14n3Xiw9fZX17seTAuZJDF9kHLrAPn2V/d4l14FbxjmvMPYt+9zXWrmusXVdZu6+w9l5h7r9cfPBy8aHLjMM3GLuuM/ZeZey/xtx/i7HrNuPL8yX7z5fsv1Cy/0LpVxdKv7rM3neFvdfYXyzdc7lk7xX2vmvMfTcY+26wDlwp+crYX2cdvME6dIN16DrzIPBXiw5fLd5zlbn7EnvfudJ955kHLjIOXWYdusg4eJ657wL7i/PMXReZX11mfnOV/c210q+ul+69ydpDKNtZ0hWv01vxBNtqXD41NS0eHbVkPzo8hE7TSs/81ZJVXVG3Alw+eO9Uhleu9rOXyeXdPb0rJrecwIn8RNQQ0yH3LEcxUzRhB7KAFbJvZykUytUMsSnhMpm8o7PbFK2wOGYjUOxdDAxaiCvcFKttVybbz+VytYzKcD6b9935sq8ulO28Xrp30/2Vsr3G/ip7/zXWBv1X11gnbhUfv1n84xXmsXMlRy+VHL7B2mfsL5YeAP5CyVfnS766xD54s/DHGfnUdll6s8pdzuX9A4P5BfSiYjZfUF1WXmWxvrykDKWQ2Z/+02L1XE0xVkFZ+F8fPD74qIjByiug9w+81ilUqdRcniArJ6+YVbJaDhYSLnoUiBqiz+OihWhluhoxu6MfvB9Ke1GcmZUjqK7Ziu0nSqWyisPLzs0vZlq6NU3HzTJjlpZWRn8RFf7Rg7y0QjqDJR611mUo28zlOkSn0ikWvVKlUy16pUpnFV6h1gGvVOuUaq1SrVUt82q19t9ej+g3i023N58lXN7b15+bVzi23V9iNQkTrQalEKlVrWNHn642rqaH2W0wGMbHJ3LzCnv7fpmpYbJKGxqtYx2W9Y6xA0O057cLIhY+IKTT6Wtq68vKVx0mQQ23LkGv1xcVs0RN1roIa10PawmRW7NaqmOFBoNhaHjkRUbW6Ni4JWi1Xh22mcvXq+42xtdqtVcuXUL9NmqyvUUv4fKcvIKJycntVcnU0q2fy42fdGJyMievAIQ0t7TxBNXGdy1ZtnYuNxgMGsUvq1Yrq7idXQsNrM1yjaKm6pq6zcoNy8cUBLSvNhYODA4xitmmJLG0OBiXm2oRrVb73m9+C/yf//BHU5O9c/GMuXx0bJxdUmY1j2i1XM5kFGe/zFrihQIhu6QM9CGKmSWTk1YzfWOlXF5fV7fEBNkvs2iFhSPi0dJN7ZrTiopnJFZ5XInVvAoWFRXwBcsNymQU5xXQ5+bmMzMybly9Niq2miF3jMtNrX4YlwOkjLm8v3+grr7RVAS3L56uv03bwteJOPPQcdRrW/jaFr5+pGf79DK15IX3S25uCZuN+qdJSUKBsK6+sb9/wGAw1NU3vp0vfpqq8SrxdJ31us56ZfqDedwPwCsCr4LAVVJYUHB9XV38kzjUBCVsNq2wkFZYKJHMbu6voK6+UaW2uA8kWpAlNkkVAV+QkpxsbNC83Fwmo7iuvnFickqpVJ776QyVTLGW8z8wLje1XmBcDpBawuVc/sI8k+U7GeHYL5Plr05/k7k7WL7mBoMBcLmxqoDLuXwh4PLcfJp1cHkzb7kVpA4fqLK288v3xsCuIQMuN46AcjmdwTQO36CclZ2HcfkGMTQlOeBy45iAy1ns0onFUa5nqamHDxycmbb0b2SAR8C43NiUa8kYlwN0rJTLNULmchbRNXHWMrnF3HtnuNxgMCiiCUsMMe/8tcUgvZYiGJevhY4V3nsjl1dVVu3fs2d83DqWwmFcbmodxLgcIGWlXG4wGOQht41ZRBGFM9X22x3vXeJy/cSQ1PFDY0NoqvK3G2CTyse43CSYrCfSG7m8SSTauePzJpHIKp4J43JTzYRxOUDKerlcP9BuTCH6sYWZZqtw7xKXGwwG1csI1BBy/8tWYQKDwYBxubVYykQ9MS43Eah3LRrG5cCi1svlBoNBmRIAWESVGW5FFTShsNQjOnGJz6yssbr5chTzeadDwBDazno00MKFHF7DEhN4RCc+yi2WSGax+XILt92K6mVUVC83aEJhKTpfjvXLV8TNigM72tuFAiGPy/3u669RLxQIhQJhb2+vFT+YWapbNZcblPK5a1/O3ztosKqjeyI4bdeL25f4ZH6r9XK5pjJX6vCBMt7DrDq4PYmeCVqXmOB6cXtYVRvG5dtjjw2XmsxfwaARnDaMyzcMrQVn8N3hr9HN5ahw/OgxC1Z5q1Szbi43GDTM55qK7K1CZ2vyzRmUPeuZM847om22YkxhvVy+sHzB7yIinTZ+KAuXeRPK0JbXtn1n9M1n9M1jXG7hhltNvfIxRUTbrPHdZz1zOYMyjMuNMXnX5CI6HaVwVCgvs55jUjbPIJbA5VqttuvX5LL75y2Ty/V6vdZcpx7oMDfp9qTjjiswLt+8F8n254Rx+fbbYFs0uHb5Csri7/3mt/du39kWNba90O3lco1Gc/XyZTaLjViG0y86g8GAIIher99cpWKjo709PREEscB++fDw8PWrV728vHy31fn4+HgvOqCF36Lz8fHZoFJ+fn6+vr4gNxiCP/zT+xKJ5B3ulyMI4k6hPgwLexAa+mvwN6/f0Gq1GJdvO5tsjwKtLS3GXP4rnCkHuG8jlz9LSQ0LCdVoNIhlOEDk4FgoYyI3ls3TVCgQHNy3XzY/DzC3KC7XarVXL18mwjBkGY5AIBgrAi7xeLxx4HplIpEIQRAOh7ty6XJleTmwwrvK5ePj4x/88U91tbXm1VUrSqVWq/18fIeGhoBBMS4HOPwa//p4eQM6DwkO/jU+/+IzbwuXy2WyH74/UlNdbTkvDp1ONzMz09TUVFJSwmKxhEJhX1+fSqVCCd48VTUaTYCfX2PjayfjAi5ni+Wo36758taWlnu37+BwuPWy4xbFp1KpDx48yM/PFwqFNTU15eXlmZmZ/v7+BAIB3kBrg0Ag3Lt7d9+u3UqFAv2lAy5HTcAWy619vlyr1d64cvVpUrJ5ddW6UtEKCz3d3Y0/UAu43Nig2Hw5WtvfcWF+fv7TTz7Z9fkXOq32HX/U1R/vLXM5giBhIaEJcfFb8eIAP2ydTrdiTxodOQd3UZLWarWzs7NVVVURERFeXl7kRRcdHS0SidSLx2iboSrAm1lcfNreQaP55RtcIDxnUBbbIV3i3/LaN4VcfvS770mLHdYNEjORSIRhGNCtsUAikZbkDOKgxExYdBAEwTDs4eEREREhEomUSiWY4FCr1bOzs0VFRT4+PuYROUjl4uJy7syZtpZWAD76lzehXGKC2A6p9a596+nuJuBw/X39ZlRX60oiFou//NcOyczSo1jLxxTLDYqtfUMr/DsuPE1KykhPt7qHrK+ru3D2HKeqauOav00un56e/sff/tbd3b3p7w60eb58hByUpVt0Wq0WLXpubq6/v18oFKakpPgvOjKZTKFQiERiSkrKzMwMiAlaAGgqE4XJiQkIhx8ceMPxNUtmdt7OOnYEQR6GPXBzcV1CtGZfwosOgiAwHk4gEFxdXQHBL8kTZX0wZk4mk8PCwjIzM2tqaiYmJnQ6HTCQZtGNjY2Fh4eDbM0bY1/ojt+5Y2tjo11PY93q1rGrVKoTx44VFhSYWDmtOlpyYtKjmJh1vfdWW8euVCqTEhL/+fd/JCUkjo2ONjc17du9JzE+wZQD25VK5aOY2IvnzstksnUpY3rkX+O5bxo9ItfqfyVerUdAbcjPy/v64CFTqt3ateftcPnPC6SJBCjr5ctNeY+g3W69Xi+Xy3t6egQCAZvNRnvSaBdcpVJJJJKhoaG2trb6+vqSkpLMzMz4+Pj79+97e3u7u7sTiUQymUylUslkMgRBoaGh1dXVWq0W9NrNI/L0tDRXJye0ebEG/j/+8MO1y1fQCG+By2empz/92yfkZT3mJaRr+iWBQHBzc/Px8UlOTqbT6Twer7S0NDQ0FOV1IpHo6ekZHBwcGxubkpKSl5dXUVHR1tY2MjKiUCiM6wMYUNFqtRKJhMFgeHl5wTAM6N+UfjmIg5br6ur6p/f+MDw8jMK7moBzcTW2gnVxebWwOtDff35uzhjJd1JubGiwPWmjMJolWc2g1y5fMTYoyuWj4tGD+/ZXC6vRhEV0+pFvv5PMzMzNzXm6u7e1taG31hbkMnlhfoHtyZMYl68NlKl3J5S6/yul60Rlmz2v8R333Jb/SOwckv8yF7BZZxi9BS4fGBhwp1Anxic28RUDum6VlZUxMTHe3t4UCiU6OnpkZEStVk9NTbW1tZWXlz9//jw8PDwoKAjQNoVCoVKppFcOpSsYhnE4HJlMptFo09PTOp3ORD1BNQWsr9frdTpdZ2fn3z76z+lpU7dZZ2ZkGJ8OvaVcvticIhChzVzjRiaTvb29ORzO6OioQqEAo+KpqalUKjU8PDwrK6uysrKrq2tqakoqlcpksjeucwQYPnz4cPn4PGqvJQJojcEw7Obmhl90OBzu7u07d27eMqU5ZTAYujo7ja2wnMtbW1r2fLnTmB4MBkNifMI///6PwvwC9G0ll8kcbO2+PngIDQHCFn0nTSqVfvmvHXwez8TqatXRQu/fb29rXwLsapddnZ1dnZ3oXZTLZ6ZnDh84mJP9y3EUHlQqAYcfFY/6evsM9PejSYwFKpnS2PDaehdwl81kYVxuDJSZsg5B7MtHT1b0WhSF23EbbbkNdtyGzdXqVEXfZe74v/vjrwCzCi7XaDQXz51nM1mb+x7RaDTDw8OJiYlkMhksUfbx8Xn69GliYqK3tzcIAb00MDZLIpHQQdrlPTwSieTr6ysSicBIrOmqAlPodDqNRqNQKKIiIoICAtb1dWQCDh8WEvrKpIat4/LBwcFbN24AZJZwodmXVCo1Pj6+v78fpUydTje46BQKhUajQVckAEjRRs8aCLPZbGAs1F6mqEcikdzd3b28vPz8/Dzc3f/64V+WT6aiIC8XwkJC/X190fDlXO5gawcWyfJ5PBANQZA//+GP7/3mt3u+3Ikm5PN4IJqxTQ0Gw6ZzOYIgJJj45NGjNZB8Z26VsNj37txd15KmsJBQYxOgXI4giJeHx88/BPBLV8jlPzk4elCpXx889Dz1GWrHJQLG5UsA2czL7jnNfyR2/ljRvLmUaXZujnzR7ZrWiM6BnKFx2shE5sDYw/aBn/giszNEEzpyO/9HWo9ErV8On+VzeZNIFBYSolarTX+tgNe9RqNB16+BY0QAW4AlUbOzswUFBWBtM1hFRaFQ3N3dqVSqp6cnGJJdcbIWsILxLTDR6+7uHh4ePjk5ieoJ0AYj+WCYHR20VyqVMzMzQ0NDzc3NHA6HRqO9ePEiOirqm0OHzfjiuIOt3eWLF1HjbgWXg+aU6YPqYPEamUwGc94EAsHd3d3X1xcMZ4ARbCqVGhMTY7xODYUO3ZePzoMY31pD1uv1Go0mMTERmAmYBm14Aa0gCCISie7u7oGBgVFRUampqfn5+ZWVlU1NTb29vd3d3R5UamVFBYqnicLlixePfn8Ejbycy1fsl8c9fvzZJ3/PycpCE6L98rLSUjRw07l8VCz+0+/f6+joWAPMd+PWz+NbVBJ5dHTUGExT5MsXL1JIZDQmyuUGg6Gzo+PwgYMCPt9gMAwODOz49DOnO3c93d0vnb8AFrqiqaRSaaC/P0wgfLV37+ULF2ACYYlZsX45ipU5gkqH7KEP2VZ2o2y3jYIdd2Fg/1ZNa+HIhEKrQ59nSqVJ7hs5szEut+M1Hi3tLx9b2EKzYptxOZcL+PyD+/ZTSOSG+nqZTHb29E8QHv/GgamtGGOXy2TfHv66Wri+LWfo299gMMzOzjY3N8fHx4eFhSUmJubk5LDZbBqNFhUV5enpSSaTYRgmkUienp6+vr5BQUHgjBGPRUehUNbozIEOH5lMBu0AEolEoVCSk5NnZ2dVKpVMJpNKpRKJZGJiore3t7Gxsby8nEajpaenx8bGBgYGenp6guFfEolEJpNJJNK9O3eam5pQ629E2HQubxKJXJycAQGvgYnxLTwej8PhCASCh4dHQEAAjUaTSCQKhWJkZKS9vb2hoUEkEs3MzJg+E2E6r6hUqoSEBG9vb5/Fw2GCgoIiIyOTkpJyc3N5PF5LS8vg4ODs7CwYqAeTGmidodNoh746YEZzCthrVPwLYSzn8o3YdBO5XKfTXbl0OftllumQWm/MjBcv/H191zXKZWwmY4OiXK7T6u7euh3g5weyraqsOnzgoFgsrqut3fPlzu7ubuMcUBnrl6NQbJogmFQeKek/UbUJ/d3lLQBAzMvDl4Sc4jbYcBsuCpoooq70/rHeefnCwmijR+yfV9yp3fD8fVX33/P7lbp/Z/zeb367nM6XczlY2cHjchEESXn6NCvzpU73SwvDSMfXxM3lcgRBggMD45/EmfESAX3f6enp8vLyx48fg0426IpRqVSfRefh4QHWqQEuB/vHXs2AL5ArOupuzE/GMoVCAS2AgIAAPz8/Hx8fPz+/qKiolJSUpKSkx48fR0REhIaGBgQE+Pr6+vj4eHl5gfn4JR36BcVg+MLZs8u3nL2G75oXDrZ2DrZ2aJRN5HK5TPbNocNrN2uMYUFlPB4Pw3BUVBSPx5ucnFzC2WCAxLwlgWtXCZ1OJ5fL+/r6+vv7x8fHpVKpUqkEwzNgtAYkR2XA4nq9flQsxru5tbS0oDCuVwBD6Ggqy+TyjvaOn8eHp6am1obxHbjb0d6+f/ceqVSKWmS9whKDolw+OTm5d9duNpMFMoyJij5/5qxSqZybmzt+9NjTpKQVC8K4fEVYzAyc0+jfe9lrz+lcwqwbubTjNZ4TNHk2dyf0DBeMTOQNTVwW/nvQ3pbXaMttPMMX3aptJYo6fVp6orsGn/WLS8em26WyWbVW+2oxufHzjClUyb0jjhvrjp/kNB1k9rfOqo1zXlEeHBjYt3uP8ZpM0Mzs7+tPiItnFhe/3sZYMY+FwE3k8unp6Y//8lGnyaN/6MA16GnNz8+XlZX5+vp6eXlRqVR0fBWlmTcK6OYoEBN0MfF4PJhP9fT0BH0+sBTO3d0dLJMmkUhEItHX1/f+/fv+/v5+i+d9BgQEBAcHBwQE+Pj4oNPMBAIBv+h+3rf2h9/+bvjVgVOrgvumG3weD52CNRg2Z74cQZCQ4GACztSD0vB4PDpVQSQS79+/X1NTs66ZkW3kj+fPnp1xcFzXlrPlNuHzeLSCQjTc0rhcoVAc+/5IWWnpNuK8WtFo0wpEQIdJVov/xvCoiIi4J09QW5gnLDEoyuXdXV379+xpEol0Wl1VZdWxI0cunD03PDw8NjpqZ2NzcN/+lubm5SU2iUTLtwupVKoHoWFfHzw00L+woX95qo2HvGt70hCD4Z5w0qaifyO0vTztaV7jk+6hvnmFXKtDEINUrYUbO3/iiW5Wtzxo788YGK2flg7KlVMqzbxWq9QtHMy9hm30CMIenb5e0+qwseX0pyp6f2CPvOqN/1Lge7/5rfG7BtzQaXXBgUGuzs7oMp+4x4/tbGxcnJyuXLq0ZO7nl7yWSZvC5Xq9HufikpmR8cbfqnEE0MlTqVTd3d25ubnBwcGgz02hUEgk0rq4nEwmu7u7+/j4oGlhGAZdcM9F5+Pj4+/vHxgYGB4eHhISG3maAgAAIABJREFU4uPj4+np6efnFxISEhkZ+eTJk8jIyIiIiKioqEePHkVHRwNllqym/vdgNYEAEwhoD3UZom8OkI4Or+g33i+fmpr6+C8fUanUN7Z7jCMQCARvb+/ExMTq6ur5+XljG1ms3NbW9qffv2fKlrPV7LGiCaSjwxbF5feDgqIiIizWCsZcDprmAG0EQdCzHIzjrPEgXA7ntL2DSqVazV5vDF/NoCiXLx/LfGOe2xjhneLyUYX2vyZ32XI2PGRtRLGn+SJY1NU0O4+SM4IYuufk7bPzC7xuluniuofXxeJ2vEbgHXkLvf9LwuYL/I7/PalLrPhly5mxIsuJ3GAw/LwHmgwTYQJBqVQaDAadVnfz2vW9u3anJCevMfdjnC2QN87lA/39ZJg4Pj6+xg91xVvg2NTk5GQvLy8wC45uDgZngRnzzdoykUgEE9gQBJHJZA8PD09PT59X3+QICgq6f/9+SEjIgwcPwsPDHzx4APg7LS3t5cuXubm5DAajqKiIwWDk5uY+efIkMDDQ3d0dtCeMmxQkIvGzT/4ukbz2oczlkL4xZLKrdUBYucRLhvo2wuU6nQ7n4komLrSBjHVeGzcwhZGQkDA0NKRSqcD7F6w3XNFkFhIYExXt5uyykeaUwWCQigeXmGBAWDne3mQhXD4rkXz2yd9FjSILwXy5GqAXrtVqwVHHBoNBr9fPz88PDQ0NDw+DWqRWq1FSX54DCJHJZN6ent1dXW/84awdQTLYt9ygk12tGJevjdvW3tUhBpuyUfsq87ec2XIbHXiNp7gNYJOY3YLQeK+ujT02LTNap7Ypj+FUt3JrY7HQhlPcBe/Aa7wgaLpb1+bT0hPVOfBiYLR8fKZmWtoyO4+vnbjBn1ijGbF8stxgMHR3de3dtRvd+DgzPfP9N98W0elg7mfFJCs+7Ea4XKPRnHE8zWIyV/uVrhgOJkGnpqbKyspCQkL8/f1BfxrwsXFXmPDKAUIyPjkEzIt7eXmBaW9PT0+wjh18ZQuMpfu8cgEBAQ8fPoyOjk5ISHj+/PmLFy/y8/PLy8tramrq6+sbGxsbGhrodPrjx4/9/PzAoTHGFAhaGG4urg/DwlbEcL2Bk12to62v7VgdquNvhMv7+/vdXFxTU1OTkpIiIyN9fHwIBAJYIQhAIy46QPMgBLB4ZGQkOBtnRUtZYCCfx/v0b59IZjbanPo3l1dzjG033t5kCVyu1+vxbm7Pnz2zQPyXqKTX69WLDvC6RqNRqVQKhUKlUqnVaqVSqVarwa0lCdHL3OwcN2cXU1b2GFtqRVky2DdUt7BAHXWjrY0Yl6NobIPQPqv+vmTgZFXT8rFxU0KuVreEtvf3zMmnlJpOqbxifDpvaLxYPDUsW+i/brrTIcid2raLwubL1c1Xq1tu1bbiGjrcm7qiOgezh8bLxqZqp2aHZMo5zeJo/uvFFw3Lf5vZJ9WssOXMOKIpa9+aRKK9u3Z3tHcYDIYHoaFgTYdxJqvJZnN5Y2NjUECgSqVCf5YmChqNprOzMyEhITw8PDg42NfX19vb29d34ZOUYK0ZupaNQCAQiUSKkaNSqWAUHY/Hh4aGgintwMBA0BH38PAAy9/AaaweHh6A1O/fvx8TE5OUlJSZmZmfn19UVMTlcuvr69va2sBn02k0mr+/P0p+xkS+0NEnkY5+973Za6SXI7+JXK5Wq8+ePl1RXqFcdAqFYnJyMicnx8PDg0KhoEsFiUQilUr19fX19PT08vIiEokeHh5MJnNu8bywJQvcTLTjW46mVqmCAgI25dxiYJGFfrnlcfnw8DDezU08In7L8G6wOJ1Op1KplErlG48DQgvq7+v7zw8+HB8fX/4DMS8E43LzcNuSVEod8nnhoCPHnC1ndrxGl/r2nKHxAZly7entzVVdrdPXzUjbpLIBmWJcqZJrdRoTipeo9Td449yJX77atF6tjOd+uru6KCTy5//8V0V5uUIufxj24E/vvZeelqYzYQTCDC6Xy2SHvzqw3i1nPx9w8fM4sEKhaGxszMrKyszMjIuLi4iIiI6OjoqKevDgQUBAgLe3N2BrlL49PDz8Fh1K9mC7c3h4uK+vb2BgIDiNFYyo+/j4GHO5l5eXv79/cHBwRETEkydPnj17VlBQwGAwwBmivb29PT09NTU1KSkpYIJ5yd4tsCLM6e6956mp67XO2vE3i8vj4+KiIiKNh5rBi3Jubq63t3dwcHBo0Q0PD4vF4unpablcLpFIuru7y8rKwBkvYIwEQZC1O0/o+3e7hCIa/ftvvjXl/M61kTe+a2lcrtVqz/90ppjB2C6QzS5XpVKBo4HA4ccoyGtkmBgfHxQQuLmrxjAuR5HfZqFqXHGyrN92cdO2Kf1vNA4Yvi4cmdCstLx8m59qpeIT2qf/ldM9OTI8NzayXq+a+/dWDWMuX6kQU8PWxeUIgvh6ez+OjUV/pWgxgA/AJJlWqwUkAZa9gG9m/Lzlva+vr7S0NDs7+8WLF0+fPo2Li4uNjQVE7u/v7/XKubu7gy4yOCnd29sbbAwDNA+Wmnt6eoLd5Cj3U6lUcGIMddG5u7t7eHiEhIREREQkJSXRaLSqqqrGxsbe3l6xWDw1NdXd3Z2Zmenr64v2wgmLDgxEL4wHkMnXrlzd4BppFB9jYeNcPj8/f2D/V60tLaghlggAeZSh0Uu9Xj83Nwe+RbYkiWVejo+NkWGi6QdlG+O8tmxRXN7c1BTg5w/sAoZJwFIy8LNCzQfID/wFgajVtFqtXC4HOyTRwBUF0Phb8dZqgWAuHK1OIBqqwJLw1TIB4TXV1d8cOjQ/P7+2dcy4i3G5GaBtchKJWvf/pvec5nSg9GyicJov8mjupoknZtRLPyu5ySpuUnbtUs3/ltTZMbuOo9DAD2BWPFQVG6RV/TJN8Pa5fGpq6i/v/7m9rQ2cha5WqxUKheSVm56eFovF/f39PYuut7e3b9ENDAz09/f39vY2NTVVV1dzOJzy8vLS0lJw9ktBQUFRURGdTs/JycnMzHzx4sXz58+TkpLi4+NjY2PBknLQZadQKIGBgWFhYV5eXmDoGIIgsN4NHLTu4eHh4+MTsOgCAwODg4MfPXqUm5tbVlbW1tY2ODgoFosnJibm5ubGxsaEQmFMTAy6XA6djwdETiaT//i734tHxJtk9qXZAC6f7GpFvenz5QiCBPj5pT17DirGan9BkehdcLIKIAnwyTj0liULGenpl85f2IrmFDpfjppgsqt1W+bLZTLZ1wcPVgsXvuijVCqlUunAwEBHRweYABKLxYODgz09PZ2dneCDNPPz83K5fGJiQiwWz8zMyGQy0Buen5+XSCQoVquZFfDuutgXPZYH1ByNRgPWu6lUKjDPvVpZS8J1Wm3o/fvJiYlLfw+bdA243Nig2Hz5JkFrQjaIwXCDN+5Yte4tZ3bchqvVLY0zc0rdGyabTdDiLUUJap6xKRNrFza4rc/1cNiS4aXn/jeJRLu/+LK1delXmdf7MKb0y/V6/d3bt5+lpCoUCplMNjs7K5VKp6amxItufHx8YmJiampKIpFIpdLZV076ys3OzkokkulFNz4+Pjo6OjQ01Nvb27nourq6Ojs7m5ubAdOXlJQwmUw2m11WVlZeXs5gMDIzM58/f56ZmZmenp6YmBgbGxsdHR2x6CIjI8PCwkJDQ6Oioh4/fgxmxDMzM7Ozs5lMpkAgaGhoqKura2pq6unpAUPN/f39TU1NpaWlKSkpCQkJkZGRwYsucNH5+/t7e3l5UKnGA9frhfSN8ZMFmT8WkJd4WjP7jevYJ8bHiRA0Ojq6vgpkhbHb29v/+LvfjwyPvBFMsyOw2iqWmODHAnIcL+2trWMHzTIfL++CgoLCwkIGg1FQUJCWlpaVlcVisXg8XkNDQ1dXV09PT29vb1dXV0dHx8DAwPj4+MjIyNDQ0MTEhEwmA4S6xMJon35JOJjnUiqVb1xbviShXq+XyWTDw8MCgSAnJychISEvLw98ymiNsowzKWYwLp47b/peWTPMWihiLTdosiATW8duBpjrSzIs1/5HYieuvtelvv2SsNnEbV12vMa7dW0vB8esZUTdYDCUjyn+z5TuMcUvH882ruVryP2djezksNKRxtKxpuxB/nluhA75d9slMyPj8IGDyw8xWJ8NTDgrpr+vz9XJuaO9fWpqCvDx9PT02NjY6Ojo8PDw6Ojo9PS0TCaTy+VgUxPotS//q1Qq5XL57OzsxMSERCKZn5+XLTqw6hXcBTKYfgOdADBWr9FowLIa0CcAg/YzMzM9PT2tiw4MA/T393cvOtA+6O7uRoXeV25kZEQsFo+NjQ0ODoL4XV1d3d3dLS0txYzinTs+n52dXS+G642fMyR41luhQ/Soj2inVYy3rMHlOp3O+d69Ihp9jdryztyKe/yYSIC2tDllMBh4kx2hrXmoCXSIPqOfk9HPeTtcPjU19dGfPwAzROBohPDw8IqKipGRkfn5eTD9vBUGVSqVCoXCFC4HC9TVarVKpRKLxeXl5U+ePAHfPggICMjLyxscHJxYdA0NDSUlJSwWi8FgsNnsvr4+MEgAhg36+vpIMHG1r5Ct97ezRvzysebIDrqxQZ/1VuQMCTAuXwO0jd7SIoZjJSPPe+cUOp1Uo51Uaeqm564IW8AmLrCLzHZxO9mivPjxscU94o480aOuoXGl2oTlZRtVclPSq3QIvmayYHB+vb1xjVLZwS6Yn1zYtD0sn74lfDym/GUfTgmb7ersXFP9y4d4zdZ2jX65RqOxszlFKyzUv3IovwKKXTL49irWa/+j7yO0/Q4E41E+4wToOiw0AnoXzQqEoBkaL8MGOKAxgQD0BHP54F0me3Xu+uzs7MzMjEQiefL4cUx0tNkwrish4HLjJGtzeXd3t7+vrxlbBpbgYPmX1ULhjk8/2/gOfmNsV5MBlxvffTtcvtAsu3vPy9MzMjLy6dOnDAZDIBC0tbWBU+7Rar9FxgLPa2Lm6E8PrFqVSqV9fX1isXh8fByMtA0PD/P5/Pj4+JiYmLi4uKSkpPT09JKSktra2tbW1o6OjkexsRB+QwcrGRtobRlwuXEcjMuN0dh8uUmidhJOLNmIpUOQumlp/tBEqXiaLZ4uGJ4sG50uGZ2unpT2zSt65xTZA+O4+o6K8ZmFc9qsxKX3zf0pq39uYV37+txYW2NTfhqgqJhOBql+YafpFj30alze0NDg6+2tVCjXp7oVxq6vq7ezOQWO3NkikJdkazqXq1Qq+1O2Aj7fCnFdn8oajSb0/v0HoZuzg38J4CtebguX9/X2UUnkmZkZQJPGGAEWN26YGt/dLHl5S3q1nP9/9t47KIql7Rum6rufKv/5qs4fz/sWXz3ned9znpP0BBWMIDkKKAJiAAUFBMlpyTlnQYJIjiIoOSxLWrLknHOWFQkLu8Dmme/eHRyXpIgkZbaugp6e7qu7f1d3/6Z7erph0NgfL2B2Z88tmfWDviaH1r3S6fTurq7zZ7nm5+ZgPfvt2AmX78l7yf0uCKT/SO/7tkoHzudOlLPO/toSDgYAUhkAzNYwfQEgiFulfCsL3EAQHF+mqb951zhLpgPM4rDLp4l9Fb+A9XcgEZYA5sPN8Jk8UyLt43q3LUH7Ss/NXL68vCzML1DzpuYrNR/96AAAhAQFZaSnH3BWd8jl4c/DwkKfb9fVfk/+pVis/I0be/vJ2WdtesBcTqFQ7ikplZeVf0+G264s4WFhgQFP928EsqVxP8vl2OISfh7ePfyifcts7JXn0eVyh5Y5z475vSrnUdYT2rcoWDi1xABIIEgHQICxTmgAQAUBGlNApuPDS1MGAEw01w6U5UPNw6n9VdP88AEUczOXsz96f9/uA+5rYGtCXI5bxcOyYY49Kwfd0tzc1tp6TOQgJ0VgK0BcDpsAt4rfvzn2urq6X/7vT8dE5K7Lrq6swDgfmAPicnaDbphjDwt9fkdRcXl5+cCy9DUJHUUunyfT/3fKcBd+95vmfw0iBxm3YZb0HwmDo4tUkAZCwmCADGCd0AEqHaDQASoDoDLoZCp5mbyyNDc6WBP1hEpaBQCg4G2rTKk7hb713ux7XpzNXL7nSSAKNyCQNVlv1Bi1QT699m2DBuTy6xGone3fYAKjxqgDW/v29flHNGxAoOJd12aDwmvfpqamRIWEAgMCNsQ6spdHi8sZAPjozbuogd2fRHtkgd6cMde2+XsVOAodoAFMoTPfFzDoDIA5LqcDDCqdtLy6OLcwOzCAa2keLi9rzcmue/3qzYsXrZnJY/VVAAAskIk69eGjy3u2qeHmTG72Qbh8MyaH5fOJdeyHlaVjmO7BrGM/hsAeVpGhdexVlZUYdP6hzADtruBHiMvHlmmaNTMzJPruSvINxcobX/ohaXB6Dk+aW1h9/444Ofa+v3espbGjtKQlM7s5IaU8JBzjG5jt7pPq4Jbr4Ix2ckI7MqUuJrIpOZJOpQIAEDtU+rg+7ODX5yNcfnRqGsLlR8EWx4TLaTRaT08PHo+n0+mLi4ufeN9EJpNXlr94zry+rk5cWMTE0AgAgHc4nLamlrOj49cfhraLGgJ/k7aLuIcY5UhwOZUBSpe8zZn8Nl5LfI213pPoatkdz5NyKqKjykLDsU8Cyzzcil0cCxztMQ52GAe7EkcHrINDib19sa0tU+zsMI72aEe7Qg+X5uSY5bn3AAD0Lk5xpmnMU/Z+U8OdFO3b4vJ97YAGBwZuyskXFRbuBLf9CHP0uZxOpw8NDr5jbVazuLj4ieOtvpQACASCmakp9+kz57m4Oto79gPeHeo8Jlze29srKiTU3tbeUN8geIVveHjj6hw8Hj/HWoXu4+Wlran1pSeL46ZxEiKiQvwCuGnm1kZuLq7/XsO/QxPsbTCEy3eJZ/Mc2bbl4L5D2GUu9yJaeMPoz1FNOQ5Ohfb2BXZ2BXZ2hfb2RQ4ORQ4OxY6OxU5OxU4fb0EBCuzsMLa2DXER3ehUgPXJuVdnhkvH673Izi51fFtcvn8dEJ1On56evnvrVgEGs0sovzra0efydzgcdLTu6Mio4BW+utraDYUmkUhTU1MgCH4pAWDQ+bk5OXQa3cnB4aGK6iHOhR4TLp+ZmZGWlIQPTd5gRxqNZmNl9TVtobqq2sfLS1JMvACDWVxcdHN22cXgfkOudneJcPlucKMBIIUBfKks4fEFfg6L8/NkOmM7odDoZDpjlQ4s0wEiHVilA6s0gEilEwnE4Ya26pjkXGenLHv7PAcHtK09JHn2DjuRXHt7tJNzkbsH2skJCp9rb59jx5R8J+d8Z6ZAU+Lw3zwHxzwHB8wHCod5GqJqjK1tvo0NJBhbW/a7Ff5+ra8TSATmjFb5u67LBVYrtENeEvhtcfm+dkAryytKt+98Tf+1mzbDFufoc/mnIQIAIPx52PNnz9jKtFNnT08PtPgZW1yidPvOYfX7IAh+i1xOoVAiwyN4LlzUfax97szZiLCw+Ni4c2fO8l3mUb5ztxBT4OPlpaejY29jS6VSXyQm+nh5OTs6/n3qz7bWtrbWVmMDw77ePjwe7+biGhEWLiN5NTc7R1xYxNvTc3h4OCMt3dbaenVlpbyszNrSMioiQkX53sT4RPjzsAtc3Pq6uoJX+EqKijdY+kViYllpqbOjo4mhUXdXV2DA050c27hByZ5cIly+JzB+RgnAoLemxeF627f7ThH2B5mblwJkkPmhFxkEKSDzY6/Zxo4K75B8e48cZ3eMg32+jQ3a2jrf2jrfyhpjbcNOolu60fZ2sGAc7D+6HR0wLME6OGDtP0qRw5p/sasL1t2NKS4upSyBhuYYW1u0tTUzDx+4nD3d5qSYoUrmgYarNIppU2wnfvwz6BzI7UPk8qPWAX2aqA7AGgfM5Rvwj4qIaG1tlRQT5710+QIXd3lZmaO9w1N/f7nr16empqB+/Flw8G8//08BBjM8PGyBMquuqiaRSCFBwc9DQxVuyL1+9erurdsmhkYd7R1bEsDkxGRuTs5F7nNajx5JiolHRURsRjUs9HlsdMwnXt9ujrK3Pt8il4MgiC0uUZRXWFxcbKhvEBYQLMQUXBWXePv27ezsrKK8QmJ8fGhIyLkzZ/PR+cp37s68ewc/FsMOd1c35kHJdHpuTk51VRX8XIstLrmjqDg8PKworwDNk/v5+JoYGpUUFUMphoU+h96Lw4ag0+jOjo5jo2PVVdVC/AIx0dFpqanw3QN2IFy+e8Dz89C//N+fPhuf8B7XX4qGPsSCOXs7B0hjcjkFZNDoFIBCXhgYbkpORTt5YKwd82xsM+1sMFbWGCsmkaNtrPNYAtEqPDKGLj/+tbHJdbDLdbTLc7TDuDgWurkUursUubsWe7gWubsWuDrnOzsWOTsVOjoWODgUOjoUOzuXuLmW+XiWeLqX+XhV+ftVBzyp9vaucHcvd3MrYU2nw2nBA3TI501ocE2UP1TSlNFqxUpfGuOoLAk8RC4/ah3QcePyzfj3dPco3b6Dzs37N5U62js4OThkpmcICwg+8fVVUb7X090NQwQ7XqekeHl40On0N9XVRYWFZqamoSEhkOYtCaCjvR3iGIghNnzsOzc3p6etA83Sf7YD2acA3y6XQx9PQ9ycmZ4hLSmJm8Z1dnRADgguGHaYwiFHXW0dZHooGGxf2JSNDQ2Q4WAfdF4elOJmLl+YX7C3sV1ZXlmYX5AUExfgvdLZcWhrIBAu331LqayosECZfSI+nUatiwuaGx3Yjrk3+4N0EGC+YabQFxf7stHlLr7Ftq6ZDg4ZLnZ5DtYlNlZYa7tiG7sCW7t8O7s81oCbfUy82Y2xs8txtsd4uFQ+9asODqgO8q8I8C194l3i61ng4VLg4Vro6Yr1864LDW4MD22KfN4YHtoYHlr/PKQ5Mqwx/FnFU78CD5cyd7cKd/diR8d8Gxt2Ii+0t4ekwM6uOTluorkGAIBR4sx/JN2aWjlaG+YcOpcfnQ6Ivf/6RO3dv1sHPC6HO+Xl5WX2Dr0Ag9kABcwHsD/sMDM1Zd94dQOXbyaAxoYGiFpgUoHxpNPpT/39m5uaYJ9DcXzrXN7f1698525VVRWE8+TEhADvldycHBAES7HYuJhYfh7eoaGhDVze1tpmgTIzNTam0Whjo2MZaekbxuXj4+PSkpJlpaUgCGZlZjraO5QUFW/H5Z0dHaEhIdDkirOjo4zk1Zl37w7FmiAIIlz+VcgnJ73cMj4AAPNjQyM1pZvZ+jM+dDqDQpobHSmNiily8ip19sA4OpW4upS4OGFdHYpdbMvtHUvtHYrs7QuZ0+P2+Y72hQ5MQsXYrb2xZi5M+7A2jblCzcmx2NezJjSwLiyk5llgZZB/qb8v1t+vPNC/KuhpdXBgbWhIXWRYS0JsXXREdVRYfXx0U3x0Y2RoXVhwgadrjpNdnjMzLYjF86ys8q2tC2ztCmztC2ztMbZ2+TZ2zOivYqBPzoL78o0aYwAQ3pd2S3gOwfOIcPlR6IBgfjoEM7CSPEQuh/CfmJiAenA6jW6kbwD17FNTU4H+AYJX+N5UV8MQwY6w0OfQRCsej3+VnIIyMWEfl28mgI729i25HACAmOjo/Dw0AAD9ff2DAwOHZYVvl8v/+OVXLw8PYwPDivKKUiyWn4e3s6ODwWC8SEg49dvvPBcu+vn4EolER3sH3kuXNdXVL3Bxx0RFd3V28vPw/nuZQn9fn7Sk5N+n/jQ1Nl5YWHB1dr52VSovJ/dFYuJVcYnJycnysrK7t26lvEy2QJmNjY0lJ728Ki4xMT5ua22t/uAhvMRhaHBQT1tHT1sHOsWxuqraxNAIPlj94M2KcPnuMX+dkiJ4hW9zfOrqSnmQ6xJuCqZtOAy8Vyh0TBZ0qCVkfgaDQaVSV2fe9hQUlj4Jwbo/KfMIKPXwrvL1aQoJbnkW0hD4tNzTo8jVucDZEc1icbSjXb69XYGtbYGtLdrKqsDWttDODmNnW+hgX+ToWOhgX+LsVObuVuzlXubnXRngy5SnfkVPAgoDgstCwt9ExFaGRdXFJNQnJNXHJzW9fNWdldOenlkdHlbq61Xi4Yb1cMW6OBfa2eXZWKOtrTBWVoWWVsUWVkWWNvnWDmhrhxI3r5aUOOiTs7rZgV8ydRYpX/yBJgzOvjrYubypqaWohPncfWA/bHHJEemAIAoR4heIi4n90s9v9gquopLSpqYWEAQzsnLm5w9i/oYd/6rKqsnJyWtS0glx8cxv/7q7hQUET//510MV1YmJiZioqHNnzj5+pHmR+5ynu/vQ0BAUcnp6+sF9lZO//qZ6797k5GTSixf8PLyx0TGJCQmbCWBiYqKivBzimOjIyKviErhpHIQeJj//j19+5blwke8yz3VpmUMcxk1MTmXn5u+VTUEQTE3PIhD3/QPdzfMce1iEb1pVLrpgYHDjF3dHv0RH4vtyEAQnJyfZwQIAoBudNtlSC7M45IAonE6nQ8ddr66uLi0tQafpzbF+0Dm4s7OzuM7OifqGsYrqsYo3QyVlXTn5XVnorix0d3Z+R0ZuW3p2W/rr5lcvG5IS6l/EV8dGVYU9rwsIrvJ+UubhU+LiUeziXubCHM2XOLlXuHmXOnsU2buWOLuXunmVe/hUefnVPgmsC4tpjEtuT83qQmNGqt7g+/rm30/icROUdzjS4HBfTn5VcFidf1Cd79MyJw+srUuptRPG2gpjbVFoZVFsaYE1t8BaWuY72NYnRnUXZNBZBwk5tqd4dWWwQ3HU3OxcPjs7V1iEPcgcIh0QO9qFRdjZWeb3nNiyircfSI49wJ67Efw3Qzo2Nl5VvZcHCxUWY9/NvN+c0N76oHPzbsrJEwiEvVX7HWjLyMpdWVn95gpyJLh8w9o30hK+xM9uZWEOJnJ4FA6fhw1xOZVKhY7Mg46aho/PY25JQSPTKSt0GonGIFPpq1QahUKhUWkMGh0gkanLK2TqwvvV6YmFkf7ZgZ63XW2TLY0Tb970FhW1Zmc3pKdyTlovAAAgAElEQVTXp6V1Jqe1JaQ0RiU0RiXUhcVUhoQXBD8reR5RGR1bm5DU/Cq1J6dguKRiqqHlff8A4f078vIidZVIJxIIYxOj1XVdOYWDmJJxbFlvZk51eEzls0jsk+ACV+cCF4cCR/sCO9tCG5vqAL+OrJdkIh4AaDkT9UJF9mQG9YjXIXYuB0EQU1g8Pj5xYHlGOiAY6vHxCUzh2oc9Q8MjZeVV8K39cyD4b8a2sBg7PrFuKLI5zBf59PcPVla9+aIoXxqYRCKVl5Vh0Pntbe2f2MDnS9V+B+H7+gcqKqu/xYIcCS6H174BDHrzq+jp7laYxdmH4zCjw+fjsvtscIMUGkinAQymgHQaSGOsnV9CBwEqSCPRQToFYPL9KkCnrAmDAkBCJwN0MoNKAqhkgMa6SyPTySv49+9m306+n5qYfTs5j3tLnH63OjNHXlyirCyTySskGon8bo44PkUYnVydxFGmZ+mLBDpxiU5YouHxjAU8aWp6sbd7oa3lXX3tZFlZLzpruKoYpAG4Zfx/JN0aJEx/ExUI5vLauoa6+saZ97Ov0zL7B4YYDMZ+5x/pgCCEGQzGwMDQ67TMmfezMOY1tfVVb2rxi4uwz547EPw3QDq/sFBWXtnIes2x4dZXXlbX1FXX1C0tIYPmrwTyC6JTqdSu7t7sXDQEe2dXD7as4gviH3bQI8HlEAiEmem+4hzq6soGIt/dl6N0gMndFBBkfstFB0EGyFxGBoAAS0DmuaLrziNjfsHG9GCufWf+ZTqYJ5DSGQCd6cNy0Bl05lQ481mC9Yd1oBlLKxSFzgCYY3/WBTMCFJZGZ1BoAInGWKHSVkkU4vLc6FB9XBCFtEIH6NGDJfernzI/hv9GfjCXl5ZXllUwx4ILC/jKqjfJr9Lq6hszsnIR2VcE6hoak1+lVVbXLCzgN1QZZk+Ug07LyN7XDCDKIQTSMrJz0Zi+/v1ac9fZ1Y1Y88AqW2dX9+u0jNq6huUPO8k3Nbfu7TKIDa11zy+PBJfTqZSa6IDZob7NLL5rnzVyZbHyrpWsRWR8VMDaR/WjN9sdpieU6AbPDTfGGyonW+tpNEbr3Pj/m3zvPWn3h8J99pADqLqQyeS+3r7tNlH69N3NFW4zl0NhGAwGGfkdCAKfngJZWlo6kFwc90QOZtC8iFjzoCrahr4O4fINgHz+cn50cKhq7bXfPIW4SFnCk+cOQShworN48gaZw3+8Cwf74Njq1iJ5fpEyT6DgCRQ8kYInUpnS1JGTGWkVXmuT2O5pXO9v3hS/uykHGNPtDjmAA4AgSCAQnvr7Q591svtD7k/f3RweBMHtuHzLwIgnggCCAILAt4gAwuW7tFrrwuj9CgedIonHRWJaLHlcLMaUIrHHReKPmf4SWkXikLB8xL/sL6SNpVCLqXOTFItps+TDLdHHRbCsBdYqEmXGLRaHwqhUCKuWSzwok1Yvl1YrE1XHCj8qEntcIqFfImNQLGNYdE0LK6mJldDESmgUi6kXiaoXiTwqu6JeoXIqR3+ZRtolUl8e7dNrjz99d3NqCJdvxgTxQRBAEPjOEEC4/IsNukwjnc0zMazU/UCim1h2M+8eto92sbguVlK7SEKnQFYXfVsnW9EgV1GrQOwB9sKjsis65UIG5WJGFRLmFXctKpQtKpStq1VcmrW8Ok3/nxeKbQvMg/zev3//+JHmVXEJNdUHl89f6GjvIBAI3p6eoSEhEqJijQ2Nvl7eXP+cvsh9zszUFMJ0Q5T2tnbokIPent6G+voLXNwZaelqqg/q6+qmJqfYd8bewNYAAJRise6ubpZm5vY2tkWFhXcUFYlE4ovExOehob5e3jHR0TQazc/HtwCDsba07OzohN09PT0wl6PzC7Nz0E3NrYggCCAIIAh8ZwhgCorTMrK+mM8OL8Ihvy/vwI8ljVYeE8HiOhnAx33czExNgwOD6HS6v5+ftqZWbEyM7mPtvNxcRXkF9nMI2OvGhihv376FTiEEAMDfz+/Xn37OSEv/98tU9p2xQ0NCNnD58PCw+oOHc3NzuGlcXExsPmuT5KXFxRcJCb29vehc5p7J0PZbBRjMQH//G9bmjpC7u6sL5vJcdEFqelZOXj4iCAIIAggC3xkC6ZnZ6ZnMjWy/ld8hc/m3AtN+5HPDTtTGBobQZpZQWhABz83NuTg5Kd2+80hNfXh4eEOU0dFR+EThoaGhc2fOpqWmwptlwnnewOXY4hL2PSLgu4MDA57u7uHPw6CX6+VlZWf++lvr0aP379+zu2Euh/UjDgQBBAEEAQSBw0UA4fJDwx8m5oS4eFdn58CAAGifagKBEP48LB+N3rxgbUOUd+/eQVxOo9G8PT3dXd1EBAVHR0bYd8ZOiIsvLixiV9XZ0cF76XJzUxOdTs/Oykp7nXpHUXFqcvKmnHxzUxNE7RPjExlp6UQiUV9X10BPD3abmZoiXH5oNQZJGEEAQQBBYBsEEC7fBphtvN/U1NXVN25z88u8zUxNhQUEQ0NCTI2NcdM43DROUV7hj19+VZRXaGlqTnrxAtqeml0pe5Tpt9M93d38PLzFhUVZmZnurm5zc3MKsjdQJiYtzc3wzthjY2MbVNFotGfBwX/88ivz0OKCQugghIGBAfUHD29cu66j9fjMX39Hhkdcuyr17zOOHO0dsjIzYXd5WRnC5ewWQdx7jkBf/8DE5NSeq0UUIgh83wggXP4F9m1qbqmsrqmorG5uafuCaNsEhQfZ29zfwnsXUbbQ8nVeCJd/HX5I7E8h0D8wlJ2Lfp2WOTn19lPhkHsIAggC6xFAuHw9HttfNbe0Qvv0AgBQVlHV0vpVdE6n0w319NkPct4+5bU7u4jyWZ27CIBw+S5AQ6LsBIHBweGcPMzSEgH3buZVasbU229jV+OdFA0JgyCw3wggXL4jhFta28oqquCtXRgMRmlZZVt7x44ibxXoHQ6HQecXFhRMTe10OnEXUbZK+Wv9EC7/WgSR+FshMDQ8kp2LXvywn/w0Dpf8Km36QA5/2yo734nf0tLS4NBwd08vIoeCwPDwyL8PgD+YyoRw+edxbm3rwJZV0Onrtkyn0WglpeVt7Z2fj/99hUC4/Puy55EozcjoWGZ23gJ+3Q7zb99Op7xOf/du5khk8VvLxNzcfC4aEx0bn48pLK+owpaWI3LACNTVN+blF0RExWIKi5eWdr9X9w6rHsLlnwGqvaMLW1pOo9E2h6NSqUUlpR2dXZtvfcc+CJd/x8Y9lKKNjo2nZ+bMzy9sTn1y6i3zOLj9P8x7c9LftM/4+MTz8KjWtt1PHH7TxT9qmW9saomKicfh3u1rxhAu/xS8nV3dRSWlFOq2Z4qTyZTCImxnV8+ntOznPQKB0NnRQafRV5ZXyGTydkkBALC4uLgnBxUjXL4dyIj/LhAYH59Iy8ienZvbLu7ExGRqetb72Y+nu24XEvGHEFheWYmKiR8ZYe4vifyOCAJ9/QMJL5K3HBPuVQ4RLt8Wya7unsJi7CcIEopJIpEKikq6e3q3VbRvN+h0enLSyzuKing8Xk9bx93VbXNSU1NTJBJpdGRU8ApfXW3t5gBf6oNw+ZcihoTfDoGJycnU9Mz3bKewbxlybHwiPTN7bn5+y7uI5wYEKquqa2rrNngy5nHssuHu118CKwSA8rkzJgCAMT3CmMPByTHm3zGmhuFLEACApXmQwTyn+hB+VAq9t5E+usXADCAu0ke+dv61tKyivmFvvmfeEhyEy7eEBWxpbUNjCt+/f//Z9xxLS0szMzN5+QWtbe1b69pPX3jXti0TmZqaenD/Pm5PFxAhXL4l1IjnlyIwOfX2VWrGu53Nn4+OjmVk5W4+sv1LEz0O4WPiEhYXN76dpfU2LimfgmTFVXWPcaCSVzw1VsNtP62W1l5FNBKjVmRAwYDlpWWHu6QkHzgWY3KAqC9EaymDfQ7SAawQVjwfsecHSp0xh1vx013x1QHZduDeRcZmZt4nJb/aRcQdRkG4fGugSrDluWgMGlOYiy4gUyhbBwLBVRLpQzAMtqxiu2A79B8cGFC4Iacor3D7pqKM5NWhoSH2E1Zev3oV9DTw7q1bURERS0tLDrZ2cTGxivIKdxQVZ2Zmwp+H+Xp5s5+bYmdtk/rqNe+ly1kZmT3d3RYos+qqagKBAEXUfaydEBc/MzOj8VBNUkxcW1PrmpQ0bhpXVFgYGhISFxMbHxu3ZbYRLt8SFsTzSxHIykFn5aBz0QWV1TXwFyKblSwtLRUVl+aiCzKz8wqLsJsDID7sCKysrkZGb9Fy95fL2XOwvRtYISzb3YK5HATBlSd6m7lzewX7fme7/JBT/L+ey0EQDH4W9u/zMvapGAiXfwbY9MycT3N5ZnbeZ1Ts+Da0lTo6N49Go+nr6nq6u2OLS6CNXfv7+hVkb6S+fu3m4sp76XJkeISDrR2dTofH5WGhz00MjYaGhtjPTWlqaJCWlMRN4+BN2sNCn3t7egIAMDE+Li4s0t7WDp3XQiQSlW7fKcBgrCwsHezs5+fnS4qKt+xhES7fsT2RgJ9CgEhchiTldfqWNQ2KvLS0lIsugAN/SiNyDwSJxOX4xJebkdiWy+l0CvYVQVdg2fk+0UB4NRgFUinU+kJStOOK56PVYBS94w3RRIKgy0/Q4qH3NTE1b4oC4GfJKQGkaCdglbjip7vsfI+cE7kSYAgQ8JT8OFKC57LNTfLrQOZAfBOXE/SElh3uEvWF6P0t9PG+FX8DWn0hM0uPeVdcHxBNJMivA0EqhRTvTsmNWvE3oFbn0nrq4SyRk3wIjy7SmkuBhXcr3lrwDDm1vpBZKIe7y1Zyyw53V0MtiEZi5BR/EADI2RHk5CekaCdyWghAXFwNMaPW5q/46zPmpiEup77JXfHWpI/3wbP9a1zOYJCzI0jRjqRopxVfHYC4SK3MIr30Jac/I2eEsrs34w/5xCe+3L9X5giXbwf7mv/Bc3kBBgOCIMTNJUXF0FbqMGdD2YI3gIP94fDs56Z0dnRs4HIzU1NogxqY3SFV8CW0lSzfZZ76uo2v3KCkES7/TI1Bbn8hAp/lcjSm8AtVHt/gROJybHzi5vJvy+UgSO9rIppIMnBjjMlBooEwtSJz2UqOnBlGeulL0LpMb61gEnBpKrvODVFoLeXwyJUxOUjQ5Sda3gAWZujDnUQLWQomfjXchqDLT5/o28zlpEQvkEEnRTmuuD8EFuegALB+anXuso0CY26a/Pop4904KdGLSaLQMwErSwB5ddlJmRTjTOuqJUU6wNPgjLlpoulVek/DRlWEBXJWOH2wnVqaumyjQO98QzQQofc20rrqGFNDK0/0lq3lSQkeAHmVvbxQ6Wi9jcv2twH8LEinrXhqkJJ8Vp8arYaYAwsz1KocdjecDXYlIAg+D49CuHwDJgd3eShcDgCAk4ND0osXMFW3NDdfPn+huakJAIDXr17ZWltrqqtTKBQ4AMTlHe3t7OemlJeVbeDyhLh41Xv3VldWFhcXH6qo9vf1b+Dy5KSXeDw+OemliKDgzMwWn/YiXH5wle94pIRw+R7aeZdcbnqV8X4SmgMnp/gTWZdQruCJcVp71bLdrWW7W6QkHyZBskWhVmTAXA4CwGq4LdFMBsDPQkwMrBA2qILLC89pw5z9kctZ+tc0LC/RWspICZ6roZYfufzDe3dqfSHRRGI11JLWVglrXsfl7KpWCPSRrtVIe3JKwLKNArC8RM4KJ6hxMyl5lbjyRG9J5e8VfwOQuu69KlQ6alXOspUcQFwEQRDyYcxMLFvJEXQFaC3ljPeTsBvOxgYHwuUbADnQy4PncnlZ2aCngY72Dng8Hj4WBToJ7bef/0eIX+BFQsL4+Ph1aRkF2RuK8goSIqIN9fVuzi7Q7Dp8bgq2BDs7O3tNSlpfV7emuvqalHRCXPzCwgLKxMTb0/OJr9+LhAQigaCpru7s6Dg2OiYuLJIYH48yMQkMePo6JeWpv/+Wj5AIlx9o/TsGiSFcvodG3szl1Np8am0+KS1kxVEJFsgTpDK/YoWJmTH/jkmldQUEPSFKCXOVFrUGTavN3zCY3hyFPtwJczmtp341GEW0vEFK9KJ11hC0r9A63oAAQMmPo/U0bFAFczkFk0CKdYUn4eEsQVxO620kmskwcGNQKnAwCDfoaWPZ4S780ACC4HZczpgeXbaSo3W8WdPcVUutL2S8myBa3mAqf6K3+tyaaHGd9NKPfWwNpUsf6mAO4gdaQRAkxTiTM59TcqOBpXlKbjTRQIT86insZsxtvf0wwuV7WNW/WNXBczk0x/7FGT2oCAiXHxTSxyUdhMv30NKbuZyBf7/08Cy8iB12kF76QunS+5oIjy4yp4ifGlEKXoB0GjRUJWhfIcU408f7iGYy5Mzn7EPVDVGA1eXVMJtl53vMF95emvTBNkpxMkH9HK0JS4pyXFL5h2ggzJzZnhraoIqSG73i+oCSG0WKdACW5hnTo0QzGVJGKPVNHkFPkN7XRE4NIppI0nsaiSgp5stvJ2WC9hUKJmGDHnJ2BKUoiR1G+mA7QU+Q+iaXWosh6AnSeurJOZFMVWO9y873iOYyK+5qhEcXSbEuRHMZWnMp8z19W+Wyq+rqM3NqZRZBjZucEwkVGaCQoNIBi3PkrPAV94fkzOerz8yBpXnms0iCBwUdS4p3W/HThd3sWLHnCuFydjQO2n2QXL64uKgor4DO3bPFdPsBFsLl+4HqcdaJcPkeWn8zl4MgSMmNgikcchB0+cEPn4PDg+CdZ2MXUXau/ItCAisExvy7FX8DxvTIF0U8lMAIlx8K7GuJHiSXDw0OYtD52OIS/MIW+1keJgpsaSNczgYG4twDBBAu3wMQP6jYkstBECRaXGencyr244fOtI43RGMJBm7sg47P/99FlM8r3VUIUpQjQY2bWpbGPiW+K00HEQnh8oNAebs0DpLLt8vDkfJHuPxImeM7yAzC5XtoxO24nFZfCHP5sqPyxxTpNFpLGbU8ndZSDr0+/3hrO9cuomyn6pj5I1y+ZwYnUxm+2Z3y3uVyXhXsouBbBQnkKe9dpeBTC0lyatanvy9PTsuW83yzWeR9GhR86m951yh6Vt72KLvtXqXg3nHTo+GmZ5WiZ8Utj5rb7jWK7g2yXi3XvJtueFcrehXfdC9VcCtTcCtT9KhgSZWix5v1UgndUnArk3ctZZcbziU3nEtkXUquua7JyLt9OWsP4fI9q47fqSIaA0iqGt55K0t+lfbp78vjUnKh9iXvXQO1SnnvmjWfw2hlN1yxNzzKbniUXXfDto0crSm07bicuTGLny5E58zFaMjvMBBAuHxvUG8bW7j1pJwl1bef1LDLLb83kECet/xqb/nWQbITLr/tV7dZ7vrV3PWtueNXe5P5WFCv4FMv71un6F17x6tG2bNaxaPqgXvpfY+KO171il7NdzwblD3e3PWqvuNdfdur6oO8ue1Vu17eQLcUPSpuupezyxqvu5fKupe+rBylrT+hdW8QZGlBuHwPwfz+VI28J35pK/ssl8e/yoXbF9Qqb/vVQz6H08rcmETul9VNoe3XHl67rhif4HLGaPeS8qnVZxa7Vo5E/EoEEC7/SgBBIolmEFWv5F8Jyb2A2nsB9eyi9KRW6Umtsn/dmqd/HeSj9KT2s1yekpbNrgp2K/vX33tSp+pX9cAbq+5VqOZVoOyLVfJ5o+TdqOzdcMerQt6r+rbXm4cepZpuJepuNfc8OpR965X9apX9au/6vGFJzV2f+vVSA91aT/lM7ofG67e9q94vfe6Eg6+DE+Hyr8Pvu41NptL9srp20cp2wuVws4IaJnx5KK1MwaN87P3y0TTkJ7ic+SVVggfj3cTRzPlxyBXC5bu3MgCAlV0zD5/WsIt6UKN6ULN6ULNGcMv20qwR3KwR3JTyuTn2lLQclsJG6K9aYMODgLoHAXXqQY0PgxpVA5vuBbbcD25TCmq/E9jxIKBJy7tYySBA5s5jJTkFx0eqHpoqDlp6RhahOr5v7vvVQVyu7Fer5FujzLxsZBcl37oPNP/mjjdzEM8ulV0zwO6h2mlMhMt3itRxCtc+usDexB4+rdl5K/sslye8zmVvYupBjYfYyjJqJumMA2hnu6w9n+byXSpFou0RAgiX7xLIuSWyTmjzFvKsXedZh86zDu2Q9m2kVftZE0uaU9I+8748JS2HPYnHIY1aLNEMaXj8rFH3eaNeSL1+SK1OQLmOV5aBY7iri3eiv3uMrc4r0/uJxo+8jCwt7CP1n5Tf82+6H9CgwpIHgU0PAptUnzarBLSwy33/xntP6u49qbvvX88ulnEdyyTaLmH6wmgIl38hYN958GUSzSqug70JrLl33Mo+y+WJr/M26D+UVvYwsGGesG47sCNoWoTLj6BR4CwhXA5DsVMHnQFk1+MMI9s/SIdh5EfRjezWjejWD+/UD2vXC+vUDevWCWvXe96u/7xdL6xdN7xdJ7xdL7xVP6zFILw15XVmS2tbe0fnltLU0pqSmmUY3qIX0aYT2a4X3mwQWqsXWKrjl2/gnaltH61n7mdu4mSpbehmbBzgaPXyqWuGv8NLe4MoA/VQPR1fK3cH/yy9kJrHz+o0g8vUghsfBjWrBTVpBDNFPbj5QVD7w6D2h4FtakxpVQ1quh/UcD+oQSW4USW4SZUZpql3cm2LxJ2i83XhEC7/Ovy+n9gAAFb3zH1oYu3sTcwwsmPnrSz5Vdr72bnZua1lbHz8RWqOfkTH4bay+oGFozsYZ6tTCJezgXHknAiXf5lJJuZWTWLbTWLbjaJbWdJmFNXJLlqxA49jew2i20yimwxi2nRieoyiWkwiW1ARLajIVqPoFv2YTv3oHtPIVvOIBt+EMr+EUs+Ect/4YvfgJFd3/+jnEZFBQZGJ2MD4cr/Eas+EKsNnZUZuCSibAGNjR92Hj7VuKmpel9K6LmqtdjvIzjja0zbO2z7piXOsj32io2Gc0YNnWqr+RigbzyzdkMbHoQ2Gz2pNQt7oPq/WCm3Qetb0QZofhzTpBjfqMaVBL7hBP7he81mz2vNWWKKw4we/+gbh8i+rjt9p6DkCZa9aWXx6yYu0/MQ0TEIqJjE1Pz45Iy4h+VVKasrLlJS0/KRUdGxmrUlM52G1MsfX/SsU+rdixu24fHV+lV2+leJ8Z/lEuHynBiVT6ZElY6j4TkigvsYktsMkpptdjGIHjWL7TGI7TeJaDRLadRPbUTGjJrHDxrGDJjGDqOgh86g+i5hWVEyneXyPVXyXVVSTgaGr8OkL2kKXgrXu2irfcjW1NvGO17fwNn5kYH5TwVpS0Ezisp7YeW2xC4/FLlvekgoy0Yr2c3/m4xT8xDbqqW32cxdMsGOOq2Gem16YjYGNwxPTZ9UmzxsMw94YRDaYRLYbR3brR/XqRHZrR3ZpRfZpRA2qR49oRA3rRvTqRfToRfToh3cbhnUbhbcZhrdAMr2w7iSfnWL01eEQLv9qCL9tBcxJr4bpY9LKhqb35cPO/asB23H5VMNU4B8BkKTdX3fo2f5lhl0zQAfmBuamW7beqJw9JHmJPNc/y+7zaTdlmUL78IZxdWF1qGhwYWSetEgC6DudSaGRaJTlL3l7AoCLE4vLM1+8/hHh8k+bcu1uzxTR6mWf1cs+ixc9kJgldLGk2yy+j10sEjosEtrMEjpQiZ0m8d2mCb0miUOopF6TxDbLF91WsX0W8WPGyW9NX07YvuhF+WRcU9C+zy9gKSvlp6Lge1/O4Zas7e2b9oqitrK8uoKnHgqcVhLnM1S9aa+v8sTOMCbAJS7YM8LfJc7bM+GpV3ygc1aoM9rfEuNumOuon+5lEeDr4xiFsYyuN4rr0Ivr0o/tRiUMmET1mkf3G8T06Uf3GkZ1mkS1mke3mkZ36EUOGEf1moW3mAdXGnvlmjtFWNg/KSmr2b8D7T+LNcLln4XoOw4wMUc6Jq0sORVNpR7QGpQ9rDBHlstpJFq1b1W+MRr8JMMuzyxjTNCfDQYjRqfQc3Wyy13LQBAkTBPyjdEjpcM52tkxwlETb8bhYFs6SHjSyiyTjyu9KrIfZ8EPBFsGZvecapiMl4wbyO9n99yJG+Hyz6BEJNFc0wZtUgYgsUzqheQDqfdaJA6sk6Q285dtqKRus4Qu24Qux9h2o5Qu3fBSt5Q6lxd1Li86HOO7XOIaH1k8v3ZNVZFf0PSaYJDsP25yfLpycvfkVQN8o7ycnqrKqF67yKdxQ8LTTicwxC4s0C3O3+dFoG/KU8/csCc5oT5ZQd45gZ7Fod45npYYb/N0N9SrIO/MUE9fvyCHl216r6YNk0cskvqtEnpNYjvNEnpt4/vM43vNolpRzypRvtnaVqGPdJz1VPW0FJS0Za7rSwgZiVxCSYsuzn7BE+tngNvVbYTLdwXbNx+JQmNEYSeOQyszFOV7N/4ZGjiy5jyyXA6CYENo/U5IeofBNptgGDv8WukVhbijETadSi+yKtwFHzP3t1+mpCq/2kVchMs3W23NBwDBusEF21eDtq+24HJoAGH1st8qaYhdzJNHTVPGUSmjVi+77aPKTD1izQy0fA3UkkwehqnfsVNQMHuoq6r02MXY3M9Iz1xRykBa6J7wZUVR4eviMtKi0pKXeSS5/r5/S9b4saqLhW6Yj2O4r1NCsFdisNeLYK/kUO/kEM+UZ56p4S7ZwY5oXxvME/uXPuZxwbZxoa4x3lau9m52T15buETaOgTYodytH1sYqD82UFM1UJR7LC2uJSmoI86rL3rOSPBvS3FuC1Fua4mLFuIXTIXPtZUXH4U9hxEu37Y6fqc3AADomSIck1ZWkfoCYBy5HWB2XrN2weXLM8vZWlmJMvEZaulRfBG4Nhx5iVzpWVEXXJsgFT9ZP1nlVRl+6XnklQiMaT6UEwqRUoDCxAhFoQ1yY4SiSh2xubo5iTLxhLdLM10zRZaFXald+UZ5q/jVKu/Kgfz+IsvCma4ZiKRnumbSVdPedZkDxrcAACAASURBVLyjU9dWIZDwpHKX0oaw+hfXEnBtOCgYnUJ/86S67UVbgRlmqGgQ14Yrcy7tzeqp9KzAtX50k5fIDc/rq7wqSXhStW9VvGRcb1bPdNPbAjPMWOUojUSrDaypf1aXovhyIL+fPW9vm9/GS8ZVelbMD813pXYVWxdRV6nD2OEiy8LG8Ia0+6n4MXzD8/pI3vA8vZxY0ejBwkHYCjCXk5fIJXbFzTFNOdrZLbHN5EXm5XDJUAEKMz80D7uJH7bgRLgcxnCdY5ZIRWUOWL0etEsesEsesE8ZhMQxtR8Sp9R+p9R+h7RB6/RRp9Rej9ROl7Ru+/RBx/Qhl9Ruh2islrm3ygMtIx2dQIN7ng/l3O8pWCvceCwupSwqLi1wWUaIR+QS9/m/fr/Mdfqv09zcFy4J8PNdFxO5IyNma6CeEOb7zNc+yNP6VbR/RmJgXmxAdoRfZlxQWmJgaoJPbopXigcq3OjBc807Iao3ntwR97glaHOT1/H6FRdZCWNJEf0botqqSirK99QfqqupP7KwtfULDI7z93LUUrVUVtCRFFK9fE5P5IqhMI/GpdO+Ohqk5S9+N7MOrL27QLh877D8BjQRSHTbvKHj0MpQ0qJL83PfgEk+mcVdcDkIghjT/JqnbwA6UO1blf04qzmaSU59Ob2vbifnG6MHCwdf3U4mLa7bhAoePUNxKQQyNFSdrJ3oyehenFhMkIofKRt+IZMwkN8/2zc70/muIbQ+USYe61BCwq9TVe5a1pHcDtCB3uzeqYZJSDOFSGkMbyC8Xap5+ibfGN0Y3pCumra6sDpYOFgfWge7aSQanJOhosHXd1IoRArMtR3J7RUe5QAdGKsaGywYmKj5mLfJugl4bA1FXBheeHU7eYG1KW+VdyV7weEkIOxh/Q2h9ZWeFSAA4sfx8ZJxPRld8eKxuDbcdPPboeJB2I0fw0MRES7fWHnpDCC//Z1Deo99eq9j6oDT6yGn10MuaSOQOKcPs4tTxrB95pBd1ohj5rBHVq93WrNXfImpe4TyI1Ml5YdqSkpGaip3JUTkBfnELp27/M+fPGdP8168ICAoJCl9XfL6TSFpeUkF5TsPNO4/UFe5r2z4+KG/s2WYt/0Td/vYEN+Xod5pYZ45ER65MX4Jge6xT/2CnJx9TUz8dbSfaT/yUFa0uiaKusqnK8xlLHkBJX7BkO+ynpCMlpzm3XtmV+8by6gayis/NjG0MNXQfnRdTlWAX12Q/5GggOqlS5oCAg94Lqle5h7q6thY/kO9Rrj8UOE/uMQZAFAzOH9MWllrVcUn9oQ/ONC/OqXNXD5cMjRcMtTwvP7V7RRYIE86eW1BAMY0vy64FgRBiNXQhnnQJZQdyHNldqXUCZuq/CpLI2N+cB6mNyguTG8UArk2sKbtRVuCVDyubXoYOxx+8XmWZubyzHJDaH3wn4Gpyq/IS2S4oFDEvtxe2GdNMwOceDNeE/Cm1BGbb4wmL5LRBrlhF0J7s3vZ3SDwcep+M5cznzP8P24+z563zVw+WTeZKBO/NLUE49CX0ws9HMCFhTIJFxbWD/n0o/ta41uecz/D2hdTl6kf3StUKCLC5bCVmY6pBZJzxoBLRp9rep9HWp9H+oBnxpBnxpBX5rB31oh31ohL1ji7OGeNOeWMOuSMueWOOCdW6doHqWka3rmjckNWQUxYXID3isBlXhFJBSnZu/yiMlfEpISkrsnfe3j7gba4nJLw9TsKD/UU1PRUVFU11NVcHWyePfEI93VJCPZOj41MjQh59cwvLcQz1hUVYGNioaenraWvrmXsE/Dcx++pi6GRibLSAwkRZUEepSvnFC6eETt/5io3t+5NZVNNQz1dUx31+4Yq8lbqd01vyWqK8KnxXnp4+cq9izzKPLyKly7f4ecP9/aiUnb07mcdQPt8gXD5PgN8JNTPEanHpJXZ6TxeIX5ji9U/UUU2czlhmhD8VyC8iB12VHqWw3pgLm+JbS5zLq158gYaiEMz2P15fRClweHZX35v4PJSR2zN0zdEHPGFTMJo+UhXaheFQM7Ty8GY5jeE1ufqZOfqZBeYYeAJdhAAC8wwGBM0nUrHjy705fZCxDnXP5t048XS1BJ02Zfbtzi+OFI6HCMU1RBaB7vfta/NyYPA2oMI+7i8IbQeKggJT+p42V7qUALnbTOXL4wuvJBJGC4ZAkGwJ6Mba18yWLg20N+Oy1tim9NVUqmrVNIiKeNh2kB+/2jZCGGakKL4ssy5FHY3hNZD0CFcvlaFKDRGfPWIO7rfLbffCz3qjZ70Rk/75Y0FoAef5PT7fRCfvHFIfNET3rljXnnj3pjxp1nt+k7PlLQsbj4wkpa+wXfpyvnzPJd4hfmEr924oy57S1VIUk5QRFZUXPGxtvXtO+p8fAIyMtfv3Lnz8IGqstJdHTXVAC+XiEAfL3uz2CDv+GCvJD+nSHdrC417t8SFZASuWBiYoAxstNRRD+7qCp3hFz11lv/Med5/zl44eer8779x/fJ/Lv9zkp/3supNOQMlBR0FiXvi50W4f+M98/uf//Nff/3x2+9//PHTr3/89V//9/f/5Pzlf3H+9//630ODH1/PsDehQ3cjXH7oJtjXDDAnvTqmj0kra2ps3FcwD175Zi5n8m5YA0zhkCPichj7GjGMaX6ceExdcC3GBE2YJhCmCa9uJ4eeDXl1O/lt01RbYmuiTPzixCJcHDqVXu5alqmWvjyznPUoE2tfgh9dSJJNbI1raYpojOKPyNPPjeKPyNXNgdiRyYsFA2UupZlq6ZP1kxGXw6q8KqkfRqtzA3MvZBLCLoRiTNDL75ahYLP9sy+uJaSrpGY8TIvij2DyvWn+YOFgiV1xTcAb2L3yfgUKvzy73BjekCgTjx/DL00sJskmtsQ2L71dSn+QFsoVkq6Sujix2BzVBOcNY5pfYlf84npib3ZPW8JaAZmr5+6mtCcxX9IvjC60v2hjKhzHF1sXZaqlw9+tLU0uQfpX5lYwpvmVnhVVPpWt8S24VtxLuRfj1WMFZpjerB7YPdM1A0GHcDnzK4bu0SGrZ09sw546hEU6Rb90Ty7yzmz1Qw8F5A8F5vX5Z3cH5vUGofuC0H2h6P41yesPye0Nymy3DUiycPK3d/TQ1zGSV1C+Lnn1rpycouwN+RsKiorKcgp3hUQlRcWvSohJiQuJSwiICVziFRPilxThlxLmVb0p5W1r8tTN5omzpa+D2RMnSxU5STlRnhv8p0XPn7z8z+8XuU/zXL7Ey33u8pnzf//N/V8///qfnP/5+2//9c9fp07/eersqT8unT4lznNOVvDiffErmjckb4kKCnBz8Z27cPn8Ba6zZy6c4xK8cpn3AteV82cunrt47uyFxIQXdPrR3ZsC4XK4R/v+HOPvpo9JK/P08KIcvUmvr69RW3I5CIIJV+PY6bz9RRt7WvC4nN0Tce85AsedywmERXsHDQure/qG8jp6sva2yjb22rZeLn6JGc/QjZ6var1SG/2z233Sm73TmrzTmgJeVEISkdXsG1+qqGFzT0HuntIDlYfaN2RuXBO6oijKK3vlgizfBbHzf8sJ8UjxcF8UELnEJyAuISwqckGQ/5S05BVhETFxURF7S9P0xKjIpx5hXnZZccEhHrbXBM4Ln/9LnOcsH+/Zixf/vnDh7/Pn/ubm/vPS2Z8Ez/9y7u9fuU7+IfjPP6J/njx79q9/Tp88ffIXvnOnbkkI6CrLGj+UkRPjvi7Jw8d3/jLvhXMXLnBduCwmKS8oosgneO8MtzzPZZG52aO++gbh8j1v4UdBIYm0EvLM8Ti0stP/XB4f/27PCnv3biYyOm5zjerP64O5POVWMnsAgA6gDXLZ3yuz30Xce4hAaFgEibRu3d8eKufYQ117rorBYGDy01Tuiamrias9FFZT43+sLaqty6ejx29odNXY8LadlYmFmYmZubGxib6xib6Boa6BoY6uvpqegaaFjZWRhc0tFW252+r3FO7evn5T7qqsktxtXXVtxTuq12UVroqKSAjxi4iISd24rayqdeuu6vVrcoL8/IK8lwQvntG8IxXiaZUU5h3hZx8f4p4c4eVoqiF15awUL7cw9xn+0//wnj3Nf577CvdZ3rOn+bjPXuE6y/XH7xf//pP75O+X/vmLl+uM0Hku/jN/yl65oCErbnznmoasqKyUuBAfD+/Fc+e5/rnAffriRQF+oRs8fDKXeKXOXRQvxn4bq28QLt/zen64CgEAqK+rPCatLCkp7ShPen19TQAAICQ0fMsyZmlmQnQ+VjHKnhARR+zP6xvADCxNMpd9Ib99QoC4vBy11WPWXiV3dLl8YmxEUvAfKeGzclcvKshcvCV7SVH2vNLNSzevc99VOK8oy3VLlkdLVUHrocKjh9ce3pe6ryQud41HTOgfCaFzUqKX5WWv6uvpqj7QEJeUFhDkVVK+bWJqYGCoo6R8+4GqisJ1mVsykorSYjoaD7U0NBRv3hQWEBDguXjl3Omr/JfcrIwyE0Pjn3knhfnlvoxICPW+IyMgzX9O9OJpvjOnrvz9lyDXWcHLpwUu/cN77qQw7xnecyevnD917q+fec7+zhSuPy6f/V3k7J/KkiIa8lcfKUreu8YnLcQtLiEmJCLMx88nKCQoJi4mJCbMJyzAI3DlsZ72ysrKXll0v/UgXL7fCB+k/rnZGVmJC8ehlQmLiywsLBwktoeVVk4uuq9viy3J3rXjAv8IKPjwjfhhZe/Yptve3llUjN2/4h9FLqdQyKH+rteETsuJct+7wf/wpojydb7Hyld1VWQM1WRNNW87mDx0NFVzQj00e6z41N3E21nXzkzFweKhlbGyqe5NV3MNP0cDH2dTP3frAB9nT2erIG/bp57WTz2tgn3sQp84eDmZOlnouFjpulrredobu9oaujoamxqomumpPnFCpUUGJEc8CfV3in7mmZcaHR7oeuu64HUxXimhi+J83JL8F0QucwlfOsN78bQQ33kBXm7BK+ckRHjFBS/xnP3zCvffZ37/6eI/fwhePKsmI6QhK6qhIH5dlFuY75SIMJewiKCQsJCImIi4pLiouKiAEB8v38Wu7q79s+5+aEa4fD9QPXidDAYjIyXumLSyqurK7+OTs53Uk9Gx8cQXyVuuBihzKYW+n96JHiTMHiJAIBCjouNwuHd7qHODqiPH5V0djdfFTspd/fuu3Hnth2LG2jIoXVkro1s+ztrPn1iF+VuHPjEP9jELD7CNe+7wPMAkLNA8LMg2PNguNNA60NfMxU4zwtc41MfIz13b0VrV3uahnc0De4eHTk7qTs4anl66Hh7arg4PfNwf+3kburvq2JgrWRjJa2iKqqjwaWtetUUpW+opaqqI31MSsjJXsTS7f+P6eRmps3LXrshdu6KiJKmpdl1T7ZryHWFxMb6zp3//47f//v23/z79z29n/vzlzG8//fF//j/uk7+I8py/LiaoKM59R+qCnDj3VeEz/Jd/ExE4Lch/TkyER0KMV1jw4sXzf3p5uVGpa98dbrDKUb5EuPwoW2eHeRsfGzomrUzr0cNvaNJrh+b7bLCa2vr0zOwlwsbTkBnUb3hLu8+W+sgGmJ+fT3md1tTcuq85PEJcvrxMMNK+eeP6r3du/aWqck5XW9BQX1RfT9DYSMzMVNrCTN7cVMHc9KYZSsLKQt7S7BbKSM5QX8LU7JqR2TU946uGKBlDlLSBqZSlkYwl6rqhvriRyVUDUyk9Y0ltI3F9lJSe6VUDM2ljy+vWttf1DEX1zK5rGF41MpM2MBDUMRc1tJQ0s5Y1Mpa2QClYmMtbWckbG0tbWMhZWMihUNeNDG4a6MsZGsjq6EioqfE91ha691DsvpqY7M1L1+QvSN/gvn6N+/4dAUXZC2r3RNTvi92Rvywne1ZOlktS+JQY/8nL//z3xT//i//C/whe+lX0yh88XP/n7dS3uuEzwuX72iD3WzmFQvb3tj4mrayvp3O/8Tyy+hubmkPDIquqa0ZGx95OTyNyKAgMj4xUVFaFhIa3te97VTwSXA6AQEMzVkOfX1OfX99Q0NBEWN9IyMhExBglZoASMTaXMDAVN0RdNbGQNTCR0TPl0zUS0jOW0DEU0zEU0TUV1jMX1jMXMbQSY4m4mcUNE7NrRqirRpZSxlZXTaylLCxlLC1lzMyl1sTiqqmFtKGlrIGlrJG5tJGJqKGVmB5KRN9U1MCE+XCAMpMxNpYwM5M2N5MxM5M2NblqZCiDMpFFoa6bGEsZG0uYmkoaGosboyRMzK6amEkamogZGIoaGYgbGYob6Inqagvq6QhpaotpPpbQ1rr6WF1SS1VSS0VcS1VA494VbGEaAHzDT8cjI6Mdnd1HtgtDMvYJBPoHW49JK0t5EUSjfXuTXp+w3S5uLS4uNTQ25aIx5RVV6RnZiBwwAnX1jXloTFNzK/FAduA+fC7HL84aWlzVQ4kZmEsYmUkYGYvpGwjr6ApAf9W1BR5o8alqXnmgxffYUEzP9KqhhYSBubiBubi+mbgeSkzPVFTbSEjbSEgfJWZsedXIXNLARFbf5JoBSuaxgZCmvsAjvStahoI6JiL6ZuIG5hIG5hLGKCkTlAzK7JopSsbcQtaU6b5qipI0NhE3MhYzNhE3MZY0NbyKMpJCGUmZGEga6Ykb6oqZGUtbmF4zNbxqYiBpYiBpbCBqoCukryNkbChiqCeoryesry+ury+hbyDB/KsvYWQkDYmh4VVDw6v6+hImJrIEwtrGvLtomUgUBIFdI7C6SnTzeXQcWpmmpsD79293DRQSEUHgG0XgkLkcAAAGg/7lwviSH50VeLtUGOtT304xpGS7u5/3Pz5Lb77RlvAdZ5tOp62sEpmyQoBkdZW4uroM/11ZITKFGWYZEuZd0jLpS2SVxIyylhCUHDOJTQLrXF0mrZfVFZYPHAB2fAjGrg2OC3lCl3T6t3fi+Hdc8ZCiHSQCh8zlB1lUJC0EAQQBBAEEAQSB7xIBhMu/S7MihUIQQBBAEEAQOEYIIFx+jIyNFBVBAEEAQQBB4LtEAOHy79KsSKEQBBAEEAQQBI4RAgiXHyNjI0VFEEAQQBBAEPguEUC4/Ls0K1IoBAEEAQQBBIFjhADC5cfI2EhREQQQBBAEEAS+SwQQLv8uzYoUCkEAQQBBAEHgGCGAcPkxMjZSVAQBBAEEAQSB7xIBhMu/S7MihUIQQBBAEEAQOEYIIFx+jIyNFBVBAEEAQQBB4LtE4AhyOWmkFDtCOli0SXg8cWcpkvC4jT/8vmWWNFKaju78wuNYiGs53FGJ4OJ8dSHwrej0WhwbiCRcIzr9dXr6a3QLbg8Q2qSfLalv1PkB/B1Zal0ZP8TEfbXZZlvQr2twbLuYk3qxLKulY3v3wGrgJv3ryrEnF7MjOOLOAKHhW/K3rJAk3OBnWxmUBAtwIp7EhtieFGKnSmj4ltIW/GGlvtNc7kW4gyvp9oxDwrW0svdpe1GufdNxOFyOq03SO8/BwcFx4qyChqYGS5R5ODk4VNBgLeoHDo6f7Vv2rcjrFZNw2CDlU//iOOUzsv7GNlck/Ei+3s/MvHOcELZNep1kK/4DB8cJLhPsZzuDbTRu793rdoqZDk/I5PZhNt8htrj9zcqeQc3mmxt9SLgkpRPM0MJRX1VnSekKTC0cGkWsFGg9fpc5OH7SQ8+C+AgRDg4OkZhdqe9Fo0dZCjfo31iMb/OahAuR2rGl1hWRhHupzDKbyNea7RbLbJpYlno8Wo2T44SIXycJrGI2wx9MdlCF1mWMdUHrQedDrYmUvk7/5qBf64PPQGn41+DBHQBCq0FxcnD8ZNtSa8vJwaGRD4IgHptTs/bAMpuuIe/Xsx1H9kZJc3L8rBaSHori+ZWT8wSHcs7X5nx38fExzNak8HIvHrN2l4ODinVwJd2acUgtCcrM7vdvv50Rw0Hhsn06h8PlIAiO+DCBWsegkyE8KmgQBEmzB/bYSxrp7MGXMtv4upxsjxfrDlqZ1QGegMhy0I/FuBxc/nttdGIN6jznKWG3mh3OGXzINlrlCxgCMsTXcjk4EiV/ivO8ctIgMxOkl0xmP6HDZAhSFYrrRy6NnC/ncjxa+YcTelVQqdbp/1DQb/7/F1lqXWnXat1Xcjk4EqNw6kcu5Zesqttpy3xIvRzCNNVglMLJUyL+u3ikxqNVflhrGuB6/esKsAcXpHyNn5XS156hPwtIvgazVQhHjeRr/MDBqfwa1+PDta7aN9qe2vqJFhclzMFx0q0HyjKtx+88h/RBsimtBmUPPWwx2xP+6ydj9gD7XamYjEKFfrKTPKSSrmOcj5kc8fsb4fIdGHoLLgdJ+NnDeN5k9QK753JwPbWDIEjcrrmR8J+ZE91tQ12f4mcZgjT7sT/YgsuZs4mbHqc+JEH6YKI1JTTS5vnGHg/m4w3coTN7IOKHaCAI0rYoJmmWmebHikPqcWPO3MBc/vHOR9cWaj7cpH0W6g8hv+I/exewRV62hJGEx7EqOYmF42ctxZ47ZhLwU91m6mKiug5CZtz1yW3tA6eRwXpGZeOzdVaDaATOACsWM8l1bZbU48G1wfSw+jUH7RPN/BO3NqoBaTV6P5xQzvlQZ7YG5GOVwrHmh2Dyxmco/7BxOqrFlnPLIS+rTz+hh4VH7aV6IjucxtuU6y/3YD4bMScsv/Uf6xnok93sESjpukwiXL6zOreRy4lJ0ipokEbqyffTEOb8WHcn0zX4eBQ0pbk4T4lo+iW9Tm/pbglR4eL8UTpkFCRNYv3kuTh/5EQVgSCxB+2jzHXilIa1Mue/ODikknA0XLqBgoKmMs+PP/wsH7XtBNpmLq9ijtS3nxZeT964KOa0FwdrXE7qCZHiPKUWkmTAdeKkWwsNJDX6iUCTodZ+CpzMYD+7rD3fr+E0idb4lel/QklP4yTnD//i4PjXKbdGEARxWANmt8jBIRKFI7X4QGo4Tumk9/S2uF3/gZMPhZ4EwU0pgiD4CYbA56O4fpW2TXCTPsHBeSsJ92GCZK2PI7b4SXFJ2yelh2r8zMHBqcIMwJyKNDnFKW6blGCrcPIHToMaEI9FneQUsU9Kslc49QOnXhWpJ0KB2TOyqBeX7ybyE+uC+QKF9eoE7jRpeLQJ189StkkezPQVXjLV43I0uM5qhEBvK05wscoO9iQoczFxO8F1S0PDJbOSTT8zR6xS/6wSku6jwLkWhdTiL8LKAw/KR+MUy8UhvmkGujcddYuL8wcOniAciEuS/hcHB2t6GV+K4vqRR0FJhOtXTs7tJ5ZJvUnKUNGUbFHnoTQ4UaU9UfI/s4z8oc5sDSPYEyHNeVIj5HWIxnnOE6y8fbQUsSdd5xQHx8/S9iEtm16pkDpDFH7l0ghN0vubOUBsoYHgOurCoTW5uNRC0hNsRX7gOHGWFQDcIrkNGRjrjVozm0EN2BqlcJZViJ9ENDQ1pE+yqt4JPWiSfXMGSI1+0melbRPSQ9R+5vgXpzLLlGBnkjJLCevdmVtmFZt+5jMcHm1yilPYNilBj+vEWhRcDrOmcXCcUPZwk2Y1EA5OVA3Mmtt3Jqy5H7bXT+sAIfUEsaBmJsRqTetK54bux7qJs5JlFTaqdS0Zpjm2mlOtMWDZ+lfmO6MNP3ytn7K8st71Uz/8wIUqxYPEHmwoSuTXE8oRNX63uDj/xXHiLAo7WOOnxMOskz8qJ0HGxdf4yYsoeyT5yXNyQl3TZE2IvTTXiVOoCKYROThO8Hi0kEBSz0tlZkZPKru5uKW34VpibKXPnuBae5IgjbzWEBFW1lDi+flXEdvSzW/58FgTaWWPpCgTkZ9/RK29R9mQYVZ5cBkaPHwKGlJcnCdFNHyS0l+34CZbknyUuX7gcctP1+Dj/IGDg5nPwXQ98VPMQvG5tUBPdZv6WFxtiO11rhN/o6LsRZi92Qket0YSsw+x5jnBwfGDsJ6bS1QNHmSmKIyKStDjgXDbUUk1UCbSXD9yKcf0MJ/gtkZsvX3waL2znJw/cqFycLhaN5GfODl/FLEtwpFA0kiCMtdPCkmj7IyzIZMsLj+pYatyilUQln03qG9N91PhOvG3hq0Kqwc4waWRweoyQXBjxSDhWmJQIj9ySJvbMoHgRO3q9dX65NdfHfIcO/y+nNl3qKBBEok0+/+z936hcTxfvlg/6GHeMg9L0g960IBZNOAHD4jgAb9o4HuJ+iKCGnzBTRQQHSUxEwdEYy5mIrJrBmdRBl/iO/hHvBOTaxjvRve2f0Tc1oKzo/3tz2S8v6sv411009pFm/EPROgfK0KTnYd6mIcO51RVd1V39eivJfn7ncFYNT3VVadOnTqn6lTV+XQMDdNAqN+Y0/Rn4OgLXlU1TbO2ceUBC4hyC9250Q4sJqydiIzC/lNQBpUtf/ix1frwW2+tCCo7iiJ0HuZu/mVtOTgYFT3HWcdsubbqBoHfWYGRpy/BXAHHPBI2doGsNZhNu49QVy22etu2DrY87bdkK+MF3K77DNMITbPhTUk9hS7d2L7fDkKv/rBNpybKGhMLwSlmf49aFU0rwtYA6S4D1c4+2+ygtnz4EmYPuFlAM+Ay5Su8xSbUx23jSR+zMf4Hrwx0g1OesGW0RAB2kFB+EfKPutDLujOIPHR9Ynv3YSMTdjSBXBxIybpcLD9E4ikBfhOsDnU10zyl+m4YjXt1nApwF33CCLY+e9yLRp5d1NDe9yEz+pZ7jwu1N2w0Ju8IKda0xZZPIup+oMcCoj2ssAhDVM1G2lK6wBr36iswz0gYNQ7dDav1OauOI0YnLpcHz4BDxrtQkg3qPUZhoxnwuAkyVqou+0QgIDWro7JHbTlllETAX7fAa1JpfeVdqZldXCFTYY5dMkkDo2jwrAQ2G1fSOCiKzueko2svfRIF7fsg/ZO7gPaGtxb3Oz4QB8unepFLLFYE0pX2PwliGXcvck+YH8Q/jP3OEo5LrVBZd5OjgketSpGu10l3hdODx1wK0Xp+SwAAIABJREFUj1w4oUaH890mGJ8QNBvlTP9JQdMsGOO4EqDtRXEqIB8iVGWCVNN+HBGCBdLBCJJ8t4l6AAfLjB074hnhIBhYCzAWE0qCQT3qDVw/AP9nLJf6d9BPU36OtL+F8So2CmkmKh2LQ5KeuqBnFKinR1Sz2GraCmAFmzLi+M1raewX2YedILqhmcOxuNsggYaDti7yN0uaZnTpLGSvXnrcS1sckUiqggpG54hEtCELmb1z+pzmYa5E1EtZPv89CZCHxVVveNBpveqrhrpE+Xm/3LAt5y4XPLpCe5G6rGmadE2N2XKqvGpvkQMwDpktiW0534Pnz0FcCtXHzebzZvO5XZvV9aW2eq9G6r+zMJDaDK2w3GTntI+po4+apUrzSxAEQDk1S1SdsVkFStcATnfjv30wG5L6o5MAasNE9QTLY5eed9J0o3NI6ZxUY6xP4yahBuGK8rjv7sKBWEnHHXbMBZzgj0kXTy3BiGVkaOXVDs6H+SszZTZBhgpEWytZCNpBaMvRZDK7GwWfXe9LiIv+SmW1648j8qWBrnm6Fsy35Ti34Pab1YWCRGmgGjD1esyDKKIzBtQv/Scl410QReBcBU38NoiO+9llsfByXtP4xItqJSUbx0xs9AeNeHnHTN1j110tph02vFY6+WC9GfreNt7yEGUj7DkLFeudH0Vk8IzvbmSryz4RJxNcDpmHhpaPzVES4L8xK4sNOPA5QlHn3SoJs1Q+lVU222NSB8Nc6inKEGrbOAOUf4cwmSiY1HEEOQSGoJnXKi8GMA5BjEuNL1xoqV2JIkEsk/KRqtxtnfBTi3sObA/1EAyoO2YDNEzTiR2ESAnXbNjpTLOhkaPp4z699EEOW1U+7cDamfoS0mIJrJlYOAgtryVnX4+e6lpzhySie05KgtHDwawd1lvrUDvDl0kxe1l1qKMgrdax2KHMvSGkJbaE/q7nh1FEAm9d5xOOSS1NPLXMxIKWELgkpZMehR1PkE86fMh7mJGgKibdlXLjgGYU6pWIFIinkszmHGLxUp7oE0zoy1tDJZ9FUyUWcVXpW2LLoygadN7QBavAWVyXs7knzHYrwlqc22xB4MSuRbaWm8zmTWSX1H8Tc7IfkUIuH8kLWI6mlRuf41trsF2XUU/sdbAeqFmQ7Hh3mf5aMLfltRdWE6IsJifbJ9aYseWo/pgoJ1TT2pkGjyJy5LVWq9W1Vv1BvEIKe0/QIQkPdOcT2N867gvQB+gRZWTTdTAzUfRsYLwAYjY4s+4Zh4O3jvHAcJ5ZYFLZgMFBolyX0wK58RDqojScZssp0xY7wWHLQG8KTN7pZqpW62T82wmnMCVUJ9sDWiwf7So2Rv4buguAjMWD/bQ0bQaeJN0qV0ktk4YHCZNfWNfTxkbRyaCzYVSXnMYjZCFyPltd9onYHEkShOaoCYjIcLdlPajaW3XwmPHukIVZmPowgmVbDvIvdTSl56y2fKaerEQThtACtfKzvjgOpdZdyJYD88dBF/1w2kqXRHgm7pGbdApNISXcyqJMMluOhLE0GW47xrLjHnZhXYI+c6TwzLYcl7annbfFvQYNtu3Q95tDMLotyy9g7w9WuvHqU1CtdKokNgrSYLqyOhabeYotj6KTfnvNsF72es/Lp9ly5KHAZxQScDPkcCzVIegygWV90L5frizgNspxu0rPeEJeoY+kvhMbQiUZfRtS8VKeiLkwfwOHJQWC2RsiP6Nhe0nXZ+k/2C++/Of22PK4LQJnca+2fq9YXrLtVacT37QGppxmy9HTJayGo/BgoL62LvVfTMaEBFKYteX8EFzqvkpGPQXJuvwjLHRl9UcLR/djop4YMf5Lq0KNKFteMEqUNWZsOfP2CzNcKFbUceEOHAgCT5o4BSFwuo0ceQ3qZpxr/BUcZCPD3QZdplCPLp6bmuhjZy4H+T4PHjbRqEag7T3Vll9yXU5rma/V5mvUvREcDUmE5274tgjsyB8OlNfiReMnre0E4tVsHONxt5NBZ53eewCnNC+tx9z16KJPSR77KbWPK8rGIWyC0ClvIkvZ6kYTCIDNO1ES2DIX+0JFAGVXwfoAkoJdz2YVCQHYDN7AfsQ2UyRbXlj1yARbToLBvp89WUn5M8HHTiudIOdQAp0Rxst0LBQdV5m55qd6Bbf5aL1sewi7Axz4se8XLf3gC5uCi2aPU5LY8v6Gzo8FAPcuYstxNNGrIpQwcugnzn/2CM/anvRbcG8W9svUBEdRuFevFMvGmm097cBymX5E24PyJjYK0modK5o3IS2WcNypzWgGOllRYKiNREFicx3RA4H+PJ1uvQFl0L8omfhudvbD6Y//4v6XsWoVV7ohNKpU+6Es3OsT6hWJpJLJxx0K1Wm2HF838vgs8jOm7eoSt9yWg8owt/lR1bjZAlOooqHGTOxaPOaqscuyURR+alSzJ6FogVL/4aPQ72y1erlLNKq84pV0TBbdM+N3tYnfetwaEGZBJyw1qPrTlnDDkW6wzTUy55uicMc2tvwoxJ1mtqeorlFQoDFtkCA71EmPO9ZweMTzDkQNjtN2TYMl4Dhox+vyHYvO2WHHbwlmtW9X+WQctwBxhFOeTLTlEfFW8XRVsU4PNwU7no9eKbokDT/CeQJ5Xa7V9yJ/x/WJWD6lk+pcVBaFWgcOT9A84rocXk9/sLu1Yq19QOWKdJfRwUh9xVRI0DmpaaUm88IlZUi8RTnMOKVz2HjUKvOpev+prhUsbxTb8n7E5jT0NENSHaQowfEuctj3Pks+G7RAdL8/7IHHEiUzW93fTCQg35YrCPi3r+h5T2DvcTu7LgcROvTcAyKyi54goz2Cz0v1TzCVhZs/3AFD8+MUPOj8gN6Kh25m/ANXJpx9o1ciwVUAQ5j4L+utL4SNsth4076D0ye97kdmvqB2rruTPoC5Y6UVe/jotje6Sag7p/TYg61xAtcmwS8l6ROUyfS6fNCY45fc0BxOtOXomV/ukoiQkVg4HftF8y2sUMhB23iYOem5Y/HFDDjkKy+HaoLh8qep4LKgZrONAprhKkFWxwr2WzSHOPmAw09jEv4r2IG0PkDv4IEGaiPzWkpPWpRwRx88uLQtfPZ5BltO/btaCZzq7CSNyXbNoZuFPhKIJERsyJnW5eA3LdreiPn50oIh8jMRrytL3Ywtj2PFaAv1rhgsjIT+Np7bvOv0IFjYAE824ZDWCvqszkKyjDyq9fXZsrVS1WaK1dXOX/120FxEZ9+LQYCnG8LPjSrzXmr6Ukt52ICEw95T3GJc7vj8dg35AKKmP00fUgOuHw/g4C79FKvOe7qDzPsDDnizHwvzVvcwOceuzVndnEBaVMsUFk1zyajCgdFqA46kBr1n7Ox65eWh/94uaQXjtU+OBw5aWTh5dATu7nSN/HCyNlfPXEwP+5uoeDWtMFsxNr3wa48G7dHQHNJDW7DBuOQ41Jc4a3Y7llYsm5tdOCY9W3b2Qm9VK86bjXdud7Omzzu9kJ+21bTimhfyw94g1sd+e5ke8a409kkU9ht4uEnTCvo9o7EbsoNdmqYVK/amjQf3C5XnfRIR3EiDfjDefGGnebF80OzY6uKq6+85Fb0K5UTxWXqt/GwQ7DfoHYDCcrKjyjrpqFUu1oRTZjhi79TdXac8A62DbAcYpadIpwi8c2Gxzs6xp5rWOoovHRTN94Gajb9qVQp6Zb3tbrfted1440fHHj0Vr81Z3nHQY+t1fhg+qTYK3tM7EJpWLFXXOj6JqyvU3gwJXJiGT3HBbqwxFjb/9R+lqztKEyA15297jUXWU9AcOFQPRbK7BmkC2H6NNlMynjr0MLz+sDuMIrKLQxNPg3759wK7RlFET5AtNAcHHUNnhy2CvXrSU8ddWpR2tzEYsTgzpQ0ezkVgCCTRkHCPlMQQPIRB6de0QhlOEhwnrat/wDF71GbKAQSYFu035wt4fiJVk2dpBV2vmHDAu23f0QoPGkyZjIPuQ5g8wYf6sUno4zynsNzxwzCgcaVAm4XBfhPG3lzdOw6pbBf0UvVJ3Sho2oxu/E9/2YGRUjDe+GQ0xLRWe+WTMZwv07Ri+YHZ+s1vBy9gEgWFj6SxryWtEIjfsbRirbU3HO45VZohS3AURV+aZa4noaGz9EB+4D0GRVd+2gtCqVH+e9wLW2z7IcnqWHLUgRYVjM4hYWmt1gbVR2WmVFmqu/8OmT9TLN0znVXoqeK8443yW4o3ILSi2dr1OuuVygafPKk5JnCAJ+EE3HKX9rO/WUr8GWmLkxD57i+ayGujcxiGh9gorex8YrLCC2YzURjXr+3yLD/JlOXzyHdXgZ+lVddPbkryYq7i783Y8rNSHvYbS7Z7zMOmHvSayyV+Mhkv9MJ0WHG/WSgfL93Kl2KFX3OT4tXh3Ew5P8BV6cxF35y88JjZ8id9uA2cvdg94U3+0/lqhFqEm8q8EPoXimJzGkoNXCsG2aNv4RIp80Au4rRvrKT43pFQMlzN5zMqmLSLN6ozxabLyWRQP0hfPcc7zSIN+NrkqtUlC08VbBwTuB1Ob4GfXyDpi3liJZIP9/5pRanqrpYAsSFQvaCf+KV2gR9CEmMMC7mFn1JJqGJSRtjL4K6O1Kvw9dSKUuUfgOtOeXOVUCpodOQsRfA8+1RBkfgoETAeuUH8VU4jH+LxkvntlMrlMQVvywSHnxvGmhuA1oKPv9c05thdRLmqvG/Y/WcRaZHhSVpsnZjOVEdfyeFDJrf8gG450WeTY08khMklqL+xtbufZXKGz+oCru7prbblsCW2xM5UQpPHobtqZhxJV8eMGyqJef9Sh5tuiJhptVMOfEccCN5b1hv19ZTzteLEa642+QL9fK9+57nhfgHdumYNOXGtrLv+O2/kNyNf8sN/s1rOVPCttuXUtVi4U7PWbftRrXLPhqt+P7FP6NOtAa1gda8Cg+Qnxp5pc6YcOIUDx67Hg72ckjP357C/0/9ZAJYoOEC3CQqlRctet63FSmWtoz4jrHj3Z/+IYJD/s0U3+tbMutW2HBqP3kNw/ZzbifWtWXdF5ccNDGLn9hWVPC1myoEpB6YcOAMHYiX0U9WyZ+DBBbLEbEP7dDHn/wWqzXnl1tvyHLqnj6ccmHJgyoEpB6YcmHKAcmBqy6eSMOXAlANTDkw5MOXA982BW2bLx8TfwxCV5+YqCQ8GcE/jLJ8xCfb9SUG3z1AIOez1Upv3o3C473n7wwTM6gzlKLKQYLAH0VVv/jMKBgeMT4r2Xpi+kT/IuZ534SK/+Ys/E5kRevybs/TKKyCJuOaVTcJvInskGPQgIPG3+JDhUZ6uIsM914sjaGUrj33Ap7nOMVxS9v1v84SE/hf5Ku/Z6rl83ym6aUzCrwNvdzAUrs+cjRw518Utl1zOJb7dMlv+EYA2TgtMmG5usNs0IRoajwSX/l38Tgbv6gBTwyAHxJ/Ole7ZM1oS7DCK/JdVfdUNTijUiirwwpmLpygy9u6ZX/gWGcmg+xj5xMJcpNt70ToD7xnEMaXBMS5ayDW/9/OQmXSPXzOTL1kdGbyz4J5yHDUsW96x13yIF6avHq6UQsIgPlC23ss8IX5rre7mBa3CODN5oX+hWhbtnEevylAS7nns8j7xWyssyLyciwz3ujQERXInO86BGDZwl/wFBlePn+cmwv4bC8IJZAPy5L6CP1xN32W66bBVnbXc49B/C3ENzA+XOFh9Ics1udHn/fWW2XK8UZwXtXFC2/Ba11lsOZSBsaWy0fgmFK/4KbkeCgFk2tU4LvE4HOyf/xzoyKtv8tjS57vgqKDtih4J4ZBOu+p9ao3DV3UecxiK/a5sOTTu5yEzUo+f2qdnyiAK9pleuHAmvB00wZbzCHpXJntH7fprfh3u9DviF2jXsLVQmYQoMeo7C3p5sZkJCZXUxe67xtHukl+iCEL/8nj+EH+pa+gsIKOYKw6AkZk08KCT51sXIQDjeW35VfWd1E1g2nlEyyj8khPhO8UL6SvxnjS41p54M15661t9uW22/ILtvH5bLhKK8DtnnUmIL/I0RreerIZ41mv8e3WaHbRGzJ+fry0X++5WyszV9Thr6nUK9vXacoy5e2XTAlEyeBrirapt3oRYJ2mLItpy/I2XfuIC9IJoyxEHGbEVeB7+d7hVLhTAmVnaBPwV9jluV4u1GoS5PN+6SB0ol5ea+1eKjJub6xw/IOzyZXoQYRfO1/ZzkHf+rDdjy0MG4W7VVxiEO8TOHDNY+Co4wUjwkULHG80vw8ELQ583moAhD1BF7hPTXLeqeoIlnGvLT/qth4b12Dbu6THwsLjGCj7Y1UWn89qu6DFgedjbMMwX3c5GrTTr4LQr/YQceq31mn4f4GzDT536IgRZrD1pNp+Y1bslvRDDh5Dhtm0s2/ajaumOyeKGHrv2g5rzpm3foyFpeQDUeav5vNP/XTB42zDuFewd2plQQm3RdjaMil6xt2HFH3xuN5YrhbtOa6MCI6xQTYJFxxIQ9lsrNetFu7FUKq1gNKuTgbtlVQpl64nJmL7RCyMy3Gs7i7q2VHcWMBLorBkDqgJmBs4wxPZCDcdufcW0H0EPIP4SRlVNM42TctJr3C8w/nzwafTj8tO2s6AD8bPcs6fqVl6Esvywv2XWHjXbm0bpDtI88t0tu3anYL1y7Qc6BIp+0PKPXHuxrM9oQpDLsL9lmat1405BX1FF9r1ZmRlDu4xHdXupoi/YzL96PTIjBqYGxDzXXqzZGw4dO8zXdNgxl+rtd01rQTfoqjT7hHWbLNghxHqCLluuO+s4HNLhMKGXFV2TbjuWrugjtOWPmp2VcnEmZ1BI9kAxsqBoFf8zWiLsPYMdqOJivfnc/RIMOptGpcB97Ipmhv52y17UtYfN9grGfI3FXhBxOek35rTYrU32WzSec+1Zi4bzLT3/de8JjX5L19Zhf8vQi7XGO3SJFwGAy3ofMlt+v96gmpYC+0Zh70UNI1GXauu2zQAqaQBKhXEabpXLz1qI5ZCEMR88K1Vf9TCWPn9F1VP+G9N40u6+sCqzDA2M23ISfGoas6Xqass7Sh01UKlNse+yyi2KoowcpqomYjeF/c4T2OzDHqyb98ugtflqCiR/2bDXreqdkrmF4XozNfL4x2XrebPzq9/5u9C/aLmgGxVjJ0TtNKuZz9vmLMT81dcpcK7c7Zf4djO2nEG7SxDutc7fE/IVcBriuVL4wSpoBevDsLusx6FbvbUii1KEMCR0qqi25RCxuUCxHCjcAo3enNhyxA2k1cHD+SZMO3dt7fccwI2CiPwopuknhIyG7fvJro9UuxBAH2bWDFkPRibOshF4g063IScFKRHWQyNCENWHocW8rMRATBQZBTFaEISgUGsdQNhyu6BpAL0gfRBvA4nHMYAwBhFAekDAZ4Az9l+AIoDSECtCu+v0T6KIztYZ9klMldzekWcXDRqNDwtExII0iyRiJP5Qg7GAEa0RlgPgFiIIxZzt1qSUbPkIyoJcokocoScRmxxw3sZRhOJRWO4AeBRWRM9hDF9WSk+xe2nDAbxS+Ny0zPSfFJkGp1gvoF+uSWYkkImjFkgeRaYZeaDHwU8L0appN5H3ZgXm3NknAjOlyQFG2+ZAkygSHOOHv6HqGlXb1X2EYlA0u8ccPyMzKESAEIiZzyHOhJEVKfiv1BKCaSEj0ntc4MvTnGZSkMC5OkDXfwXMchR73vLsXwQDFKEOEYNEKyy2etsQ8b70fMAxb9CWU4wi9KUzAJVNgJNAPmMQ+JMo+oCAdnMUcAxHt7Qujyi8N+t0gSSw5VtDfxOsf/UVHsQbdc0ZsztCnrN1uaqnoBVUV5DuCkOsZrYcIpZX64CkkP6o1KYIKhOplFtGDjNVy90kFShJ/nGnpjGsPGwyOBRVNQr7bkS2XOqxw/hPAVeGL0EEOFpMmgMX+35DtlzEz+H4g2ilQMJiWw57OMswhakgti60EMYVroCfN5ubVnVW15chqKtsLRgrUKb5ZFnYiU9seRT6u3hqgwTtJe4swlFRWnPB4mEkcoowLz2hG6jcAybVnthygOpLzvHxrZrwwMOjpyR4bUCVsP6OrSZSTq0vPAdEoHi2yL4C9h8OIVa7mBZk4LjvImgN2XN0zlKJzjFWCoNfqh3zULgz6TkbgRTqu1irP282nzcbq1V9VjfeBEoWxdRI9WJ1vIt5FTndGpegKH8c9Lf7YKdHPWgh5YagYUXFzTi85kURdEr5ERDffF435nV9jrpeWFU3LDNoNuJjj/GZjGuSGUESBs90bpyAM/hVb+yjvi7WWp/Ai4b3NbJPkk6TBDvl0sSv8hxU3TXZtuf0EQ4EtrTKGRSJeOSMLDX/VVoiKQraixKOU+fcZnJRh+xiWmSXkN6FU8Cixxu1FjelNCPSQP3kyBN+xg1VEIXvQ8Lk5wxTGGmQbTnFgc0iOlJbzhAacQIUvKqWYAqOfOY+9mxPobrWij+0YJ0wCulBKGjIvGXfrzYZUKHQakiq1aY0nBXKLSOH2JWpqpNuSm/AJz0CZjtGcI+PLilqFGw5kA0lULWWM3YYzC5dpFFWs3SKARf9ejtseTIwEo6wFsEcRyuucncEGFoOuCm0WbYW7AfoFSa4QtbUOaaTfnvNst/02g+5LQdHH7hfGPARvJp9gh052ZajMGUHBjjxXtnWeqf3GoH/JtnyRMJoAzg+oKiqxLTYTDLcdqxHDXenUeZCJnMpflGuJZmLSM9jWw5cpQ4MsTYVi+Lf5XrFLuZV5HRrXIKyC8iR6zyyGtteY/5stnzVo8qFeimEwpPkDcsM8IHhxiY0UcfvdcgM747UGInYkgJUz7Frw50RAXgw+yQhPSlQ0sWQAX1LfATBAxwviq7JjJecPkJ5PqstFwhDatnIyuN/VkskKgveT4yE/FxoplijmMbqs/+hLWeLYPyV2nJJnwi2PALcUuZZpDDQsHCP1+X07Bu18Re25VGE7gfNeN9rzAmIw9yWqzRbFHyw0ZmvG9RZzUQLV2hbwu57zIE8tSkxVqHcspKZrTrpplxbjnMCyq6YJEgoasQewQkcZIA+TVy8MU/EsZOoVtmuSxVd/MvtsOV4uSJeofJFGxjR7nLZfAjW3NpBbwzmFEU8PIDzh7K1YOxAmWbeEng0DgZ4FzPpg+NObYb5DJOHuBgnQa/1A+yngG8/++Qs63L0qsU7XtCYg0EwRlRmChiTdK08tlFqkRswRRUNJ2ics63L+xu6RqMEC2NA5hIqU9B9cu3giKPn1KTnwB/UvGmuRqG/PyQqFsVSKdebCH1SdU63xiUouuCTAy38DPoKNu3Osi5f9aJMp0THg8FJUk+6ddcsMxk+BF/8MLommUm6I6JORWHSDFIBLkFADBsTfxsVNKq87JOEm6JooY7WElizGKyaZ1d3jaLtOX10LlueM7KU/FdqCWFYcZOJaj23meJoEtO8+am/GR87KijcFItzIg3J+bVjz75Xtp41nMd2461Pndc49M66LsfFPd9YiWvBCQHTyQyrXtPYzhTyPPax/8ChsGLNRp03I99FnGg6EUFN0nS3BK0u1JUdoag2JZe4Urml5VBVNXKDW1+pB5MeAR3LN1+ArtAfHEfKGhOTAfkStQZzTXHByceOtBaPWSS2/XLpW2HL4Ua1sEcb2/LgTa0M2PV+awGsOazNEbQYwHExTku4W6+uwWPZWnCWHDRgSrjQHIzgLJ27WqX7E3EfhG8BoBatJgVLxm7esdhcAZULyF/2yVlseUTvbBStbTiyR740qyvdMOxAlbh6INvxuhw9frC9R8iISS1SFQ2elTStxLZVxr16gQ5mwXqJloy3O4r6TpGbN4TipiyVuATDkm5YJnIc0ak3m5ZKz3EEwlm/CC+VFpYRgGEcek+q9k6oZFFMDu7D4ebQiBBB6BPjkdOtcQnZ8vsbcE0dENzHwgpPHJ9iOjEqOO/mOMTkoG0stSSYyxuWGTxXoVWaX0Bkgm2r+mwQXZPMyL7ffRg76EeFToAFGUjFsLVY72EUIzCosMLLPkk6je0KMcGm+2UGA5FOxC/Or+qaE9V4UffRuWx53shS8F+tJdCXDnveCKYpGIm8ZoqjSUiHfmer1VPcIEdKBOxE9Bzk23Jclyd7kZypSNgEW15tH4e99wwfDjIXLC8Tcct/UeZ3t6hOwyMyUAUOPWrLlVJ61KqxJkBOuv0PDYGZd+g+KmhaJXNuV6U2pWW0Urll5FBVtdBN0uQgUURRRE9WFVdd0NqjQfO+2Q2VNdKNJ6M7isiIiLY8Uo8deS3+U7Plml7dECDcSei/ARh77a7TC0j4qVHRKk0IEEaCV2AB6eZH+LlRnQEXDTr62j6JSDBAqLGC8SaN8u6/MfDYqKbN6NZ7OLVBDl1rDgLLOHsB+ds2FDVTLN0znVUINaHfa/R/aWnFWmtv6G9b5XkH7m7upJ6Q8IBD0+8FZOS3F+E0ufHGJ6PAewzzh/LTHohC2HPgzgZ8Cg/wtFeEh+Y0rThXMTcwuoVeaXzC8zJasfzAbP3mt72nQElhuQNh7MaBu14u6GZr2209LFU34VAlOcLaC0bnMAwP28AaPrnhQ5h469Dugl6qPq3DtnxBN98FdGDrD5z2dtue14031MeFmmWmbG11u5s1fd6BkQ1rLwtactfpHYdSe6Owv1llrdJ04xWGcEqziBNC/+JGiXanYjz507/+E15sEAZ7DjR1znKPSLZbpSIy5ZNdOAEELXzg1OFQRUE3//jXKCf6uheEXJYW237IK7rbHIQkOu7Sk8DQhHkHziLJnxuWmcMOF1lNX+3CgYDrkRmpx+E4YPDBBsnbct0ts8Slt3VXK625/tdB8wfdeItn39JPRG4Kgn1AorDfWtIL953udrf+oETHo5hb1TXK8RJl+yj80mQDAQYFHZ61phiLjQSDF5hluQNqQjWygJgs/49UWmIMh600rVRZqv/p3/ScuyCBoAHGsB2UbWb4CUUdNFsY7NbpyOrM5lyrAAAgAElEQVSfROQDTOi5pZSYAatkvgcRn2PX5qwui5kY9J7Rs+14KAd98nxUwl8QnuNeYxEUKpjMo6D3GEabphXtXRILlTZThjtE+HEfJbM3Tkro77YgkErRbO3iWv+gUaIHGEPfe41jmcWKUfXUn7TKWsne9of7zdqs0TmKwi9tUPEFo3MQhgdNOH9brDV25YAcWbUp9V2oUm6/SUsmTOWlqsmx0E2E+KgrUM2SuEeY1t6gjILbEI3PoHFVNQZk1wbGzFfNrd98ESyXeuyMwz4qdjANYWwmrhKd74bX5QDhflp8QS5V4l8ITnjWUKmTEezj0w3C4TioKYstn30iUpSfRlqls9LkhDU6PtxEY7HkBsmZ3IScqpPCOZPRlpdbh9JF03hOmuTPKVB6TFuVCjQ7gUWcBqmQ9JfTujVVPgkDGnkx6cR0iXnfyclE5L3JDE+qQ07GTEiRp5SiPILk5yAh8vLoemRGpgK+ZSmh2IXyqM3KeFySzCIoEcauNB7ivJjIdo2q7TDdBN0RM18u5KzfcgpJt1rZ48lDVW2nNZO/g63gX6S/4I8Utjmk37JfAvehXtDhKhr8w+ul5vsJbIYSYsbCl1HXnK9fEsE9LhBaFQvwWVkhNWryS0n5kmLJvJR5INUx4UvmRWWNyUNVUWkpUuW5wmc3bMt52KQrbNG0qFwOMFt+lMogePxSv0y/Tjkw5cANciDsN1ac3ikWGegTr9ghvX3n99JX/ia1g/idx/Xu4aQs099uOQduyJbfJgj3W95DV0cegRMc7LyYUOpJB5zw9Die8HianHJgyoFbwIGw/6GPd7on0nLYMWcLpYet7rbrbrebq5b9CoOcTHwp/tHfhSu40893zYEbseXgv+CfS3vJvmv2XyPxEtNj9xf4CePPJM/nNVI6rWrKgSkHLsYBcPpOjfLFePe9v3Ujtvx7Z9qU/ikHphyYcmDKgSkHbhEHvnNbLiAWk8PBAOO13yLuno8URNLdSx3FV+Oyk2DwnUGAXxswtiAS52O/KvctEaqLk3Fp2HVyPPAVN6ZUzLpVz65UDCa37AZYdF2tI4cDuE0DV4nOoXDOlTmPt1dSSF7hV/L84qMSq495eyXERFH0/dpygMKFqwMs0tNVAWxfFWPPWQ6cWa009wfNhSQ4DPnSte4pcdkzQLznrO16s/vuBl6zYj317SpPicTlK7olQnVBMoLdpgkx2nhwjPPyg4NG01AH53375vKfAcv8qog7dJ0luBp5VhaFvvcCr91qJWPdtvGfcS+O5X4Wsq6rdYduHSCjaNiocymcc2XOa/KVFJJX+JU8v+CohLol3l4JMVDI92vLecAvbiEmXw+AuAYvYwjtK2NffkGhtx5D2+bn4r9gNBXUufKGV87Jc7wy9z3ti13bUXkxYAhn7iX+nipUlyj7HK9emAyUn4vach6g46yG6iwNOmwlmN9nyX/BPBjDhGuGC5ZxxtfOHfQDxwK/OI6VcAynM9ZII7RcQ+ugadSWn0HhhJ69ybG8pXtiZ21VOt+VFJIu9Cq/X3hUAhEib6+IqJ+OLT+FIRKE9il5L//zeaFtMeyfQufm2vLLk3itJXyvtvxamfQNKrtdtvzbY35zFl7xlI4Xq/p7BbacYzipilc9u67WncPeXCdQvYol392zc/D2rG27GVvO8MuXnRZD80VsbxIM3jq12arzyinPaNpSN2B4xlZ1tlhagRBv8DnxGktVY92xl6uAw43zUwDYXq0UEVAcdneOAGDb2TAresV650cpCG0I+QQI5a31Smmpnb7jDii81frrtn2vZLLIaAI3Fe9S0OWESAnaNgXSPA7cDcN45DirFX3BakNQobD/pmlBeDiAwm2+kW6SUFvOEMdnijUa9y0YALY6xUs+7rcBO7lsv7ABzHxGNyEaF8WDMasPEd77HoZyG/ke4JdbTYyF9x/9F39gL+j6bMV6PcBYcl3rXsl8LdxMoXDgs5q5xeDA9ZVO/3PLXCgVAVoDMdERyzzDLkTgftLubhplBgAf2/Jw+MrS56rWS28YRuHnFoJhN4x53fkoMBmTABr9oN5+bVcoPDkHADaethAAuFB52mdHdlUiIRUH8MNVE9HcK4DazvgDyMoJkWmyU0IF8bweVs11q6KXautw+WfwfzFM4gxJ6aJOI0b8Pf2uSAaHrreb6whdP2t2eLQAZJdtL5X0BaPx2nU/wnCRbDlDiDfKxWJlwwNYWPmTHjWpdbmCh9keTBMv1CBhfvtRFH5uW8uGs2HX5su1DRcj3AnZUbTqK6a9DPQ6DBwTypekGt4gw+26ueI4D2FM4SVptHZLTouCds8ivL1Y9tlkOy2BiOmQVh2xLQ+H7VW9dN9q7QxZHDWxxiSdXpf3HtcgFDF8rqh1JwMXRrrhbJk6xLXUEYSbBPsdZ1GvPm1DMMoZA9Tr55a1YlkP9OIds81Qy4j/1qo+sJ3HhnGvRNflgPwdKxwG8W6Zq469VCotNnqhBFT/q79LZVZoPIbmDh2EwRvvYXjNhEWwPS/WOElRpBVyONgyS7O68XoYhYPuRo2l1TxBpqeYIOtJ/b/9lw7Vk+9AN4ZfWuYc6MlQsjgqsT8GGyRLr4K3QqMvm7wZW87wy4sWBL2lmNkFy/sdCd7CVefS457/qd36EAw2ywxqGmP6Fzf60XjQmNOM9zhYEoBnQka+CLBRmal18MAOrncBXkVa4O7a2hxClY/7zjLGGE/YiEGhqQcMYuIjNnDyK6Kby+8qiMzCTLESMKTlMotIjbHWBUxf1b4mkg2Qr4SHAKy9CciIxCHlYe/gRRmCIr4NoijsLAEwAKBzA+IT3cZjkZDJKES4ca322ve3W+3PYfjegNwMo7prFvFFsbEIB15+ioEGUWcxwDpAWKdwXip2ASyE6YKZDTtL1NnAbXnYqz9AhGmoBaJgmtuY762RduQiRgUNIw8BnGmIeOgRDeiJKBY79o5aJMRmCPDDAJ6BlGeJTD+RhYpG10doEBqx2drG2z9KktJFnUaM+Hv63RQZ6D0uGCDeiL/OIK4hRDmNEYZxvBeaA4yIJ9jysLvCYIQi6D6tBgIjfI5a2VFDwc1o1ySuo5iH2R5MEy+Uz2cGDG0BwvpyoIGwa2hacc1jMzP6Utg1Zyj0NYXnSlC6kZ4kvjeESWEIAoiYAhFG0ZYXLfcE4JlApwDcrfw5VbaVEphVHdyWh3v16kMac1euKP0Nx0KhYtL98kdVPfZjZ8YsCwJz/tbhSEckiHHorhY1rWD9MiQBRpKYq/cO++0tN/irRnnO6cOUDjeni04/ikAnzDUGOM+L0btlhQNKrPgEdAyFttPWe3HsSJhYSdopR+Mh1IV214GR/BkgiyX8t3QhExVFtkdEIAYhreDJDon200z4VUZP0vHCguiNusZcwwfgDMHiZMVeJb1K3qal4xLfb8iW08HGt3wo+C7ANqPnocnCD8HI5FDTdm1W15fah+9Nwb5KvqYY/AOUDsA54IeH+ZRsOY4ZhkcOYfGlD0PhHRN/q5psF8VZ0u8qiBzm2fIUtjHKGdXFom2Oq4KRvAWApWzaniCOS+stMQ/adTSfHN6bBB4ELkdWU83uxgsyBGvRcG5B3hulzQwEIVLIrGwmTYefgl2oBDlyMEH+ov56YJr3bA5ei5pgEaIxUzBsmk9oOweNHvmtBxwnhutNyAZGFDiDljWeckkikZTG4IdJsAPMgBZlicw+kRB0+HSEq7DaW5xQqkhSFJ6QEkVZYsRfTyEDG8h2W5NdYVEGQP5RL3P5QXmAYou1JwjcvmFWZnV9g+9uYu3KUSPachXZOJMTe1BFfNI4QbGmMJ5R/uNOhDdAJxRrdYCZbzorFX0WPTcKqYYBaPBgpXwLUxQDMZ3QIjVNLdsqCUwPfwaYUV0xK+uCaAv1ZJIoSPF++WjQvBsP8KC/3Q/GkTBmL9g6OtLZ/AU7BWczUHUc+x16fN5qIoftRV2fNdpfYSLIZofynm5SIJSGOEnYMB60VRgdojcoV+MJ+dGux3haMbuSGqOMmMWZ+KJFUuaCmIlIu0KBfBay5qmYwLRroicjnB9jFHry3ohJjS1OdryrpDeXt2JrLpO+FbY8WUSiLWemCyY76QOiia2CRkujlHMWOz6BVmTMwY7kYyZGB5kpc9+dwEPESzafdAaALx6/EmfgyCL0XRWRADi1qjo/LAoZlJcItDp/ypYLkGiiXIpNE58DvPdDu7mL8N6CLRdXKIBQp5UaB0FnMcY+ilsqIbZldR+TaRW7gvcUvoQjr9CWIq4Dw66llXCYE32Jb6AIlUcAGm3W3w4AWp7qPtFwclGZIBJCYQA/bK41PURzp7OTDJFR9gkXKlhvdFc4GCL0I3Oo4OyTSyknCUxRmgMCLYiFnCJG/Dn7rkCGaMsF+UfosOorWGp7q8kaN5EHwN7ICnNcrXrUSJ2uJDvTg1ni4zpExZoSeFGGaX5vjXd68j6k0lKNhiqDei5wRtYSSWEZ+y3OWZlsZyUwqzpQJqlon82Y46iPbXkUBTttj7tIrqp1Sb9Dg2FCgLN5qJqbIsSG4aspxpaUWRXkOSkQZjPZKPGJKpNmkLkaT8wvUpX0T1Ij7LYwPCSVopAVcsb9A4uhLdh2lApkPHkLADkpJqRzAkmoJ8uto6B9PwHRFkZlerwrpDeft0mbL5e6HbYcFA3O9QTpiSiq4FN05mAjw4PBX4I/OZYkccSi+YQRQrrLXOdS1oS+n/KxE0LGoBRs2KVO2TBQaoVVdPeJxMRcTr37G/Dg6TKRQ5Jjy+kEOREdEGKATcyz/UpbnrHKKKNMTSfyCsik9GHCpeTXuDm4T1FYMqoU+yh+ThOn6zsVuxAFMjoBtChN09A3RYduxwN3H0e9RE9aNA77W3hjjSEicwqOOzWtYO3Aqj4ZM6g3mc7lvUObz305SWN5QfC3/6QoApxDCVkis0/EqsGM+M2FQmnRtFbreNABa1CRpChcoEZBjPCr8t2EA8J8LjWXDbatkl42H9rWZrL3nPQ4upQN6kvA6oJ9OCfBP+pRI9pyJdmA9ij2oIqHvAoJZRLWQ8LcAukE+Mj4gwt35mOHh+Ng8CVEvF1ZqlFLFARs0PDAZz52NtDUIiE2LZsG7a+UwNTwP2DrcuutZxU16uKKm5CTwLEg2HLINuq3XvVJdsxetHVJv0PpHqhX0DOi1cQe16mPHSkN/cHRL2ETK14I8SEmGUIUJDprpA0MDnwKZBwbxaT2XI1HFQJdVohU0SLh/6SQyYoi2yPiBEJIiwVynvwVGIs0E4icE0lCPVlaMSuCmkpGZUbsVdK7ncfbpM2XS92oLedCAxszC7hvjdLD9TK9YkixnBH/+4dOgODZJXroadyHnRZeCIfFRe8cbLrj6Z4Tr/4A5BXd+DgJGBGyYzGnHA4V8O3HH9yYp6ohhM37zFIm/a6KSDAesFvtjim0bVw6YhvHCMGwljrLfjmnAfZHGV6CuBhFyWN5YinsrWuahlNIyiVhBiD4joAw3LZP71cxirO2/AP+Eo8QJbuOWgZOUCh8deUl7DmAHK96EaIsawsUMnzYWm7ARAZo0JkAsIrpRJju5eMhgPx1OcVTV4oELwxvgtLJCm7OgS3PEpl9EkWxUMG5hK1K7TVfQPGi1etyVVH8DRUx/Df4q3pXIAMtE7MEgpUKPetuPQvCEctDRPdT6AkVREYv0y1PXjXd50qNGsHIKcnO9KCKeF4Dc2yCj3dMyP8J+Oh8jQg+j/R+OW7qMxhpErir5fqnSCXV6FHQSnU8HBfu1qsbfYarLdpyriUSYk6TbVyKKSQwrTr4ZA6vrmiVLbZRFXxstT5kpAWqx7Eg2fKw97hU3hpeYetov7ORnugZtJovOIXgk9MqLwaANQdA3bXOMWWm0UEgYKoAqTZOFM64X4f991oLzsoR/5VhvgnY0h+YTMiInuDBnZ0oT+NxhcAZwiUh6Z+kxigjZkkumEule0RYBJJdG+aMwro8xRPs5RQTsj52qK/3GLBa2ekiJCAZlVmxV0hvLm/F1lwmfaO2XNONzS6gI/OD1u4qB/+mM3QBS5jjfzOPSuFerbZQKRW0wh2j+fl3HGC71twPSBR6a7AihI9udOju+0ETAsvMlmsbvRDAsM32/tB/a+r3qV2JechReGfL5moNkAN1o82PCkOm7LsKIhkssX6nkj4Jj9jG+g8Nd7dj32Onczmwbrm+mwr6FpFPTqWgldba7nY7k79kbftkNOwsIyDwGz8M+oijXKrvBiGH99YXLBOAlovz/+WrP+A469LVdLDHprgkYrwgIYX4LT32gpEA98uhwQuPusFIxa4/Bxd0fdcf7jWqs7YXkuFuHZhPodDfwVEk7b7jHR227mqVJ57/tde4r9s7wioRTBoDjdbnTesH7If/5H/8NwkAMG21VnuFpwIRT10WCbG0GH5Yr6yaCJlcdjp/JBNJV40S2bJQBd0lKlLwf3FWh/Pw/EAiYhILJP1tigOxdMHqnmMhC8QAnjT/gI3JJSMUoOsDCok9V/cCQg8QMfoKuj4PJ7dJMGjyHifjKNzD6yGYiSOj80rhb2bUiKDRIyXZmR5MEy+WD9OhJpyg1suLcLEC8dFL9lvP3TQqik2WsBfDSM/oFOw8Bq2Ppbq84ZEQT4TQduH1CgYWPme5RyTBNT8SmHwW2f6bjAQutYep4T8aeggKjgKAdkvTqhvekAxgmaHZ4n4W8jgbK8aqzQL2ef1TdGWtY4taTV9qdLdb5p2KsxdGGXz6aOx30HMGnGNA3dybPaPXFiuV+ZI2U6w+dg//niJ/o8IZR9FhqzrDZK3MboUQ9yHoytKC+Yu/kDOrNJ6I5j6kyN+LbRpgjkoMV4m0Rpiz5iqKVI/AYSAmyTBIl2oAJ7Xc6DHXrMwT8PekmSCOGklPHjRKcOqNESgpB4XYK6SX7RTIvBUuDrGiL/znRm35qpdBiVU0RIECy18DF1/eRwkmLXQOLyP7PhygobjImMpmUEAwZ4nkx3AUryvA0VW5kmfZtiS/5afiYAtjElKcb2XevXpRcBwps0x8mMOuM9KcAyANNfJziwzcfSIRcZfkiQQ/pANRLxJk5SyR2Se0XhjzRusLR6I56DWXK42DiTTlFSXiRovEiIXlvyvmitNwiHrNDU4oTM5wsF0vq/s0X+ppWRPrVfMw24MTCkljfp9GT/b3HKnODsCYORdP5EhglihFFXk9q8gqPLqi1jF/zFkIVXUWYya6rwXixGS26EQPiPlYWlWLItuER1kxEzKrqRnxrTTMOYknZyKPhIL5ECrnyWwhWbLo2B+B/4KaGP7yFfy9YVt+BS2YFnFBDqCghUFnudzYv2ARP5/X4OLTPN5jZG0O3VVb4cy4GY7Ahqh0/uuwaWZvJdwMbdNab4ADyd7KDVR+S6v8yfPkhmw58WAf435rGN+PuqUC8NMlC0/gg7t49WzHb3+6nDhLy8gndFDP1iy4FmxU79kd0Wd7liK+YZ4hOksLlWUI8W0tVYxNDAnwDWucFn2bOUC89YKmVVtfbzOR10zbT58nN2LLYUXIP5PdFtfc3z+v6gi4ZKf8P3Onx2J7K3mGvYkdOp0fn7lLf5IZYzmdDu+4f38OPLkRWx5zeJqYcmDKgSkHphyYcmDKgctyYGrLL8vB6ftTDkw5MOXAlANTDtwsB26rLR8Tf6+nPq8/8geH+cfXb5adWDs57PUusplKwoOBeDGDNWUUDA4UF1UvWssNMiingSJFYxLs+4rWinmuJU2OBz6G9L98bSS8tMSSYLA3kNBQxiT8OvB2B8MJNxTOQvqEgXaW1+M8t6bjYorOlSCHiqFHgkHvi3i58VxF8szfHWeIWuHw9lz7XxIO973eAbtbdMXVx9r1nAPhFqrf22rLP9oQxwDCjIifwHsGd76zgQXETDedvghGfbDbNO8AbghHTKKNCLxNjInGol6ILbtILeL715wOP3Wse9kGilSQwbt6taCKfSvmuob0sdfAe7cswNxlajz2mg8xZAJGq7hwSTSiRRLU6LBVnbXcIKR3c80Pl5jaqgfauSj95h0XfvFaKxBjQMtGJ8RoRaArnnT7F5t7HXuNRVAq8tCDwJ3t+6o74ufhTbDbwAFMA6ec582byUsG7ywIBaFQODdDENxlv+v09psVTQNsrav8yNr1fAPhNqrf22rL4b6wMBE7atdfU7uOoYsupxmvUh5UZU26Wa7KT5/hlYmsQhEDJEkvX6wWqYjr/ZLTQIkICIuowouTMl3DFx7M6wqqwvhil519SteywcbECBnhl4HafTWJdOI9aXBkFXmgTXpr0m/fvOOwRzQe9zAmBbG8Js8RIe/wVb094VA3hpvM2HIIRXD5s6Hn40yi6OImXksiqVcIJvgtah559U0ueqeXjyAIOLFAMT39hXPmELXr6QNBlKJbqH5vrS0XOmXstxbitfh3YMsF0s+RzDF1orSdo7RbmDWngRKl51N80qtX+uW22XKxcRii8jKTA4w2esUrxW/ecTuWViiA10aMgTPu1YuGAfH4spNggWWHrcrkDHm2XCjjwslzcEZSdBeu8PwvSvV+U1seAiLDORb9CRLg+Vt1ljfOo11PlaKzVPgt89yELSeDJkDsVax3w/CoayPSu/1mEEZk+M6qzBqdr8TfbdmLehXW32HvGXhei4v15nPXp/AAT9vOgg4DG0KEZthz7NoPas6btn0PA21Kv5PhXttZ1LWlurOAXrtZiHaJn7C/ZZmrdeNOQV9pAbAuA6UvW0/AT8Yge3lp4Re3tVop3LXqKyWgpICBEqOIHHqt9Zp+H8LLh186tHX17eFwu16Zq9ahmQAU4T4xzXWrqhcq6wwJI8fUobQJ1LYhDLJUS/C53ViuFO46rY0KUBKHrQ37rZWa9aLdWCqVVjo+RF32vS2rUmAt+g/+8z+g5FmvgSpy7Nbv6bUXA8FjS/wPLXuxVFhtu+tVHeIwV1sHQ3e9Vp7VtJmy8wnzZiuCQIo9Z8lsvus4i6UqhoCOG0iO+80lvXS/3vk4TPWepPhOvMZSzXjs2IvlMu0RVbHZingX4d+MMOSyK4KoorVFu7FhVu+AbGR97MEHu7rodF7bFZ11t1QXIInZxrJtP6zqd8zWZ2ycuC5XMuqwYy7V2++a1oJuU2956gkJBm8bxr2CvRNFYb/zBLaZcDjUzfvlkl6IlSPABS0b9rpZnS2ZWyDCUaZGcti15sD4Wc+bnV/9Thho0BRy0LEWa/aGYyzoTDJD392ya7Oa+bxtQrRRjYftlJp+esdFYW/DMF90Oxu10n2MupOREKnE1JcdS1ttte5KYEjBq2rhcc8FX05sy8P+lll71GxvGqU7OLRPeo37oD8A7/WDHyn7CG2588qpoFLREb2UBIPOplEpYBzW434b0mXnJcRUhjH2hkfzPHbthYqxblT0irHZdrfdgezqR84Y9Y1KcQbi15qvfDq+ws8ta8WqL5UKs1RUREX3p+6Lmj6rV1a7w3DYXQfI18p6B1TkUde6pxsQAj3KlID9nVJip3efWK/rU/CeR83OShkILlRbTD0qqxM6KSW0AG7m1ldM+xEoORtC0xP/vQUbTgC02kHpFF7PDvaw33mODn8EZu18ElQFGfZeO7VZzXjsVFCL66jfQPdSnQx7ZAhdkaYBazx27cWavemYD0rw9qoHAW4TiwN50kNJliJRyUNuBfH5oybLKIENl0nehC2PIoruTnUlh5PDVnzCeKKEkK9tAA+nvnRRG1JkgoUGiMLXVpXjjAkswBD2CRRHPMh5FkAo0bS7zcEoik5cC4Z5vT+Ohi8rJQp3RjOsdEMOSl/ZGvjbjcaOfCSLYpYUrG5AAEELtEytc0wIDVEeYyccQhz48gu/90Q33lNxJN5akSFWIdQHBQ6PTR0nlP5FW46QGCRwAYsJoFlSteDslaId0CA8OPOl+C4QERoZaO1EJNMiBP9mcGQAv1HMBmYfNHSo1D2JGD4HTdMxv9gBXAUEkhErAgSJNa1I+XnQKCE9cQOD92b1CSLfyE1lkGjUxz7y7KLGuDRG9mI3ZYvNPhFKVQqDml3he0Mr1Ht4OZvuT6dtOYI+UZkEBR13Ma8P4EnYhi4CHtMMgvSqGAXQk7SZ5L1ZAYHPPBkRglANjB6hQIZ8RdEyANeLATKi5xkkX1WjAOKXGWgVTXc+Y3tCHBrYvwgVz8CKhi9hXGbd0Yktz+m4aNfWfs/BDU+/MQdegYkdx3ka/wVb7qG4ahwVzW/MAcghVs1JQnxxZFSyvowFj8GiZ/sI3TCVZ6BUsIGA2UhGBOE0mAMDoT4KtZc+gYj6gJzkgahAR9P9DpSZIkAhCHNhLtJFazsggBCDA3iHREetyhzFKEPoIAqIIPYsxcKhS1g8E8A9MX02SFUlZJUY0PIBgI0oao66+8R66bgumt1jgA6AiF7LXShEVV3cOSqh9ewig7nrP9U5HGXOOjhPZmJMJqEmmkTcF638HIBhwm3U4k9+RUJE29IqrS++u9nw/lZFQ9iFcb6HxdDDFqseRFQVLY5qKAlSJKvfPOLVbM+M7kzTLvzghmw5lVTqLhPsWe9xiQPRQK/n2XIu1mrJCA887wDWmcMtAAJKa2RZPrCHCvVPAPFbftRsPm82n9eNeV2fc3ppyNEUk1FZxAod1UEN58spRU+ByIqPXDaxBJOAq4TnzeamVZ3V9WWwiIKsiBVJbWQ2BsHKhFpESoT0cd/9jPN3xFmhTEvXQlGPqHbbsYoCdiQnQihQAtxEHaoj0JmqIrQiJXt7SCIWx5hWba1Vq8/Z0oRXkfyNTQJ5L4HU4Vfoymyx2SdJcVGkEgZli9D6rnEsDOzNjOSE/q7no2S1HmT39UGEqAAAAfFWq6goFYzC2Uax1voE6BcYKD77JJmNQcligdRNhVNe4AM1veD44duLihoFWw7FJQMNgRoT3zt+RRspckNMC4w+teMitLKlNTcWiMkdJ5SNScbh7+8AACAASURBVLTl0XjQAKcCTlk4jgBWzW35OOhv94MxLJVsnc23BJnP6SNoFC9BaCC+yBgiFCIMVWpl6VwKZ+0ZmZG5TY3HIxfajsvN5vNmfbmsz5acvVTPUmAunFvTZQMF9tirl3CQqkpQK7EMlF9GJUoShaODucGTkaKqTuyitNDCvLZYq4M6bTZWq/os9SVI2ix+P2+wJ/iKcdY4IXQTA/8t1PuyglLSgNPcGPNGpCcZCNDYzFASBYBN0VD55xIvUpik04yKG3T5xA3Z8ihCnlbbx6S7opfuFDS9MRh1zfkYiCbhbJ7yyu3pcdh/ZVvrnd5r81RbzgT9X3VqqYjWyFqp/z46+qzO/m2AoQePX2zLhfEgWFkshXj2jMaBPiNUajEEe9KDUl3JY1HaogjBg+nxfqEWkRIxTYbbjvWo4e40wDeAGj9bC84PSo39sLvCAFWTyiElFiimRSWlqAi8u4hvps3bLnodsWqEV2KYp3I9+C02CWk6seHQhEyxiidiwQphEFvB02MX1DmHg5TUn1jaSb+9Ztlvem1AhUrMHmTBVTuDXxRfEQQDHbzpHomOXRuuMGj6Eu7soHMy/QQLYXZCKjAeJqgj6BJKrB1cyukaYyZjxrgEsUPhl3j+JHEj0UpSNXGZuR0Xhf0tBB6cKaPHFf3/soRIJaa+UFseUTBcrbTpdRaLdN6PVXNLjN5R55HV2PYa8xlbntdH0ChegtBAbMtEW47rcqYEQERrHdnBztflsaigl2vhv/+jxQSsOWmo1LNRBFilWvVVQN6b+p0SqMh90l0pI6IPdncKyBVbJ4Xlp0ULLZK6Mq5YqhdHRNqWq6qLX6cJWYzR9ov4BTSTrM14Cfkyo84P74mNimLR5cMZS1bSAEClCbCCWH48ENRDKUUkSB0q/9RzqqJBU4kUimmZUZwHV/D3xmx5hFPU6uN6+X47gGFQMJaq1VexHzvmbGq6KjyXV9icGUHnB01b6sAiWOQg/zk9AwBPSLn1t6DKue8Osx4PBifCBDx5PU5JchMJs/K4m2nW/hO99tAsxlfsMKfQ0ig8gKPIaZlg9YjSRm05wCOKE8M8c9vf0DUd/XjCWFXUMvLARbVYqyUTqbiNZ7LlyopwMU6CvRbu7uIuxhbMKJofWnC9JCcIfGwSKJx2opjQlsM2AWAVScVmnwjUK4VB7Lg4jXyObaFSco47tRnmD4/pTOrC2YAoQrRbxZloDqMI4lHasJWIqwESpp/EuyRQndCb4qoalBTfI4BsoT84IsoaZeKTAQW6T0tmmcmCQ+SGmE4aHyvTKK/jeM/1cIYHs8aJHScUTZPclkdUXIX7adgcbok/OSD0sE0Q96wwsvL6CBrFSxAaiINlsi0HB4A1Vywvmeay46qiSsjcBlteeNJPd9Y4GHwJ5Z7ll+Lu1+t3q+1jfHHJqPJbeYoSfnynVGKSGhRal7BYkijkW9qWR4rq5Jv3KaH99Ysyc5+wakJ/f0jUGjtfZnLyQ5FyQ4A8sKxJp8P+h4qGX8LpCoOjIonaNRkI6cbiUEppTuhWtOW5Ai9SKKRTjIoNXtIdF03dnC2P8L4B27pAD6eEop1wNqIHd1/40ZgQIjxX9nQIK2x6GojuqWS8XmL/oSMLFCjOxbRKA09YkIO2sQSH11L9JzNZkhtY3eKGrmxlEZN4uRtGeIBTq8BGI3VrF00KzhHu1qvrHsmtS6IWalkAwuRaREridN8pMmmj4NZ563JQe2Bl+Y6G3EhRJ8rpWH2rK/JW2d4tbtfVOkHCTNiZ1rTKFj89JNSYKD7Y1koOLcfszRabfZKUpxaGmEWixkerr1XoSZ9kSZqUFYVvQbJQnOgeZ7zYopmoPOPOaBSRL83aKu6qJIpSyahha5Ft0oPqoX7C9BNmv/PW5fqzAS6jwQtVXHUDEkWjQfMHyw2VNUbUl+6OYUtYnA1E+7AQpKc3oigeGrLeFLSSwJtYGKIop+OiHYvNX9Gg1t4Eio4L/c5Wq5dZ2kJFHyyNL0PpPTTzPd2XJt3l5Oxbf4PfFKd+adS2dFLSPISNj/91BZgEu9diH0GjLmbLQ2+1XN+Td8hFviRLRnwKCxhQAtQAwA79GM6EtZcM0AySooP84vkAudXKEtRKTDJ7yu6T6sXRkbHlaoKTlmbE+FMdTmiudODC5Dj0nlTtXRJF6JaAfiRklLycKzNKDU/fExuCO7a4vSUObfCAZmkIcBQz5YMN50dHE8tC2S4PJeqmwpnuiMCw4bY8l3iRwiSdYZTAhksmb9CWo47g6O70SCprDAl9ClB/1+nBoIPzAppWqiz917/4ny0dTq45vSAM9hwwQXOWPB0eYoQHrThbNjfwGGSx3KDHeVjpaB1nytZWt7tZ0+edHt3HPu6aUDR+8GECSv9qAFSkPyg3ml7daLuv7fKsgefhCceoLzt7QXjUMYuavQMvk48gWNod2z0i4edGdYZVpS/BCfOkrje+jGsbdFd1rVh1Xrvua7u22EBq07UYBU0rGJ3DMDxsg8EpGJ2j0FuH9hR0vbJRB7tY0P/Tf/l/NBfx51SLQKa56ZWaScIDLFC3veMwPOxARVqtfRCGRy4eh662Dn73y0xF5rvAW9WKP7R6X/3Oil59MSAng/YyUvnGD0O/CXFjirVNT7wbTQ5pmcA6gsd0Db1Q3ei67+rVe8xRny4WB5VUkUS/Qhj++b/GVqTZRSIqADN6bbFSnoUzSpVHbem07VEbem2mqM+bziqIXnG+IUWvCHvOPOvWwgM8nkmCwQvskOWOPyLZHjHf/aZ1Vyutuf7XXuO+br6HgxPpJ6Og9xSqKyx3/JD4r5ICg906rObZMAl7G5ANPoVqA07RK2sMyK4NOm6+am795os00OAkf7mgm1uuu2VWqM9/HPax9vJTGHPeYwx981TCYTtLx4FFKdZae0P/ranfh5On2a4kH2A6kux08K4MPnfroAEq9Xe4Fx52DR08PdE46L+rV7DFNFYMwaMhIPQLTh1sfEF/2A2OwBWk3akYT9zwJNtHw+4jGCm0gZTVpVX38O97DhxoLRhvfDIadgTpbdNB9GZIokGT9zjUNVtm1wc45bC4fm/pM0XQEttte7HW2EN1Mw66D7m6mSk79GGi6Opw1BTOPXiWBuf74HPcrop+F2UJGSUWnaH7BAVbf/cXTThkxEYHG+/NL2GkrA7pwv8yQhuF/U0oCT/xsX849qtpxfIDs4X3ceICws+t9GAfk0TDZ4O+oXXU5q3Wu27jBx3vVpBgv0m1X3ufKmwlDYzz+mKtMo9Xc+5Z7b/8rWxxskMJ5tNciv70t39NOZOvqXLZnmVUzIPLJm7UlouzM1hz5zcmPsuTn0X8hZywODOqG/1spav6KQKwqdQ5VLFcKY22/G7Lj085Sb+e+gWQe/Cs06k5YSYAmSfwJ6cMfgJKOIqlzLnfKInXdpV5Jj7Mq4icnL2N6gqULc8Wm30SFzdRGOJcLMEEgBB5RsWzjUnIYqZii1WIZEqC+fs0BBJ+k8Qm+1L2SVzGxETmPWXXwENxYSQXOYGZcsZJ3zKEYOZRGMhBZ+W6EmInFT35t7gMUWlI3L7ocMrWG/YbS7Z7zHEfD7z6ghppNJcbqWEt0ozVoe+EVSym2aORQjGcR4nxJmXq5T/If1XVCTkyraQPpGGC3SM9SQrIvJ/8lE6xle6k0tgrChpQHwLnZfdAqo4sNbIUnZo9lUH4mi1a+PGiyZu15Rel+lLvSV7rS5TEbHkqzOwlCrz+V1GkRqH7qET34K+fgmmNUw58vxzw1vjRHNqGcdhZRYfB99uk74XyxGv9vVD8zen8+dlyvJXODsddhr308iU9XHaZcm7w3a/oNco/iXaDpE2rnnLg9nNg+BaiSBXuGfa6bT8yKot1emXj9lP+vVOIF+V5/InvvTFXRP/PzJaDKyn+XMBpHXNdLifHZRTnvrUJcMelvHy3ltYpYVMO3EIOxJrgMurkFrbrNpMErn7+mbKd99TPzJbzZk//Tjkw5cCUA1MO/Hw48OM//jjh30+AD9+fLb9CYOmr6L8zYHJfqBoAVKYH7C/0+s/mpavAOyeh/yU3FN2Vc5Ic5cLbf9tOPzkvGjcJg+Hg8/Vx5spZfSUFkjC4NvGYIBvqtsh9SkJ/cHieI7Ixere69J/U06wh//wPf/7r/5cZ+Ktu6lXopXPS9F3Z8isElj4nm5TZyZfuaZjcyvdOe8gAlTOhFk977+f2+1WAQwNgM1w1wYvI18JAvPM9h7Fvxfq+eaeHEENJMzG4tlhxXhpu+FQ1CGySzvHJKc+m7nmms1zw+7cr+YIEBYNtB25WsfvWQinfhNQc2RCqlZNCnx57zUdwI5GGkZCzqb6RQRdBehRNU2U//zMy3OvW4VKfVrxv2eu2saDrAD/TGdDrdlHErxpqhXsmHDiAf1ZVR25jVAZttmat2+Y9uAhb+sG21w0Atplv/vpzC2JvsZKt2myxOG82PuaEXcFTcrVn7r/Y+Rd/8n8LS/N/ePWf/S+//0/+YvfHf/yx/+//2N12m3DtkIcZOH+D4zeuQi/FhZ0j8V3Z8ky4n3M09NtknRBMpv80hog+a93JK9/hKc2E+LM29wryJbFlLl7Ytd9HGIXifbCEb9+60+PLWmfkFerTTKilKDrqmItW9+iMpZyeDS4N0lypkonEqNMLuliOybXkhX1NkXqxqrNvybKR/T39ROzTJCpROlfO9/Pf6DnuOK/PcXEHI68Ja5KTfgPiBOj2DnM5KqJUHberqx6EwOMR7mgeJocQiQhiNOHAj0sO3UeAkYXhaDJthWEFFlpel+/+4fvf//0/Zrb8x3/8EV7jOTNFnPvBVeilc1c6teXnZpn4Qp4tvwBEtPTKt1brYhuuIi0RfxUFnrGMqxgz127LhbZJfLtlnY6hvuJolwLRV5oMP1jFGMdCLJn4zQUlQICY6dLpU2uBGM8QtfA7+HxrWy7BnJ+JH5IZpm+EHoA98sD1ClseYQiHwOvsMqbLhZD+y84gbctZ5MriRsaHJFho0Zb/73/xT//Zn/03/2Rqy8/UjadlYlDQ7+rVIoWCDv1twCzXHrY6q4gIPmsB7h5+GLD0pm3kAEsDUMOWWV2yrAclfcFovHbdj37I4GztxiqEWDLeBRAFacusLded9Vp5vtbYhdhYwcdGbVbXAS4lHLyvQ3qpPYxxf7c61h2ELF7t8hFNC3EaTw0EPE67ZUSI6Ob/9uvBW4TafdoAGPb/cNVZreizRvtrRI57rRVAJnY+RtIrH3wadtF42qhRQGWKPp5iadhzli0KEI7EC+jF88XiAo9nBwjWVWPVqt7RK8uN9rbbOwz9j20HUMk7/S2zArdqKs7esL9lVeeL2oxuQfQx+DCA5OVykfZRDk/SxCsIk0gHbODFmrVuVe+UapsYyI7BbHdbKzqFIo5y6pIKYkPaqG/WQGJmirVNHqgtxi0ulswYalp8Oey3HtaMpw1nCfuQ+dgBgLy2aDsbRmW2Yr3FreIYu/pNA7FBChDGjhZ1ai2ZDAz5eAbWFmm+oS1XdHqMdj9bpDj0HKdZEOy4aWG/sQgIQMYLiknvOQt6ZaP3O4bGjVGEKXzLg5rzplu/X6xssMiHcRmYwNioix3/oNMA52fTA9do6O+63S3HftELIxLs9zqbtv202/9C8zSEG1lkuNtqvGy3XjQa63b7M8Tx83fd9qZtvxmQg46z7nT/nd9Zx/B5D1vu/t8JJUfBxwZc9tIqzvueT2PaAIh7s/Gsbm96fBgyesnxwHvXch53/Sj03zbsdad7CCg27qZtb3T9+I7JyaDzvNF+1WpuOvZTdxipajkZdF40u+9aja0egK1RPN+7rSEg9DisZJkJ4UHPfd2AAscB1Lje8LjWisjQ23KcF83G05Z3kL0vAoDuFgV0nwVURlE2gv1ua7VSvN/0tu3qLIxK860/3K7X7sJwpRLIEdZ5n0q2nOG4d7dMfRZx3IGBgiLSnX4SIZUM39uVWV2/Z7UhyjpViRXno3hgR4Q5R/TxExxBjx17sVxebKB4yBLEg0OnXDui/RbT8PK4V19kMarjsmRbzh7L63KKKafV3qZEAzPz1XZiy4d/+M92fvHrr394VluusBrYWYCVrhqDar10FibHjb5I4obW5ei5ols7gOgAYaijCAM1a3N1EAsEEad7dbB24cELc0Ks08DFuIagaKoLzcFJmMDZHgx7Wy33OOo/KXKE6QijglO3DAJaZ0IQi7i/WC8DNfG3KnEhCM2btuUSONKIBG8hgmpx1RsedFqv+iFFc6EuSmEpJi0x8XkZI2XSJtu76d6FOBWUZuqVAujlCgMtHXUhGOYPnYAGvaeQIYiBXXkxQAcvxfCmqOQU9LfchKiKGGmcdsdRq1KkocJppHFcnQigvCJPROKzhEmkAzYwA/Cgo9T+KMBso2Aw5NCcusTSsF4Mrz0OERwaUUcBUVhE8i4yTO74TVxh8PDg2PwYJoFLGg1OTiHpBOzqCHscWXFqLYoMhIykWO4i3+gELtPpEPaSkYrAWcUNAaeZC3bcMkhgR7NXokFjDnAzyYgIsoqBu+n0BaBImWBLhUD0UK14t2I86w2/urCWovlxYNII8FFEpahkvx0SGm6BrrDHfucHvfICZkIJQAuUDmVWH9eNJbM2q5vvAsQMBLBw+Egly1hVh51asVTfCxHBqNL6KlHKyFhud9eMxg5E8ay96NhLjd6rBDY33KuXdJR2GhKcDXapluC9qeuWF0bRZ4AyQAsE8cP1p53OqtXehzHFdqNFUolrAixTu7VkdhCQkMpMhAvQEobK7z3WtN8zW/uypdm1OdRe0L5vAYa2LBuA8KEJo1IrWNtgXGMJlPtUBt1JcNyxjYudIKuIElsOkSW7EKkeIVYjxHDiLu6E1+JcAUEluIyFEBK/aHuZSIJKM0zlnOoumiHeL7ce6NmTK8pCcOBo5rtguO+1YUZYqGx4ENw++0nZ8v/P/ed/stb5hx9/PLMtV1kNhXERa1brpbMwWSzlnOkbsuUwt6VQ0AEGqbYQOFrcv4nT6AKNz54Ixk9s6WCzFKPfAB+LDnpbZPcphRBA6E94F7UVIlOJVQiviHXFaXwrPmCCcjbRlmf3+LlsAQ1xsWwqR/kgPafoSQkwNm82wkiIAOGAXlx62EAIdse8p+sw2Ue8Zwb/hdqZuaGEZspVo90CMmCOdcdsIAKxw/0HIsFiWrRJGcI4xfgXgD3YIlgBs00OW9VYYwrMEesSixPrpdAU2mLnb97UtEKVYic312qwSE1t8oldkGArIfBDLGn0OU5rxF6O0+CCnlhLXgaRZjEttRH1JnQ6TG4K1ceAA918bjOnUUKzyIw4HQAkgQx3zRF0mKzGsO7BDsB8p1ZOUBAagxjODuikMzxgHbf9OPEqssNxsUQhjBDvYmAXfZFaCABQaAy4zuVwMki5WDLHX4Ef0ChCkPYxbIvGJMWtpf1eKNYAFwfJLtyxvRAFmFZ92KpoBQthEeioZ6NJrAVwOEpsVkEDmo6ZdSzqBpTMkfqgXpFU7CmWB2pnU5Phy0rsnEerHGNmc8JxxiACuktrAHlUxlIHLwuLAem5ZGs5jvvIbz3g8zAgW+zrWMciSYisw9dXRQ5dw6mVAfrkKRrTV1kdheSJNWJpSIZoy2N1Sr40y1xy4oqVheDA0apP8RDcjNHl5+nit5IEVAdiT9flf/Jni2uDX0P6jLZ8stXIUEvrlcY1RXCh09xTmZzQfe7UTdnyKAIoaMN62es9L/P5qShbPE0X6497rGVpcWSPEdmmYH2Aeav7SCuuAfJYCteLQQrGGNWJQjyPLZcRS6WxJDBf6ssUzVy2ILvwU+4r4hAVqkB4JYRnoADhqFgTkFCWE6fbBQsQu4CT8fGQWPNCPrFqbJHlUeA4jkyVVCsQnEs84D4JhCUvI8r3IkC5Z87PAMy2sey4h10YeXS+lVOXWJ5Iedzd/+ZJQYAoFrOzNM5XYiyZmBUockKT48LFXo7TSnRksbK8DHGxKc6L/EzgL8E8JDikvPyYZv5A/kuHQ32P9B6XmX1KAfEhrLvxqNXba8Lw25HfjyiWWswimCZqGLEfGqVZHjXG0EEc+YPOjFc9irrNLQHOKvj0CFnHbSpUiEtG/qtUMrYaoMMoXJtWcd40rIWa/XagWHuhnFBEFoSAoyY5drbhEOAYTui04JPvpBakJKOXKTiY8R60ChLPTg+IpAKCn4beIMo0PnFBPC7LHUcROKKUqIDEf4U7CTGguzwSRTmJpQ44Au1lTZCey4qCHLnOsuFs+12GByppG+xvrmPxC+uOQr1HevUi72L2E/4Ryqf1AvQc/Qg/8UfwF7OlpYtylY5xmiG25VEUeG/SeyjKQpA5WDJaR22hlWymiBQI7AL77W/8x93/qvXjL37x4y9+8ZdrD/749x/svPjFj+6fTzj7RpuWZzUyMkMrF/su1kuo9FDSJjA5Rfx5vt6QLRegoLGrJqzLUeAmA0tjg4evDX22aq3ZNt/rkpkIsgooOnFR1JbDdOk8thy7lvsYExzPFM+lvhRtkiBb8IrwU+4rOeME4Z+j8BMChGtmN1RDsEfjYXtJ1+9b9prdSq5tSMZArDrujjSIL4VYFgjOIz5NmOx5Sxc78v3jKIHZRr/fpWz5SveLCrdYvHWLbeSu3WRKhxZLT26LAVtQNWP+tPaUJwS4lwwIzcknL4PIbTEt8jOx5fLcEaoBtHup+5Iq4xTdaZIx6YVWCLDuKF0ZW47l85GCu1F0PoGuC/4cTBpnF84ewIhSOwc2jHv7DQZOilostqkRg/jkizmpZDDJzCh6tqZpS20VUCFrLdZIncNI9lIHbC8OdqgaExx7DecWnGaxFlix8lkF5yKeGGAEI/HsjJ5IqtgohHNMCgl76+XSim0/ctqIpMyL5X/pODnpI6C7Rmc/ojyIaaHvzmbLExx3AZ1THLxARcqWs92Z2opRitdOnFj4KygiPsvh8o4/8a5M3kGyZVs+9ptwUc3oQicxYy/Ycnx3v90UtuoVhbBJDysZNj0nBKKGVvN1+f/jghVn/zb+6Vls+WSrcXZbHoNX4RZYLpMT5p07dTO2nALE4iKSoANqgi2nwNJ8aYJ7qJnVZxQdtirzzQwgdkrl4b4OFyN0zdF1qpAtdK2CyiWVDAO8A0pXugzuntMmMB/1OMziAdooeRdzCF8xG5dIsECqV4QhJNQQJfDP4P2rtL6iWtFKdTjQF5GjjjkPMA/+VqX8PMOYxIBBkRmtAd1Bh2vpMe5CkWFnpQz4KwLxYlpsb4YwkWoGycyAjWEFb3aOcSOAdh+argvactjFxJPPiFtcWGzBhu047D+rprUMujcLjxBfnG76Yu2DZ4DfzReyoLLp3qeoSZP0qbXkZBC5LfJN5GeiNynafaFGMSLDT40qHIMQJFbibvKFwl1XXyV7tAnlBLZ+KRw4oQMqtS5H/cWYBi7uYo2eH2QG0u9stH3ceGa3z9ENTjGhoXXUDIeec78EO76fvM6HgIFzxztcfFLb/NRtsq0EzXhPS8bWrbr9l60eQVvOZw/h5053n9sP1la0rNSCMvIgAzqBa+29lr0JiK20Lf5LswzXl93Bu+6Azocm1YKbVps4dtjOWt/bbA9EJogOWEwbb/ut9bYfRYjfyjAxk14RUzGgO3KSSpooG2I66TvON+q0kJ4LigL3HFEvUdtJTY44eIGSjC2nnpLY1yJSy88zwTJmTMjvunAIaJlaZOS2ar9c1G9QGKiR4il30jI3C+D8TcZ1hMyJZwm4raN2fiRTn+TsGwsA11k70zn2M1iNFKNkjYoHQcQbGUxRMyjbzLsXfnAztjziUNClezEUtLP9EfHIEYw5/ESxyeteQKLQgz09Ta9yYOnScpOfV2YND7YR1xzBcrWirs+bnUMOZ6vVmvsBg7Ck7t+FurvrNlYq5isW02qIjjJ48QfT0LXCHaPxZ3+XwDaPGIRz6TGQEx22EMe6XFssl/SCNlOsPnalFVkUJRDR/8O//dNVgHwurbo+vUY7os0BtGNrpQqvr3YGRHhl6yN9RQRULix3UlVw+Odh72kV4XsjhsBNmUAd71Hg4hl+xphZvQxH4jkqOUUpPvbqc3DKBgDXg0HzARBb3w0IkSCW7Q94CyCGspZ5krT3pf9LhlwuECaJp4ANzJCbY5jtUvVJHSDSZ3Sj/de5/BdKC3dsfUYrryM49ELFwXkMXGoQsZO3UsIC7/svEVx5vlabhz7UitX69pCMQ2+jrBXN1q7XWa+w0zQkwa7mONZa7ZVPxqfWks1AwgMJoz3hW36ny2j3rX6oEmyBJyx53K7GR5miiBwPGHT9G5+MOaz7XMXcsPAoednZFWzkl2Z5RjNeD/3dhvnAbMXLSrQWxXmrc8hWafpGLzhw7YUKiAd+6FAqLRmVH1qDdzBnYBcTwJBwhzzmRHtTLK92wDsqloxTjYJedRDVm/ZUedmur1rOdmoQsBepX4Hab3p/DI2cXnnSDaj2KFaNxYq902vM0VsbYaSopVjb7LafWvZLFBiYIvOTAZS8O2abN5wxQWwUa4JNb9+EO3btXqUIgPe6+iYFB3Qf7jnVeacXSrIRiqMy9Dliuh+GPkVbr73yf/f3Qp+OgsELDmwfkhjHvfSgXocQKJr+T/67X4iKaEz8bQsU012ndyx0/QeLnbRgYiT+QceDVqosAbw6OWgbulZ54nrbDXPBbMt45HhtoW2BYmGxYqzFsj6rjhWj3UFwGsCnqekzYLjZJg4cq+JhYVZa7mcqY8T/mDz0DnCBj6dZ4ebDEzcdLhP6iK/LpTCuZ7TlEdvNlKzGKWMwRy9xZk5iMs9z/r83ZMthlheHOTgDBm3EkcWpYyrTzuC9aWwNeMT94WC7XmYOsUxWmB4qQH8jjk2rAAlWlIFFjAAHVw10jZWIIUHkMniTZZxseCp7pOW3FN9k+GfIIKEXj4PuihxKJwAAGnBJREFUQ6P1hTPm68B9XE4vUhWlCo9OQSxOcqaIzxKWZFV1QfI67wgp/8Qv0BkyKjZkp73Mj1kpCuAZCA9VwvLER58U72Qe8UIyP/AHp2VIGs7fUP3FUs4rGyNBR2cKhQ7C3/MIUPZgAgb/3tC0WutQxfm4BxO490z1VAMIvRaXTLtO6pMM6rmqOPnZWNQU0EQ6TjHFcoppeDSxp5KANjDE1KM+zuO/rFbpDus47L+oFfj2tkwifrtA0xSlqB4RDhWfaFpVNvmZv1kSfTnyj6LSZr9QnqWz3arvubZciAE3Yb88bsv5mwpvCBIel3QKk+N850zcnC0/J6GTsgN2py7eOyIHzZoybsCkUn6Cv8FhWgmVlfjPayKjfoJtnjbpWjgATk7Frta11H3bK4E9gmQfEM6c3vpoM9RQnbjWnJW9Wnbb+T2ZPrDlYB0yPva0LcdjjOxYzOQiL/jrN2byT8KWjwfNeQgVUlmGoL7Gg5Kx2Vecd71gD3zPr+2Ds1QrVgwI92FU54xG7C/9nps1pf1mOUCOu3CsBEIqTVr63yyRN1h7uOdU7tmd/eFw320+NOINiBskaXLVeIMO3OEWj646Of/39OvxwN126b9BHMZHbgA57PE8PDaRnOFKvn1rJv8kbDlyGqG4EY17glv1Svrk+yoEPGz4UXl7vq+mTKm9JRzgYy0by+yWEHgryEj78G8FUTlEUC0xnZnlsOdqHn9jJv90bPnVsHtaypQDUw5MOTDlwJQD3xsHprb8e+uxKb1TDkw5MOXAlANTDsgcuAW2nPmAL+ffIWFw0MvbDpGbfBXfRqG/n777cBXlqssgh73e0UU2JsnhgEJTkGDQA9SEb/AZE3+vl7kqNKEiEuz7ya3nCRmFn66EfkUho9Df8wZfJ8jeRagVCL+i5Pibk0FO/N7u4Jvsf5NgcIAdfk5RubDYXxHT5WLiVsiPVd9IeMDGnerX7+xZrEOun+6MAJDw68Db8xWXfcZBn22K9ykoDlAb+h7fKe/n7JSfr1FJLbABz67DIdYO3W7nT85X6lXlvmFbDvfw7jf6J33n9zQem+n8TRvRO5fXc1iU+B/bcJk9c+eN7NbLs7X21eE6c0b07Bll3FP+u/LvoetAIFV6LBPDXWmZiNDKF8/78CME5mJ4Eqe9G37qWPfw/uhpOeXfr4T+dCEgeysdfxtwQ4x3iokO+dK15i9ArUz7pb8FuxQ0jMZTunRxigJCbw3uQCM4DQvIpch1kUdh/40FQbloLJfziEoUXUjsL0Lkqe/IrZiYPdhtmncgWgON5TIx763/8dhrLBbP2ZZh+/9v7/pBI1eafAcOFCq4QIEDD2ywAxuswMEOOPHABhY4sMDBChwYMYEZHBixwSKc+IQDMzgw4gVmcGCYDRbkA3Ny8Lgxx30w+30szAvMJ3+Hwe+BAx04UOBAwQQ6qrpbamk09vrPWz+/p2HZkXuk7urq6q7uqlL93iv1dZpC+5EdzAvAKOi8q1unQ2cWwtKHxbrjKLzEt/BZBj34PY7Cny1F1rtn7PXL4kP3/juGDByzhEimF2bvD0eHGlE0+6Rsk3HvJh7+wLPqcshULLVPgfrwq/eYrdOTvyFTfOc4x2FICFXMOwjQEZ3mPEcazd3/2D8giOae7xZDk/zFSrhOX/l9BC3BbtstQlTxl4G/O94Qk3jcXy09Bf15JgT2DBvE4uvCkW9usvz/D6T2EUwufVRMAVZ6w6MKAX4Ndc/tr4M/sA2axA2xk2BxLX8zO61blLEHin1a11NeiL24o95cLrY77n3+n0WGl1AjriElP48XhX6rWZ4bZ/zeu0pEAcBUobhuoBCVPTpov9f1GZKCWMI93+wGQtWV3f+wMsz0nGXqTaITS/84AaLtYS089Knn1OWQZpLnRn4o/fQ5yOPI0kk+riL6dHRkyDxtZEl9kBAqzeZd8vsfpeje8/BWwgFs6glOG38Q7ViSUpT1HvNB8rn6B6H2d9XlRcyrW6Xg/j/eQwtCJuankLH7E3nnE/foxUvS5Xcy/GnXkDvZPPkGRM259QyAahvfEU/TMCeXu03IPP2EH4TLYxADkAjI5Lkmn7CNB1b1TLoc3vlzwVI9Z4Gn4bBjtUz3a5xcD70dy2zZ/lWSXPtOy7SPuWv1etjdtu2Nts2zRUJ635OO/cm21pq1YsLeOPzmez/Z5t4gji+9TdPc6AWjJL7w7JZpHWb5yeMLz9lwnE3H3jTbh0ESBV1AwyXKB9ejeMOjaPil4+z1up9sD50uMFch43Q02LPMltUDsKBw+MXr7VjQXBJHZ31oersf0aZbTj+14F4Pu1uWs223N70g/0ZP9LOlTivKjN4Bx3Z8eWioM7p7EcfnfqfVVN4xbLHwyGzMW92fTFVRLUxyWRj58MhszpvWmqa9hWzYnYskDofdTU2V0MZ+E/g7hirVjXXAaFI+DpJR6K3rekurS5La8pi36XrQWdaMNaMxLUMq07Bvv4NMp811xznKuJeM4uCkY84rDcizHQVf4JosWJ0lSLorvU2tFNFgR28utq2W1niFQFuU6CuvvaSbi9AyvIMbh/2tZm1aURad4UXfmlPU5c4gytN/NXChL3Vz21Qx22t2CLjyzLmG3tJURdU2Xe+LJ8ZP5Jhw7jnrTZkQeb7tbDleCveUxMFnTGz52nC2uoOIYj/ozp5el0EoNJqWPEmirx1jyTDmFGla73xNRxd7VU5hHB7j+G70IcXsrg5jvdFPbgJvx2xOE2PPM+cUmRBprjM899rv68oUXFP0J9TlWnsDc4JKtbTLRTLicHhgNaeJtmZBXoGFHp88SNgo8jc1GIUVVXnNyA6OnDbYUXFktzxhaOPLU9eaV9SWY85C56VXOqRu/U75iQad5aa2ZpmLjZqENvacqAA98YVnLmpmS6vLNcimfJ2TsYLYJ9e+vQAVGrNKfQmkIokY67SPHX0aCFQ36DwDYdPW3d62oQLsb+GDovjBcTe1Gu3RxHpgoIq9KFQ2wrY+tI13ijxr+Yi8mdPlIJNNa9813yoTyRuFXkvTt3vdjWZtwaUQgsWRTZLkyjMXdOewa83XChi+4TfXXlSlWau7o6sKZI01j4LBjtF4LcM1e2V8rON5hpeMCLftWbtWAxIdE5YrusAE/ie+pe3aLcsrsd7BkubvOvantrVXklOZ15F9CwIQDfYd9HbVjS3H2S9/PNxvmicA2AN5gxmQSdxbZNB2Wb2Pu0KUCjzSRAMbsCQeV92TPv1MujxJEkjWRtgGR0DkpQcmddM1Fxz/1OufQ8xXdGQqiuFdJ5Csn+IEjILue0XdhoTqdKXrFazQsacTUt/2OiuW/5NOiGrvms2NHmSl5pibwW5DomB5COnBiMmQEJMk6rdfKQilirmIQUQwM/5K11vV7NOeOUVkmmAO0l8zCIcEm6596kHTX9pyus+gOMoAzIqAjAuOqGw4vCMXvmNDBrSiOL7B7Nm014jrQM370GvekVQkANKKJ3pL0xjFN3F/jWnQGPKog6JVd4bBF9s+/s1flbUD1EYI4NPYCxPA82BgAAjdSMyTCYhwcRz/Ch1nHgcKUPvGGlyDdavG/eiAWULRqxiEJe6vb3xT1hDTKkHyKMImIhlIhv+to846VJOJ9EMqdQChkbT9yzihsAc0DgBt5pg4E2FFVOdbzklWqCQDL0l5xy5ygBO4Lsv65zBJYr/F4T4vOuqMNQC3AvrgpXY/72KYQKFYs3CNO/3aWh+yG+EQAOjLKEm+WgqfICjhMsghQ6fA0RknI4rDA8C8kFe84G+uvT8UAiZjf1VORwEpVAGWu4CFKnIDsGoImXWGNwDVA3nyZ+xfvkt+ACyHCRVFbFvxk4KoAFJiky6FCHivdn4VZSwv9iAqaYUItEWnLQLD1D9CYijExYFKcGHRPeh53FtC1FGxUzC7KSYHHrVX0fhfWs+orBdiVUkyWJcZfDtOTIK1Cboc14oM12QCeScmmaG4UIG9iBfjIztK/FVSoyBJZ7aWQXBSghDSjTRdiJClcSF1BxKkR90FwmyfZR0XSEVs1rERoXg/6idQn5cAYXCHZa6/xpF18oyKzzoNSQWSgNW3Hq/Zg3kBKKCV5CvHvzK1jZJAFxPfBCCiss9Fz4L0WRP+bfTGQJlpJchnxe5/7WBURAoKXNbEDy97Pl2O+psi4AJqIYM4hLWlMwuIwNmWB/Cm0K2OcEyNPTgC+isyU+oJ8ncsEi1B2a29s/wIwZinpPqqHyXg7aCIpdGxIaetwM0sdA6MOczyj1ORY9Ux5w2qK0nRYB1ENAW2AwBjFDe809V5tu1FDK+JChQA/tCa6QJH1xFxyMFzSUCbwjJUT4F0YCmnKwLETPoQQH8TdObSwrQK0GeZr0Gwj+GkZVMoN4FhDaJnMsfZwMNiy/9tH8IYBqxW5p7KPZU2CBeglnj0gKCi0nLcKadJ4FNKYIcrN9tbjrPlWEuqMq2Yx6h6IoRgmmpQTUObSp8q6J6sHPdSjAzk/xiOJ1UVfB3BseNki/0Ru5B7JOUAiCsc3IFyc15RpnOkTqQwB0sltIKUMGpFqoRr1OWccuwpWfXLyYBBT/GjhH6JiF4cEnRM9wj3w6U4shTRHJbylA9wS5n8RJ91mL9sERWt01mFQHw6Z7mfPlczXb5R7AteAIrgB4cwsbOptKNald93YEM5DpcAocgQ6hyHCHFEnSll9aCDtrQXnEvQEAdfofgLKL9iL6IzH2KbR3GwwxXhOHl0pVoFfCaaRL50ZKGQ1ExAlxFTzTNihCUiB3uYSU5Zx0VSS0ckF3MjconzIP+NYz3unUQEd1jWEAFFaX1vZNykTuUbpX8N2u+Z5TLBCVLbDH4vZ7lcNz+HWStl1DxL2bPpcgE8WEAtRB4I2pQfff5Nd3bM5rzBkIBT7Q4IDf3SSDQ8eQiQpjIAgCZw/sbph1CSEofpFVoUduvZTlYYGiykIfciLhPMBK7/cIYQ7TMcdqGcqWG8xhTWCAjNTkVC1byzM3YQdpvv3HRHKcp0cj1wV/X2wdBdHtPluM/I9FO6urGzV5kuPzHH99pA81gcgzjt8zRnC3QeRZGXo80j1axYD1ACOxvOmXyFSbBVI4SOHfslfWqypoR9DAt7gdMtBbTOVSxWcp9zeYFvuNfkDvVcA/wPkVdCo8AQDpItXN9Xl7M9wQFsecfJmLTgCjsDJBMJQBkTqeU9oN98BOlfUDPMndz9ZfKDU48xDbbmb1I60wpxlzy26OdqFnR5oZyq8MZeWK7LkyT8rIPpiSgaB0IU+xVfeNay6Zz49mtOmMg0Pmsm94JXBksB377zsoJ8AuTunqmvd4dgGmSH2jHyOJ7eVB2drxMELBrY7xDv8DUz5gttCiDl+SNspsvRqVHouMDY8hG5ny7HbUq6a0/JQ6ubau1Z2rxWgnSX3jd2Ia57YkfGbizEuMW9JRDV7s7v4yynVkw4bkErBZtcCW0/qui5dLkgOqKxHezpvgneL74jxl/rn4YiHBkoG8KsZ6gXx2cU1k/VIZ5IYOYzTG58UNTTeBBkx1kUR3rUFgQ9Gw3Q+lxPCKImbkew6RkbXY9QTs0AUMUocN4q2rrVXrO9Ce+L42lA0haa+ufMPpo1hDtc+lNWmFGHC/QHjxXwVYmvLwWdhHfhEZaZQ7Eg/Dr8HzBiC+ajURicx6XcwCfSBbqAiMzLqRbhVkGsByhBTjIbO9QzCgc0QOGq25w1jDeE0O0XtpE+xfvClkWxPLn2jRm5vqCbH8rZm7u5qNuwGfgPech1pPgIXtc7F9TORm3s+FQUDNATlFbB74QCoQaxZuH6Qbpc+fT33iK8nIOmfoEMUS2lBLEDNMMsx2IggMq8SK34ROFcnu5cc/eXyc8/duoAW86iEEp1eeJ9yK+DURBc5XcJgi6nB/EMrQT6iDtysbOptI/iOE6S66G7DAq9eZBuibFzcAyg0KsCYWX10G6W9YIzCTepdGGhReEZuPwE/uBSQA17t5CHYInxhW+Bqpatr+UChviN8eWJBYDLssXNZowYcTWAa27Hzq7LOi6QWj4i99LlBfMJZxMi0C/3bsnhwO8sfk/qVPE+XNjBTpN+0FeV6oi0OLs467UnGdihvDv2zhs8mjnLaUWpUzKr9zmvnkuXwwDTEyRdI9zTXu8bOHi8FaN33m0SYhzFwefe8F/gVuevnsfBYce/wn0rxWi69gDjQWr3z+njnJWC/kZxZJoJVpB5t79ruj+BYRgm6ijqrsgSIdrBoHc4jGHKNd1T1zoMMRU+X5JGAfyaO2Tgm2nbA3/THdLtyMHA3fIisWlYpqX2kd/+CGYlcFQrpi+iBXN6s29qfufbBVqeyjS6wKkFFT1hRaAqXDsIO/FH4DplNkCctGW6nDYn613cW0RHptryY3R1U0cpOGiXNQigA4xL5MYNLJXCB7QCNwYIKopaaLcD9L4DaoOPTnn01uNGDWeCvIS47KPIW1VNgNC+7MzW7W/UgkKYMzKnEcW1kmlKD9zVkb9Sb5/mSROozKtV5h/hZIv34bYM9kNxfMPqpy9UpQsfHQVwIo4A27gz1yi8TJzemTaKFGLNNG7gGl3RdMdwX10OjhjwQJWTIaolsVsstoCbK6BRFu4rUpt7Ih1BKIVTiLQCYpy7v1R+QG0QeQUHfDQAtz8zp2eigltw8OuHoHcH9oLp3xRlLBX7hLpduLcLCJixh6MSGzvM6IuO9pFqOohKAVur8Om3+MvflDC68RWZhkoX6pnYC14dOtQJUZ1fYojsOtC1XXCzZvyh3hAcZZyMOH3GyTs2eGyBZxB4Pbp0ZP0VvvEF76Tey0t6xqsJ5/LSjouT+v9gghdHZIIuh7BfewxLnvoQ+8e2+0sSnXU7O30MpEVdzg8Y0YnbBXYlyVW/s9PFfFvltcG2OvMt5hwHfADS78xZzovQSpc6cXjp476Zs1xQ89gKO7bxuqOgu9PpP0dM3DPp8tTWDSEVKiFSbf3g32cB0cuC2GwaUlTDCExIZEGI0vhgGosGjRm+3GsQQmoLurbc7awQIinNj1moODAVJiTT34KVG3fiitoGb0e3OUXIK01f0LtHDkSuT5vgWd8E6259A5ehCD1qs+3eoWN8cCD8A/U0c5Cj/iaK5p4nCSyvUn0efPM56QcLpKS8hZph1d/W1Fk0/o0HP3NJgNiuzVpq/Ac33BmGHZGm8y2ML1zYlU/JymvdXKrB3HvPAl9ZBVc9MC9OKc15tT4tkym5sdb7+z/71htgmPEliK6GEP0HsWMB3SlHpxjzjNY7ZaFLw82CfYhyh89UHUcElkhI+vG6oa1jb2h7cRTsQ1AUmXeGYRz9zQJOvrH6YRRiDhYy5wyvk+irDWRLanO+XlMkItW07X4YR/0NuB0/GCI+igafVDLvwvoeh5j5QdYPLqOrjP745rK7CNs3oD/CvA1EMT5fxgnqDFabpEzX02BvRmmuEoHs4tYKY8SIos7p7mCAfAMa4psA6cGYu1HQhTw8+En5k45gPInChMqtpCj1pbbxmkizhtv/Ldhrgjm45YcRo0pa7Abi9U1yeaArU3Jzs+cd2vosj5wfJ+Mm8FZAKuof+2EhFBR2O4POgqK8t72TrvlWpe/SxFGA/CTN7eHYI7gzk1Rjp9fb1NQF9k7Bd8gPMxpLb5vN1zjgrzTnP//3F0FUIKw0HX1Fgwj5RJSx//hNFHt8cUBTlOam5x+Y6ls0Mo+iwUeQH+hsFGKiG9LYGkb/6tSJ2j4JLk/tBk7qdGRgEp6YMHKSosyaJk6EWvvLf5fWMyrrxc8gm9nnvMvnCYvxjsNsfsUjjFolRJ6u6y0dp2vT/a8x8o4NIuvut8vgQFfe4ZsL4yOLik1ecoe/Bt0lpbGb26DEV357hhDS6JxFUUgnS906DXPX4x1f9+PcpB4bESbJBLatN6G/RkVrEKF1kDDzRsoMtDnPqOZekCSxtwwjQ60aAQTNkfqiaSxqbf4WErowIKgWQy5gdUrDg7DG3LonrgCF83183rMX64TIjY3uEN8joASFe42ynXpK7f0uojO/t4MjKGnOF4qlFl8e2/AyDCG1VTeNYo6PII7+O3Nn3Y+Iu+5+Hl0O+0HuXQZ1RcfnJsoyouQTAlDgV7EvWUn+TvGekusb1hT8lFWRZNlCeBgOfxYTzBbEJ/stS3yR1cB/pd9QDleRv1LDeHgIW+suQTBfwUqWPcf5kZWIV3HE8e0n9jy+xtwyaLsTH518jbworP6A6pN1EJ59VMIWzu7CsZ4W5+PAJ9M5+Rd4RcT0rhgmXHjmt99wN83khyb8Mtbx0vtuovxLhaU3jRVyHqLJdOzXWws4B/M33ZeMm1R+8vWU/MWO0cCOgmwUby6TH07ubT3l92T1cf5kJcIVE2yhZOLlLWxJmyhO9rLKOIW39OJWqjJZwivexBh50E4ByXDsHrZm3TEWvInx79KOp4X0ft7f8afzJXFvUXDDpc+mS2Wut7h0FHqXY35Zbfn2Xs5fhZ7/OMJ/sC5nYdj+SmqV/XFdfdaWfIPvUoGMY4MULDPPStyfoHGw7/HX3qA7o8B5j9GOf4K+PVsXMpP4s5FQNfyH5ECwr+t528BjyHza2h5DyYt+9sfq8htPnyL6lq1xW+6L5t29iA92G7UF2z8Lg1O3vYBpN+71fHXzrRy4PABjp/RWg3dGP2jqfJsm9rn1oerHWznwawdso4s9jHO49c7qx78YB26xUjyAE09b2wMI+HM88mN1ORyYbrcg/zm4OrEX3OQ+8Ybqh4dzAMyD8LnLIPzwFv5CT4KHhX8K1tG/EBeqrlYceDEc+OG6/MVwpiK04kDFgYoDFQcqDrwMDlS6/GWMU0VlxYGKAxUHKg5UHJjEgUqXT+JMVV5xoOJAxYGKAxUHXgYHKl3+MsaporLiQMWBigMVByoOTOJApcsncaYqrzhQcaDiQMWBigMvgwOVLn8Z41RRWXGg4kDFgYoDFQcmcaDS5ZM4U5VXHKg4UHGg4kDFgZfBgUqXv4xxqqisOFBxoOJAxYGKA5M4UOnySZypyisOVByoOFBxoOLAy+DA/wMMerqtZchJNwAAAABJRU5ErkJggg==;" vertex="1" parent="1">
          <mxGeometry x="50" y="60" width="486.59" height="210" as="geometry" />
        </mxCell>
      </root>
    </mxGraphModel>
  </diagram>
</mxfile>
